<svg xmlns="http://www.w3.org/2000/svg" width="18" height="18" viewBox="0 0 18 18" fill="none">
    <g clip-path="url(#clip0_13471_262)">
        <path d="M3.104 9H6.43734M3.104 9C3.104 12.3137 5.7903 15 9.104 15M3.104 9C3.104 5.68629 5.7903 3 9.104 3M6.43734 9H11.7707M6.43734 9C6.43734 12.3137 7.63124 15 9.104 15M6.43734 9C6.43734 5.68629 7.63124 3 9.104 3M11.7707 9H15.104M11.7707 9C11.7707 5.68629 10.5768 3 9.104 3M11.7707 9C11.7707 12.3137 10.5768 15 9.104 15M15.104 9C15.104 5.68629 12.4177 3 9.104 3M15.104 9C15.104 12.3137 12.4177 15 9.104 15" stroke="#3B3C3D" stroke-linecap="round" stroke-linejoin="round"/>
    </g>
    <defs>
        <clipPath id="clip0_13471_262">
            <rect width="18" height="18" fill="white"/>
        </clipPath>
    </defs>
</svg>