<svg id="background" xmlns="http://www.w3.org/2000/svg" xmlns:xlink="http://www.w3.org/1999/xlink" viewBox="0 0 1444 401"><defs><style>.cls-1{fill:none;}.cls-2{fill:#005eb8;}.cls-3{clip-path:url(#clip-path);}.cls-4,.cls-5{fill:#3d84d0;}.cls-4{opacity:0.2;}.cls-5{opacity:0.6;}</style><clipPath id="clip-path"><rect class="cls-1" width="1444" height="401"/></clipPath></defs><rect class="cls-2" width="1444" height="401"/><g class="cls-3"><path class="cls-4" d="M1094.18,181.13,1280.87-5.56l-3.5-3.5L1088.94,179.37l3.5,25.66L1058.52,239a15.4,15.4,0,1,0,1.75,23.26,15.43,15.43,0,0,0,1.7-19.72l35.71-35.7Zm-37.42,77.58a10.45,10.45,0,1,1,0-14.78A10.36,10.36,0,0,1,1056.76,258.71Zm393.79-90V191.4l-35.15,35.14-21.58-2.91-142.1,142.1a15.46,15.46,0,1,0,3.64,3.36l140.23-140.23,21.58,2.91,38.33-38.32V170.7l88.92-88.93V57L1603-1.62l-3.49-3.5-60.07,60.06V79.73ZM1250.64,386a10.44,10.44,0,1,1,3.06-7.39A10.37,10.37,0,0,1,1250.64,386ZM1263,229.87l33-33-3.5-25.66,81.92-81.93,3.5,3.5-80.19,80.2,3.5,25.65-34.75,34.75a9,9,0,1,1-3.53-3.47ZM1194,117.45l-55.94,55.94a8.94,8.94,0,1,1-3.38-3.61L1192,112.5h24.78l88.93-88.92h22.74l35.15-35.15-2.92-21.58.87-.87,142.87-142.86,3.5,3.49-142,142,2.91,21.57-38.33,38.33h-22.74l-88.93,88.93Z"/><path class="cls-5" d="M1431,91.77l49.52-49.59-2-2-50.32,50.39L1427,127.16,1364.27,190l0,33.08a8.91,8.91,0,1,0,2.86.16l0-32.05,62.72-62.81ZM1369.5,227.66a6.06,6.06,0,1,1-4.28-1.77A6.06,6.06,0,0,1,1369.5,227.66Zm83.37-84.82-62.76,62.84,0,33.74L1340,289.58a8.91,8.91,0,0,0-10.61,14.11,8.91,8.91,0,0,0,12.87-12.31l50.7-50.77,0-33.74,62.71-62.81,1.17-36.61,49.52-49.59-2-2L1454,106.23ZM1340,301.66a6,6,0,0,1-8.56,0,6.06,6.06,0,0,1,0-8.56,6,6,0,1,1,8.56,8.55Zm-1.85-106.17,61.23-61.31a5.21,5.21,0,1,1,2,2L1339.76,198l-28.42,10.85a5.13,5.13,0,0,1-1.51,3.76,5.21,5.21,0,1,1,.67-6.51Zm-172.89,3.89a8.91,8.91,0,0,0,8.25-5.52l31.93,7.28,71.8-71.9,29.29,7.27,183.9-183.23-2-2L1305.66,133.34l-29.29-7.27L1204.55,198l-30.39-6.92c0-.2,0-.4,0-.61a8.92,8.92,0,1,0-8.92,8.92ZM1161,186.19a6.05,6.05,0,0,1,10.33,4.27,6.06,6.06,0,0,1-6,6.06,6.05,6.05,0,0,1-4.28-10.33Zm70.83-38.95A5.18,5.18,0,0,1,1238,139l36.25-36.3L1306,109.2l37.94-38a5.18,5.18,0,1,1,2,2l-39,39.08-31.8-6.45L1240,141.06a5.18,5.18,0,0,1-8.2,6.18Zm111.81,204.53a8.87,8.87,0,1,0-2-2L1321,370.39l2,14.85L1214.93,493.3l2,2L1326,386.26l-2-14.85Zm1-11.43a6,6,0,1,1-1.77,4.28A6,6,0,0,1,1344.64,340.34ZM1033.08,491l2,2,34.76-34.77V443.94l51.48-51.48V379.3L1141.69,359l12.49,1.68,82.25-82.25a9,9,0,1,0-2.1-1.94l-81.17,81.16-12.49-1.68-22.19,22.18v13.17L1067,442.75V457.1Zm204-224.35a6.06,6.06,0,0,1,4.29-1.78,6.06,6.06,0,1,1-4.28,10.34,6,6,0,0,1,0-8.56Zm-40-7,2.2-22.78,12.47-12.47,24.47-3.89L1252.76,204a8.93,8.93,0,1,0-2.08-2l-15.87,15.87-24.47,3.88-13.86,13.86-2.19,22.78-154.9,154.91,2,2Zm56.44-67.37a6.07,6.07,0,1,1,.71,9.14l-1.29-1.3a6,6,0,0,1,.58-7.84ZM1168,435.24l46.42-46.41-2-14.85,20.12-20.12a5.2,5.2,0,1,1,2,2L1215.43,375l2,14.85L1170,437.27Zm76.16-25.61L1192.7,461.1h-13.16l-20.35,20.35,1.69,12.49-83.2,83.19-2-2,82.19-82.2-1.69-12.49,22.19-22.18h13.16L1243,406.77h14.34l32.38-32.38a5.17,5.17,0,1,1,2,2.09l-33.15,33.15Zm271.21-223.72-1.68-12.49,83.19-83.2,2,2-82.2,82.19,1.69,12.49-22.18,22.19h-13.17l-51.47,51.47h-14.35L1384.87,293a5.18,5.18,0,1,1-2-2.09l33.15-33.15h14.34l51.48-51.48H1495ZM1403.17,351.2,1401,374l-12.48,12.47L1364,390.33l-16.58,16.58a9,9,0,1,0,2.08,2L1365.4,393l24.47-3.89,13.86-13.85,2.19-22.79,154.91-154.9-2-2Zm-56.44,67.37a6.07,6.07,0,1,1-.71-9.14l1.29,1.29a6,6,0,0,1,1.19,3.57A6,6,0,0,1,1346.73,418.57ZM1283.46,253a27.21,27.21,0,1,0,27.21-27.2A27.23,27.23,0,0,0,1283.46,253Zm27.21-24.34A24.35,24.35,0,1,1,1286.32,253,24.37,24.37,0,0,1,1310.67,228.65Zm0,44A19.69,19.69,0,1,0,1291,253,19.72,19.72,0,0,0,1310.67,272.68Zm0-36.51A16.83,16.83,0,1,1,1293.84,253,16.84,16.84,0,0,1,1310.67,236.17ZM1301.41,253a9.26,9.26,0,1,1,9.26,9.26A9.25,9.25,0,0,1,1301.41,253Z"/></g></svg>