<svg width="495" height="254" viewBox="0 0 495 254" fill="none" xmlns="http://www.w3.org/2000/svg">
<g clip-path="url(#clip0_4301_193787)">
<path d="M74.3126 152.99C73.8796 153.519 73.185 153.585 72.6742 153.127C72.1291 152.644 71.9889 151.841 72.1789 151.158C72.21 151.043 72.2879 150.981 72.3751 150.953L72.4031 150.94C73.0043 150.685 73.8267 150.673 74.3468 151.115C74.9387 151.616 74.7518 152.454 74.3126 152.99ZM49.4995 152.04C49.4403 152.059 49.3874 152.059 49.3282 152.062C49.2223 152.199 49.0198 152.264 48.861 152.108C48.8018 152.059 48.752 151.999 48.7052 151.94C48.3003 151.691 48.048 151.155 47.9265 150.691C47.8985 150.588 47.9203 150.501 47.967 150.436C47.9109 150.183 47.8797 149.931 47.8766 149.688C47.8673 149.096 48.1476 148.424 48.8547 148.548C49.6521 148.688 50.4309 149.511 50.515 150.311C50.5866 151.003 50.2035 151.825 49.4995 152.04ZM83.0062 162.824C82.1745 162.335 81.4176 161.621 80.832 161.026C79.8757 160.061 78.3775 158.488 78.3993 157.011C78.4117 155.8 79.6733 155.525 80.5143 156.245C81.2619 156.88 81.5827 157.852 82.1714 158.609C82.8909 159.537 84.0528 160.279 85.2489 160.755C86.8842 158.429 87.1552 155.22 86.6039 152.414C85.9715 149.177 83.8316 144.561 80.6358 140.253C80.234 141.393 79.6234 142.493 79.1593 143.259C78.5581 144.259 77.5894 146.162 76.44 146.567C75.219 147 74.9729 145.872 75.1567 144.954C75.1567 144.907 75.166 144.857 75.191 144.81V144.807C75.2096 144.723 75.2346 144.642 75.2626 144.567C75.2938 144.486 75.3405 144.437 75.3997 144.402C76.0663 143.11 76.845 141.87 77.4275 140.54C77.8635 139.546 78.1314 138.528 78.4055 137.506C75.6053 134.354 72.2381 131.597 68.494 130.008C69.254 131.585 69.7804 133.369 70.2633 134.93C70.7616 136.528 72.073 139.926 70.8551 141.493C70.5249 141.923 69.8365 142.194 69.3163 141.907C68.466 141.428 68.5687 139.683 68.5532 138.898C68.5189 136.986 68.5127 135.332 67.8897 133.466C67.3477 131.849 66.46 130.41 65.5037 129.018C63.1613 128.46 60.7099 128.392 58.1838 128.971C58.922 129.632 59.5014 130.441 59.654 131.395C59.7942 132.276 59.2553 134.31 58.0934 134.379C56.5702 134.472 56.4613 130.927 56.2775 129.535C54.8976 130.027 53.5021 130.719 52.0973 131.641C49.6895 133.217 47.8611 135.285 46.4781 137.59C46.503 137.634 46.5217 137.68 46.531 137.736C47.0263 141.611 51.9696 142.951 54.9162 144.446C55.8289 144.91 59.2584 146.514 58.813 147.897C58.5794 148.629 57.3583 148.632 56.779 148.523C55.3056 148.252 53.9818 147.072 52.8324 146.184C50.1848 144.125 47.5683 142.144 45.3816 139.658C42.9583 144.838 42.407 150.806 42.4942 155.223C42.5689 155.189 42.6624 155.183 42.7558 155.223C44.4441 155.946 46.4438 156.261 48.2723 156.089C49.4466 155.983 50.6582 155.709 51.8388 155.881C52.8324 156.024 54.3868 157.239 53.2716 158.232C52.3154 159.08 50.191 158.874 49.026 158.724C46.6961 158.419 44.5905 157.672 42.5471 156.659C42.6187 157.952 42.734 159.064 42.868 159.905C43.5408 164.216 46.1417 168.153 49.7705 170.558C50.976 171.358 52.2936 171.988 53.6735 172.452C56.3336 170.144 58.3551 167.596 59.5356 164.126C60.0091 162.736 60.9965 158.905 62.9682 159.039C63.8528 159.095 64.4633 160.17 64.6284 160.936C64.9119 162.235 64.1238 163.531 63.4105 164.546C62.3608 166.035 61.2021 167.43 60.1773 168.944C59.1836 170.408 58.1526 171.844 57.0718 173.243C59.5948 173.573 62.1864 173.383 64.5942 172.639C68.3912 171.461 72.3658 167.518 70.2633 163.453C74.3468 164.353 79.3649 164.964 83.0062 162.824Z" fill="#495233"/>
<path d="M107.098 135.269C106.718 135.712 106.042 135.762 105.535 135.541C104.849 135.241 104.575 134.528 104.672 133.821C104.703 133.563 104.98 133.472 105.158 133.547C105.569 133.03 106.276 132.912 106.781 133.391C107.254 133.84 107.572 134.712 107.098 135.269ZM98.6507 123.349C98.5292 124.096 98.1679 125.202 97.4266 125.567C96.5326 126.006 96.1682 124.891 96.0654 124.227C96.0592 124.174 96.0622 124.131 96.0716 124.087C95.6822 123.358 95.4829 122.495 95.5763 121.773C95.7227 120.636 96.8534 120.343 97.7723 120.882C98.6351 121.387 98.7971 122.439 98.6507 123.349ZM97.3674 147.48C96.9095 147.854 96.3083 147.931 95.8286 147.558C95.6355 147.405 95.7227 147.187 95.8909 147.084C95.8878 146.667 96.0498 146.215 96.3177 145.935C96.7257 145.499 97.439 145.611 97.7474 146.115C98.0371 146.595 97.7598 147.159 97.3674 147.48ZM111.169 117.356C111.188 117.244 111.244 117.181 111.319 117.15C111.409 116.636 111.783 116.225 112.406 116.132C113.898 115.901 114.938 117.658 113.696 118.683C113.219 119.075 112.509 119.315 111.904 119.103C111.154 118.842 111.067 118.038 111.169 117.356ZM115.393 140.428C117.461 141.206 119.604 141.736 121.797 141.988C123.003 137.811 122.816 133.27 122.352 128.921C120.813 130.485 119.134 131.846 117.041 132.821C115.287 133.637 112.281 135.02 110.721 133.195C110.615 133.077 110.581 132.859 110.721 132.746C112.415 131.348 114.671 131.485 116.67 130.862C118.673 130.236 120.797 128.903 122.152 127.168C122.109 126.806 122.065 126.445 122.018 126.087C121.617 122.872 121.059 119.683 120.417 116.509C120.389 116.568 120.361 116.63 120.333 116.686C120.062 117.244 119.545 118.415 118.82 118.533C118.144 118.642 117.894 117.845 118.031 117.315C118.24 116.518 119.013 115.867 119.33 115.091C119.52 114.627 119.689 114.154 119.829 113.671C119.293 111.145 118.71 108.631 118.134 106.124C118.094 105.937 117.907 105.874 117.742 105.899C115.247 106.242 112.724 106.591 110.21 107.002C107.469 109.696 105.519 112.867 105.201 116.814C105.108 117.935 105.809 123.816 103.13 123.097C100.298 122.337 101.635 117.051 102.183 115.288C103.049 112.503 104.485 110.03 106.192 107.722C100.482 108.846 94.8911 110.456 89.764 113.191C87.8359 117.225 88.0975 121.402 90.5988 125.349C91.147 126.211 94.3148 130.227 91.7544 130.675C89.602 131.049 87.9137 126.816 87.5555 125.24C87.0135 122.891 87.3281 120.465 87.4932 118.091C87.5898 116.658 87.8358 115.319 88.2906 114.014C88.2283 114.048 88.166 114.079 88.1037 114.113C84.2413 116.415 80.5689 119.396 79.3821 123.931C78.8557 125.944 78.7965 128.015 79.0177 130.077C80.0113 131.532 81.0766 132.933 82.3194 134.189C83.5965 135.475 85.0668 136.051 86.5339 137.026C87.5836 137.718 89.3746 139.908 87.8266 141.032C86.5806 141.938 84.2382 140.83 83.0452 140.334C82.5624 140.129 82.0858 139.911 81.6186 139.686C81.4286 151.959 92.1157 145.611 92.1157 145.664C92.0378 156.905 103.504 157.002 110.565 154.373C109.855 154.242 109.148 154.108 108.431 153.993C107.03 153.762 105.597 153.682 104.198 153.404C102.678 153.102 100.563 152.149 100.875 150.208C101.143 148.536 103.32 149.888 104.117 150.33C106.862 151.844 110.076 153.239 113.269 153.074C113.608 152.872 113.945 152.66 114.272 152.429C116.717 150.704 118.766 148.424 120.209 145.807C117.483 145.735 114.758 145.539 112.073 145.072C110.123 144.732 107.03 144.212 106.095 142.175C105.992 141.945 106.117 141.711 106.372 141.692C108.721 141.521 110.951 142.15 113.023 143.228C115.508 144.521 118.069 145.084 120.741 144.748C121.05 144.091 121.333 143.421 121.567 142.73C121.582 142.689 121.592 142.645 121.604 142.605C119.424 142.346 117.284 141.82 115.222 141.044C114.842 140.898 115.007 140.284 115.393 140.428Z" fill="#6C8444"/>
<path d="M105.826 170.863C105.405 171.558 104.449 171.854 103.898 171.252C103.468 170.776 103.449 170.075 103.68 169.471C103.558 169.352 103.518 169.147 103.692 168.997C104.832 168.01 106.667 169.458 105.826 170.863ZM107.147 155.669C106.773 154.943 107.044 154.058 107.648 153.535C107.71 153.485 107.773 153.466 107.838 153.46C108.427 153.049 109.137 153.127 109.486 153.846C109.866 154.625 109.57 155.603 108.872 156.095C108.243 156.544 107.495 156.332 107.147 155.669ZM98.78 163.721C98.1103 163.699 97.7895 162.892 97.7148 162.282C97.64 161.693 97.7366 161.092 97.992 160.565C97.9858 160.519 97.9889 160.469 98.0107 160.413C98.154 159.992 98.3844 159.497 98.8298 159.366C99.1631 159.266 99.4809 159.435 99.7083 159.678C100.232 160.232 100.431 161.185 100.291 161.967C100.163 162.671 99.5619 163.749 98.78 163.721ZM125.555 162.129C124.805 162.082 124.048 162.035 123.297 161.973C121.771 161.852 119.628 162.107 118.369 161.061C118.223 160.942 118.173 160.684 118.345 160.537C120.709 158.547 123.303 160.74 125.833 160.842C126.157 158.896 126.11 156.837 125.964 155.13C125.842 153.675 125.527 152.292 125.014 151.04C123.612 152.962 122.369 155.005 120.525 156.494C119.787 157.089 117.88 158.861 116.912 158.145C115.85 157.36 117.706 156.095 118.276 155.719C120.618 154.158 122.911 152.641 124.708 150.358C123.802 148.511 122.406 147 120.463 146.062C119.095 145.399 117.603 144.922 116.061 144.589C116.401 146.969 116.033 150.498 113.834 151.084C112.286 151.501 111.311 149.691 111.208 148.255C111.087 146.595 112.155 145.103 113.442 144.165C111.096 143.901 108.701 143.91 106.471 144.081C106.059 144.109 105.642 144.156 105.225 144.2C105.218 144.243 105.209 144.29 105.184 144.334C104.078 146.477 102.823 148.922 102.605 151.373C102.521 152.283 102.904 153.482 102.428 154.335C101.667 155.681 100.256 154.569 100.045 153.482C99.6615 151.495 100.593 148.99 101.231 147.121C101.499 146.337 101.783 145.505 102.1 144.686C99.294 145.262 96.5436 146.249 94.1358 147.947C93.329 148.514 92.5877 149.162 91.9055 149.859C91.6003 152.277 91.6937 154.722 92.5783 156.902C93.2169 158.466 95.0048 161.413 93.2605 163.057C92.0613 164.179 91.3573 162.032 91.1081 161.132C90.3232 158.323 89.993 155.298 89.8684 152.33C88.6505 154.083 87.6818 156.036 86.9186 158.064C86.1711 160.051 85.5699 162.129 85.1151 164.216C86.5853 165.256 88.3172 165.68 89.912 166.589C90.6596 167.016 92.1329 167.919 91.4196 169.056C89.9338 171.411 86.5729 168.686 84.6821 166.661C84.5264 168.567 85.1493 170.081 86.4763 171.458C89.3482 174.442 93.8492 175.404 97.3441 172.701C97.2039 176.186 99.8111 179.043 103.213 178.56C104.434 178.389 105.446 177.775 106.34 176.949C105.546 177.03 104.748 177.071 103.963 177.04C102.945 177.006 101.213 176.921 100.802 175.707C100.406 174.539 101.471 174.473 102.216 174.76C103.135 175.109 103.723 175.619 104.77 175.635C105.947 175.66 107.112 175.286 108.237 174.838C109.517 173.311 110.751 171.953 112.57 171.013C113.264 170.651 113.987 170.346 114.722 170.066C113.298 169.944 111.199 169.689 110.732 168.39C109.947 166.219 113.252 166.075 114.361 166.256C115.85 166.496 117.27 166.969 118.787 167.072C120.073 167.159 121.319 167.001 122.543 166.667C122.796 166.483 123.042 166.294 123.285 166.085C124.437 165.088 125.141 163.677 125.555 162.129Z" fill="#495233"/>
<path d="M88.3521 187.263C88.757 187.251 89.162 187.226 89.5575 187.216C89.9749 185.999 90.4266 184.793 90.9685 183.609C91.1149 183.295 91.2582 182.98 91.4171 182.666C94.3139 176.676 98.572 171.505 103.792 167.369C104.378 166.895 103.546 166.073 102.961 166.537C97.6499 170.751 93.2985 176.034 90.3456 182.155C90.277 182.301 90.2085 182.451 90.1556 182.597C89.4329 184.108 88.8598 185.671 88.3521 187.263Z" fill="#495233"/>
<path d="M82.0774 187.341C82.473 187.35 82.8686 187.35 83.261 187.35C83.476 185.705 83.7345 184.058 84.0148 182.426C84.5007 179.585 85.0739 176.756 85.6968 173.95C87.0269 168.022 88.5937 162.151 90.1699 156.279C91.7117 150.542 93.3688 144.826 96.9104 139.961C97.362 139.35 96.3341 138.764 95.8949 139.372C92.4935 144.038 90.7897 149.483 89.2914 155.005C87.5097 161.553 85.7654 168.125 84.3201 174.75C83.7688 177.298 83.2486 179.856 82.8219 182.426C82.5415 184.058 82.2923 185.705 82.0774 187.341Z" fill="#495233"/>
<path d="M68.0545 160.36C69.5995 163.503 70.861 166.74 71.8858 170.029C72.0447 170.502 72.1786 170.976 72.3157 171.449H72.325C73.3965 175.122 74.2095 178.875 74.8044 182.672C75.0536 184.152 75.2592 185.65 75.4368 187.139C75.8199 187.161 76.2155 187.182 76.6204 187.195C76.4304 185.662 76.228 184.139 75.9788 182.619C75.4368 179.227 74.7484 175.869 73.8482 172.564C73.68 171.954 73.5087 171.337 73.3187 170.73C72.2035 166.998 70.8174 163.335 69.07 159.762C68.7429 159.074 67.7275 159.672 68.0545 160.36Z" fill="#495233"/>
<path d="M57.1377 178.414C60.1809 176.398 63.2085 174.333 66.2767 172.349C67.9898 171.246 69.6813 170.424 71.7309 171.178C71.9364 171.259 72.1264 171.349 72.3071 171.449C72.8709 171.732 73.3755 172.128 73.8396 172.564C74.4377 173.137 74.9547 173.816 75.3721 174.505C76.78 176.838 77.4809 179.622 77.864 182.528C78.0789 184.095 78.2036 185.696 78.2908 187.263C78.6646 187.282 79.0477 187.294 79.4402 187.307C79.3374 185.731 79.2252 184.095 79.0103 182.482C78.5057 178.492 77.4466 174.638 74.8862 172.013C74.4034 171.517 73.8739 171.078 73.3101 170.729C72.846 170.433 72.3725 170.197 71.8772 170.028C70.65 169.599 69.3199 169.567 67.965 170.085C66.1957 170.773 64.5417 172.147 62.9625 173.196C60.835 174.617 58.7044 176.028 56.5707 177.445C55.9664 177.841 56.5272 178.819 57.1377 178.414Z" fill="#495233"/>
<path d="M104.34 184.896C105.389 187.506 105.972 190.356 105.972 193.34C105.972 205.872 95.8141 216.032 83.283 216.032C70.7518 216.032 60.5942 205.872 60.5942 193.34C60.5942 190.356 61.1798 187.506 62.2264 184.896H104.34Z" fill="#ED5500"/>
<path d="M57.3444 183.422C57.6186 183.161 57.6185 182.731 57.4503 182.419C57.2198 182.005 56.7339 181.865 56.2698 181.958C56.1016 181.996 56.0517 182.176 56.1109 182.282C55.787 182.569 55.7434 183.024 56.0891 183.32C56.4068 183.594 56.9987 183.749 57.3444 183.422ZM49.0433 178.682C49.5324 178.569 50.2456 178.286 50.4512 177.797C50.7004 177.208 49.9435 177.034 49.5012 177.006C49.4638 177.003 49.4358 177.006 49.4046 177.015C48.9063 176.806 48.3238 176.722 47.8503 176.819C47.1058 176.968 46.9657 177.697 47.3675 178.255C47.7413 178.772 48.4484 178.822 49.0433 178.682ZM64.9634 176.654C65.1877 176.342 65.2126 175.959 64.9385 175.676C64.8294 175.56 64.6861 175.626 64.6301 175.738C64.3497 175.757 64.0632 175.881 63.8857 176.065C63.6209 176.352 63.7268 176.794 64.0757 176.959C64.4058 177.121 64.7703 176.915 64.9634 176.654ZM45.6793 186.902C45.6076 186.92 45.5671 186.958 45.5484 187.008C45.212 187.092 44.9597 187.347 44.9254 187.746C44.8476 188.702 46.0593 189.272 46.6791 188.434C46.9127 188.113 47.0404 187.652 46.8722 187.282C46.6635 186.821 46.1247 186.802 45.6793 186.902ZM61.1633 188.406C61.7769 189.677 62.2317 191.007 62.5027 192.378C59.7958 193.353 56.7775 193.465 53.8745 193.393C54.8401 192.34 55.6593 191.206 56.2044 189.836C56.6622 188.687 57.4285 186.715 56.1483 185.821C56.0611 185.762 55.9178 185.746 55.8461 185.84C55.0051 186.983 55.2045 188.4 54.8868 189.702C54.5722 190.998 53.7935 192.406 52.7064 193.353C52.4634 193.343 52.2236 193.331 51.9837 193.325C49.8344 193.231 47.6945 193.038 45.564 192.798C45.6013 192.773 45.6387 192.751 45.6761 192.733C46.0312 192.533 46.785 192.147 46.8255 191.683C46.866 191.25 46.3271 191.132 45.9814 191.244C45.4643 191.415 45.0718 191.938 44.5766 192.178C44.2744 192.322 43.9661 192.452 43.6546 192.568C41.957 192.353 40.2656 192.113 38.5742 191.876C38.4496 191.857 38.3998 191.745 38.406 191.636C38.5151 190.045 38.624 188.431 38.7767 186.821C40.4275 184.952 42.4335 183.556 45.0313 183.155C45.7696 183.039 49.6974 183.189 49.0931 181.529C48.4515 179.775 45.0158 180.89 43.8726 181.326C42.0754 182.011 40.5023 183.046 39.0602 184.242C39.5274 180.572 40.3216 176.956 41.8884 173.576C44.4644 172.153 47.246 172.109 49.984 173.492C50.5758 173.791 53.3917 175.595 53.5599 173.953C53.7063 172.57 50.8219 171.72 49.7597 171.57C48.1774 171.349 46.5856 171.67 45.022 171.891C44.0782 172.025 43.1998 172.249 42.3588 172.601C42.3806 172.561 42.3961 172.524 42.418 172.48C43.7573 169.919 45.5547 167.446 48.4982 166.471C49.8065 166.035 51.1739 165.892 52.5506 165.929C53.5599 166.484 54.541 167.085 55.435 167.808C56.3477 168.552 56.7993 169.449 57.5158 170.331C58.0266 170.96 59.5622 171.982 60.2319 170.944C60.7739 170.11 59.9235 168.686 59.5373 167.957C59.3815 167.661 59.2102 167.372 59.0389 167.085C67.1594 166.347 63.4714 173.427 63.5056 173.424C70.9471 172.804 71.5669 180.052 70.1652 184.65C70.0438 184.207 69.9254 183.768 69.8101 183.323C69.589 182.444 69.4675 181.544 69.2152 180.675C68.9411 179.728 68.2122 178.439 66.9383 178.731C65.8449 178.987 66.8448 180.298 67.175 180.778C68.3088 182.435 69.3896 184.397 69.4333 186.425C69.318 186.653 69.1934 186.874 69.0564 187.092C68.0316 188.724 66.6205 190.135 64.954 191.178C64.7765 189.459 64.518 187.749 64.0757 186.076C63.758 184.855 63.2658 182.93 61.8703 182.441C61.7146 182.388 61.5651 182.479 61.5651 182.641C61.5651 184.133 62.0884 185.512 62.8982 186.765C63.8763 188.272 64.3747 189.867 64.2812 191.571C63.8607 191.801 63.4309 192.016 62.9855 192.197L62.9045 192.225C62.6273 190.858 62.1756 189.534 61.5619 188.266C61.4467 188.036 61.0449 188.173 61.1633 188.406Z" fill="#6C8444"/>
<path d="M272.132 209.583C273.666 209.555 278.122 209.528 281.557 209.503C283.211 209.503 284.626 209.479 285.359 209.466C286.863 202.815 288.366 196.165 289.867 189.518C290.277 187.689 290.686 185.86 291.095 184.03C291.598 181.815 292.1 179.599 292.599 177.383C292.682 177.027 292.762 176.671 292.841 176.315C291.804 176.344 290.766 176.313 289.732 176.223C288.6 176.125 280.94 176.002 279.767 175.756C279.737 175.898 279.703 176.039 279.672 176.18C279.058 178.874 278.45 181.568 277.846 184.261C277.509 185.758 277.17 187.256 276.83 188.754C275.269 195.694 273.703 202.637 272.132 209.583Z" fill="#4A3F7E"/>
<path d="M277.892 184.153C282.023 183.948 286.157 183.868 290.294 183.911H291.141C290.732 185.74 290.323 187.569 289.914 189.398L289.512 189.37C286.971 189.192 284.427 189.032 281.882 188.889C280.219 188.796 278.554 188.712 276.889 188.634C277.218 187.144 277.553 185.651 277.892 184.153Z" fill="#342C55"/>
<path d="M206.239 102.818C206.239 102.87 206.255 102.922 206.267 102.977L207.086 107.176L210.542 124.914L221.839 182.919C221.985 183.67 222.388 184.347 222.979 184.834C223.57 185.32 224.311 185.586 225.077 185.586H343.783C344.195 185.586 344.602 185.495 344.974 185.32C345.347 185.144 345.676 184.888 345.937 184.571C346.199 184.253 346.387 183.881 346.488 183.482C346.589 183.083 346.6 182.666 346.521 182.262L330.752 101.308C330.628 100.672 330.286 100.099 329.787 99.6872C329.287 99.2752 328.659 99.0496 328.012 99.0489H209.502C209.185 99.0476 208.869 99.0931 208.566 99.1839C207.806 99.4094 207.153 99.9006 206.726 100.568C206.299 101.235 206.126 102.034 206.239 102.818Z" fill="#4A3F7E"/>
<path d="M210.969 101.025L224.786 172.134H342.833L329.016 101.025H210.969Z" fill="#1A1A1A"/>
<path d="M271.742 213.403L298.169 212.895V208.314L272.263 208.822L271.742 213.403Z" fill="#CBC6AC"/>
<path d="M272.299 208.901C273.174 208.88 274.052 208.852 274.93 208.837L280.174 185.602H277.563C277.348 186.691 273.018 205.041 272.299 208.901Z" fill="#2B244A"/>
<path d="M206.24 102.818L207.087 107.176L221.84 182.919C221.986 183.671 222.389 184.348 222.98 184.834C223.571 185.321 224.312 185.587 225.078 185.586H225.234L208.567 99.1843C207.807 99.4098 207.154 99.901 206.727 100.568C206.3 101.235 206.127 102.034 206.24 102.818Z" fill="#2B244A"/>
<path d="M304.427 110.628H308.672L308.374 109.097H304.129L304.427 110.628Z" fill="#1E91FE"/>
<path d="M299.9 110.628H302.303L302.006 109.097H299.603L299.9 110.628Z" fill="#90802D"/>
<path d="M291.203 110.628H298.213L297.915 109.097H290.909L291.203 110.628Z" fill="#A24747"/>
<path d="M269.49 110.628H288.162L287.864 109.097H269.195L269.49 110.628Z" fill="#4D4D4D"/>
<path d="M253.992 110.628H266.832L266.535 109.097H253.697L253.992 110.628Z" fill="#1E91FE"/>
<path d="M299.367 129.132H301.773L301.475 127.604H299.072L299.367 129.132Z" fill="#90802D"/>
<path d="M289.136 129.132H297.677L297.383 127.604H288.839L289.136 129.132Z" fill="#A24747"/>
<path d="M258.423 129.132H285.071L284.777 127.604H258.125L258.423 129.132Z" fill="#4D4D4D"/>
<path d="M303.479 129.132H307.724L307.426 127.604H303.181L303.479 129.132Z" fill="#4D4D4D"/>
<path d="M310.68 135.975H313.086L312.788 134.444H310.382L310.68 135.975Z" fill="#90802D"/>
<path d="M296.154 135.975H308.991L308.693 134.444H295.856L296.154 135.975Z" fill="#A24747"/>
<path d="M280.578 135.975H293.109L292.811 134.444H280.28L280.578 135.975Z" fill="#4D4D4D"/>
<path d="M259.681 135.975H278.042L277.748 134.444H259.383L259.681 135.975Z" fill="#4D4D4D"/>
<path d="M314.841 135.975H319.085L318.788 134.444H314.543L314.841 135.975Z" fill="#1E91FE"/>
<path d="M323.65 154.276H326.056L325.758 152.745H323.352L323.65 154.276Z" fill="#90802D"/>
<path d="M299.609 154.276H321.961L321.663 152.745H299.311L299.609 154.276Z" fill="#A24747"/>
<path d="M285.568 154.276H298.099L297.801 152.745H285.271L285.568 154.276Z" fill="#1E91FE"/>
<path d="M274.453 154.276H283.914L283.617 152.745H274.155L274.453 154.276Z" fill="#4D4D4D"/>
<path d="M262.613 154.276H272.688L272.391 152.745H262.315L262.613 154.276Z" fill="#4D4D4D"/>
<path d="M328.074 154.276H332.319L332.021 152.745H327.776L328.074 154.276Z" fill="#4D4D4D"/>
<path d="M318.978 160.963H321.381L321.086 159.432H318.68L318.978 160.963Z" fill="#90802D"/>
<path d="M308.749 160.963H317.291L316.993 159.432H308.452L308.749 160.963Z" fill="#A24747"/>
<path d="M284.581 160.963H306.933L306.635 159.432H284.283L284.581 160.963Z" fill="#4D4D4D"/>
<path d="M276.841 160.963H282.927L282.63 159.432H276.544L276.841 160.963Z" fill="#1E91FE"/>
<path d="M263.772 160.963H275.075L274.777 159.432H263.474L263.772 160.963Z" fill="#4D4D4D"/>
<path d="M323.415 160.963H327.663L327.365 159.432H323.121L323.415 160.963Z" fill="#4D4D4D"/>
<path d="M307.21 116.935H309.616L309.319 115.404H306.916L307.21 116.935Z" fill="#90802D"/>
<path d="M283.172 116.935H305.524L305.229 115.404H282.874L283.172 116.935Z" fill="#A24747"/>
<path d="M256.088 116.935H279.974L279.68 115.404H255.79L256.088 116.935Z" fill="#4D4D4D"/>
<path d="M311.465 116.935H315.709L315.411 115.404H311.167L311.465 116.935Z" fill="#4D4D4D"/>
<path d="M306.775 142.439H309.178L308.884 140.908H306.477L306.775 142.439Z" fill="#90802D"/>
<path d="M299.616 142.439H305.088L304.79 140.908H299.318L299.616 142.439Z" fill="#A24747"/>
<path d="M260.562 142.439H279.538L279.24 140.908H260.265L260.562 142.439Z" fill="#4D4D4D"/>
<path d="M281.407 142.439H297.317L297.019 140.908H281.112L281.407 142.439Z" fill="#4D4D4D"/>
<path d="M256.959 123.046H261.203L260.905 121.514H256.661L256.959 123.046Z" fill="#1E91FE"/>
<path d="M311.021 142.328H315.268L314.971 140.797H310.726L311.021 142.328Z" fill="#1E91FE"/>
<path d="M261.501 148.089H265.745L265.451 146.558H261.203L261.501 148.089Z" fill="#1E91FE"/>
<path d="M249.395 109.097L249.693 110.628H247.29L246.992 109.097H249.395Z" fill="#90802D"/>
<path d="M250.563 116.819H248.157L247.86 115.288H250.266L250.563 116.819Z" fill="#90802D"/>
<path d="M251.477 122.917H249.074L248.776 121.385H251.179L251.477 122.917Z" fill="#90802D"/>
<path d="M252.347 129.107H249.944L249.646 127.576H252.053L252.347 129.107Z" fill="#90802D"/>
<path d="M253.697 135.797H251.294L250.996 134.269H253.403L253.697 135.797Z" fill="#90802D"/>
<path d="M254.568 141.987H252.161L251.867 140.456H254.27L254.568 141.987Z" fill="#90802D"/>
<path d="M255.79 148.089H253.387L253.09 146.558H255.493L255.79 148.089Z" fill="#90802D"/>
<path d="M256.661 154.276H254.255L253.957 152.745H256.363L256.661 154.276Z" fill="#90802D"/>
<path d="M258.013 160.963H255.607L255.309 159.432H257.715L258.013 160.963Z" fill="#90802D"/>
<path d="M230.995 106.577L231.29 108.109H228.886L228.589 106.577H230.995Z" fill="#90802D"/>
<path d="M232.162 114.296H229.756L229.462 112.764H231.865L232.162 114.296Z" fill="#90802D"/>
<path d="M228.897 123.095H226.491L226.193 121.566H228.599L228.897 123.095Z" fill="#90802D"/>
<path d="M229.765 129.285H227.362L227.064 127.753H229.467L229.765 129.285Z" fill="#90802D"/>
<path d="M231.115 135.979H228.712L228.414 134.447H230.817L231.115 135.979Z" fill="#90802D"/>
<path d="M231.985 142.165H229.582L229.284 140.637H231.69L231.985 142.165Z" fill="#90802D"/>
<path d="M234.289 151.029H231.883L231.588 149.497H233.991L234.289 151.029Z" fill="#90802D"/>
<path d="M235.157 157.219H232.754L232.456 155.688H234.859L235.157 157.219Z" fill="#90802D"/>
<path d="M236.507 163.904H234.104L233.806 162.372H236.209L236.507 163.904Z" fill="#90802D"/>
<path d="M236.564 101.025C237.587 105.881 238.59 110.741 239.574 115.606C243.386 134.399 246.926 153.242 250.193 172.134H250.5C249.628 167.085 248.736 162.04 247.824 157.001C244.442 138.292 240.792 119.634 236.874 101.025H236.564Z" fill="#CCB6B6"/>
<path d="M148.917 210.819C149.92 210.794 150.926 210.763 151.931 210.745C155.8 210.678 159.669 210.805 163.389 212.082C163.524 212.126 163.652 212.187 163.773 212.261C164.633 207.637 165.496 203.013 166.361 198.387C166.769 196.213 167.175 194.039 167.578 191.863C168.629 186.236 169.684 180.609 170.743 174.982C169.555 175.017 168.365 174.981 167.181 174.876C165.876 174.764 157.091 174.623 155.74 174.334C155.709 174.5 155.68 174.662 155.649 174.827L152.452 191.947C152.346 192.506 152.244 193.066 152.139 193.621L151.435 197.427C150.58 201.893 149.74 206.357 148.917 210.819Z" fill="#4A3F7E"/>
<path d="M156.235 185.477C160.366 185.272 164.064 185.007 168.201 185.05H169.048C168.639 186.879 167.821 190.537 167.821 190.537L154.968 191.503C154.968 191.503 155.895 186.974 156.235 185.477Z" fill="#342C55"/>
<path d="M99.7495 68.2362L116.852 158.484L122.054 185.613C122.207 186.412 122.633 187.133 123.258 187.653C123.883 188.173 124.67 188.46 125.483 188.466H125.975L205.429 187.762L182.133 65.9502C182.034 65.4139 181.75 64.9292 181.332 64.5794C180.913 64.2296 180.386 64.0365 179.84 64.0334H103.171C102.927 64.0333 102.682 64.0604 102.443 64.1143C101.544 64.312 100.758 64.8545 100.255 65.6251C99.751 66.3958 99.5697 67.3332 99.7495 68.2362Z" fill="#4A3F7E"/>
<path d="M129.018 185.223L202.534 184.512L180.176 66.4036H106.665L129.018 185.223Z" fill="#FFFDF4"/>
<path d="M141.963 77.2466H115.153L119.313 99.9541H146.123L141.963 77.2466Z" fill="#FFC961"/>
<path d="M185.831 120.447H159.831L170.831 177.894H196.831L185.831 120.447Z" fill="#ED5500"/>
<path fill-rule="evenodd" clip-rule="evenodd" d="M146.116 77.2466H171.613V78.0735H146.116V77.2466ZM168.171 83.9283H173.643V84.7552H168.171V83.9283ZM153.914 83.9283H166.278V84.7552H153.914V83.9283ZM156.766 97.2916H168.893V98.1185H156.766V97.2916ZM151.116 97.2916H155.05V98.1185H151.116V97.2916ZM150.116 90.6099H175.613V91.4369H150.116V90.6099ZM148.116 83.9283H152.316V84.7552H148.146V83.9283H148.116Z" fill="#6D9AFF"/>
<path fill-rule="evenodd" clip-rule="evenodd" d="M124.153 117.25H150.559V118.076H124.153V117.25ZM146.903 123.926H152.559V124.753H146.903V123.926ZM132.176 123.926H144.993V124.753H132.176V123.926ZM134.992 137.28H147.552V138.106H134.992V137.28ZM129.153 137.28H133.23V138.106H129.153V137.28ZM127.153 130.603H153.559V131.43H127.153V130.603ZM126.153 123.926H130.487V124.753H126.153V123.926Z" fill="#6D9AFF"/>
<path fill-rule="evenodd" clip-rule="evenodd" d="M132.153 151.25H158.559V152.076H132.153V151.25ZM154.903 157.927H160.559V158.753H154.903V157.927ZM140.176 157.927H152.993V158.753H140.176V157.927ZM142.992 171.28H155.552V172.107H142.992V171.28ZM137.153 171.28H141.23V172.107H137.153V171.28ZM135.153 164.603H161.559V165.43H135.153V164.603ZM134.153 157.927H138.487V158.753H134.153V157.927Z" fill="#6D9AFF"/>
<path d="M99.7533 68.2363L122.061 185.614C122.04 187.425 122.796 188.923 125.49 188.469H125.997L102.468 64.1145C101.565 64.3075 100.774 64.8479 100.266 65.6191C99.7584 66.3903 99.5741 67.3304 99.7533 68.2363Z" fill="#342C55"/>
<path d="M148.549 213.495L163.507 213.312L177.859 213.291L178.601 209.31L164.249 209.335L149.147 209.521L148.549 213.495Z" fill="#342C55"/>
<path d="M148.919 210.819C149.921 210.794 150.927 210.762 151.933 210.745L156.192 188.092L153.182 188.145C152.946 189.415 151.655 196.16 151.423 197.43C150.577 201.894 149.742 206.357 148.919 210.819Z" fill="#342C55"/>
<path d="M42.1555 214.992L42.2646 218.161C42.3034 219.364 42.344 220.674 42.3851 222.081C42.789 235.358 42.0165 256.913 42.3851 268.122L53.8365 268.122C53.479 256.837 54.3376 234.18 53.983 223.145C53.9483 222.202 53.9234 221.323 53.8944 220.565C53.8739 220.027 53.857 219.487 53.8365 218.949L53.7153 215.612C51.5091 215.272 44.3692 215.409 42.1555 214.992Z" fill="#E0DFDC"/>
<path d="M115.023 214.992L115.132 218.161C115.171 219.364 115.211 220.674 115.252 222.081C115.656 235.358 114.884 256.913 115.252 268.122L126.704 268.122C126.346 256.837 127.205 234.18 126.85 223.145C126.815 222.202 126.791 221.323 126.762 220.565C126.741 220.027 126.724 219.487 126.704 218.949L126.583 215.612C124.376 215.272 117.236 215.409 115.023 214.992Z" fill="#E0DFDC"/>
<path d="M282.258 214.992L282.368 218.161C282.406 219.364 282.447 220.674 282.488 222.081C282.892 235.358 282.119 257.389 282.488 268.598L294.872 268.598C294.515 257.313 295.227 234.18 294.872 223.145C294.837 222.202 294.813 221.323 294.784 220.565C294.763 220.027 294.746 219.487 294.726 218.949L294.604 215.612C292.398 215.272 284.472 215.409 282.258 214.992Z" fill="#EDEBE2"/>
<path d="M378.378 212.129C378.713 214.588 381.869 235.616 382.461 238.041H51.694C51.161 235.585 51.694 214.061 51.694 214.061L378.378 212.129Z" fill="#EDEBE2"/>
<path d="M131.916 212.937C132.198 215.438 131.446 235.575 131.944 238.041H32.6991C32.251 235.544 32.6991 213.654 32.6991 213.654L131.916 212.937Z" fill="#E0DFDC"/>
<path d="M247.243 205.126C248.469 204.43 259.194 205.357 259.295 205.381C262.386 206.154 264.311 209.131 264.973 212.517C264.981 212.541 264.983 212.568 264.98 212.593C264.977 212.619 264.968 212.643 264.955 212.665C264.942 212.686 264.924 212.704 264.903 212.717C264.882 212.729 264.859 212.736 264.836 212.738C257.391 212.59 249.818 213.115 243.224 212.868C243.19 212.869 243.157 212.858 243.13 212.836C243.102 212.815 243.081 212.785 243.07 212.751C242.304 209.328 244.763 206.531 247.243 205.126Z" fill="#401D1D"/>
<path d="M303.851 260.542C303.989 265.288 304.885 271.77 305.606 276.068L311.133 276.129H311.158C312.47 276.102 313.765 276.129 315.049 276.174H315.074L342.528 276.434C341.795 273.357 340.244 268.57 340.811 266.067C341.2 266.067 341.532 266.067 341.795 266.067C343.111 266.067 345.241 265.842 347.832 265.503C352.037 264.949 352.678 264.06 357.945 263.11C361.498 262.481 366.895 265.216 369.85 264.631C371.764 264.252 373.462 263.903 374.825 263.606C375.693 263.414 376.423 263.264 376.987 263.11C377.661 262.942 378.34 262.799 379.024 262.672C382.445 262.029 385.989 261.783 389.419 261.181C390.359 261.017 391.299 260.84 392.239 260.583C395.043 259.869 397.722 258.754 400.144 256.822C400.457 256.556 400.799 256.275 401.119 255.978C404.164 253.143 403.84 245.977 404.178 241.652C404.329 239.058 404.341 236.456 404.216 233.86C404.141 231.145 404.019 228.434 403.903 225.723H403.928C403.969 225.735 404.014 225.729 404.051 225.706C404.088 225.682 404.115 225.643 404.127 225.598C404.138 225.553 404.132 225.504 404.111 225.464C404.089 225.423 404.054 225.393 404.012 225.381C400.566 224.276 397.108 223.211 393.638 222.188L391.213 221.477C385.338 219.778 379.437 218.194 373.511 216.724C371.213 216.157 368.921 215.607 366.634 215.076C365.424 214.796 363.222 213.917 362.282 215.305C361.818 215.989 361.937 216.97 361.953 217.767C361.976 218.964 362 220.16 362.025 221.357C362.047 222.55 362.357 224.338 361.84 225.46C361.36 226.485 360.157 226.827 359.23 227.169C350.639 230.383 316.334 239.31 309.789 244.808C306.778 247.348 303.528 249.635 303.851 260.542Z" fill="#22211D"/>
<path d="M242.844 207.625C243.737 208.09 244.839 206.858 246.102 206.233C247.084 205.748 248.649 206.011 251.126 205.626C251.096 206.032 251.089 206.439 251.104 206.846C251.151 208.094 252.401 213.421 253.942 214.71C254.585 215.247 254.973 214.368 255.026 213.684C255.543 215.004 256.211 216.078 257.007 215.886C257.065 216.001 257.135 216.108 257.217 216.204C257.295 216.327 257.405 216.421 257.532 216.475C257.66 216.53 257.799 216.542 257.933 216.511C258.066 216.48 258.189 216.406 258.284 216.299C258.38 216.192 258.444 216.057 258.47 215.91C258.561 215.393 258.605 214.867 258.601 214.341C258.658 213.561 258.711 212.778 258.767 211.999C258.824 211.219 259.404 209.299 259.755 209.032C261.717 208.413 263.766 212.958 266.833 212.684C267.678 212.609 269.424 212.648 269.424 212.648C269.424 212.648 272.479 212.409 273.842 212.501C275.045 212.577 276.355 212.382 278.031 212.501C278.125 212.501 278.946 212.098 278.934 211.999C278.708 210.332 278.549 202.992 277.959 201.435C277.98 201.415 277.994 201.389 278.001 201.36C278.008 201.331 278.007 201.3 277.998 201.272C277.989 201.243 277.972 201.219 277.95 201.201C277.928 201.183 277.902 201.173 277.874 201.171H277.827C277.802 201.163 277.775 201.163 277.749 201.171L277.141 201.154C276.289 201.131 275.439 201.099 274.591 201.058C273.187 200.995 271.783 200.906 270.38 200.792C269.202 200.696 268.014 200.515 266.833 200.511C265.762 200.553 258.918 197.833 257.933 198.293C253.408 200.146 253.05 200.546 249.825 201.435C248.101 201.91 246.323 202.838 245.296 203.261C244.695 203.509 244.204 203.587 243.622 204.03C243.288 204.284 243.122 204.551 242.844 204.789C242.635 204.968 242.54 205.101 242.381 205.333C242.252 205.522 242.127 205.641 242.09 205.845C241.937 206.658 242.268 207.327 242.844 207.625Z" fill="#E5936F"/>
<path d="M345.911 143.411C349.453 141.135 353.249 139.367 357.206 138.149C353.352 131.311 349.422 124.524 345.416 117.786C341.731 119.612 337.937 121.417 334.713 124.091C338.512 130.484 342.245 136.924 345.911 143.411Z" fill="#E5936F"/>
<path d="M343.218 124.229C341.71 127.495 337.213 129.771 337.688 129.518C338.518 130.773 339.17 131.714 340.036 133.149C340.908 131.43 341.938 129.242 343.218 124.229Z" fill="#DA815A"/>
<path d="M320.203 114.029C320.623 112.71 323.759 107.561 324.408 106.135C324.427 106.1 324.456 106.073 324.492 106.06C324.527 106.046 324.565 106.047 324.6 106.062C324.635 106.077 324.664 106.105 324.681 106.141C324.699 106.176 324.704 106.218 324.696 106.258C324.717 106.265 324.736 106.277 324.752 106.292C324.77 106.263 324.795 106.24 324.825 106.227C324.855 106.214 324.888 106.212 324.919 106.221C324.951 106.229 324.978 106.249 324.999 106.276C325.02 106.302 325.032 106.336 325.034 106.371C325.285 110.402 324.621 114.381 323.932 118.337C323.927 118.363 323.917 118.387 323.902 118.408C323.887 118.428 323.869 118.445 323.847 118.457C323.826 118.469 323.803 118.475 323.779 118.476C323.755 118.476 323.731 118.471 323.709 118.46C322.002 117.838 319.41 116.511 320.203 114.029Z" fill="#E5936F"/>
<path d="M321.183 114.334C321.779 114.334 322.352 113.797 322.806 112.805C323.725 110.521 323.91 107.964 323.33 105.55C323.016 104.442 322.49 103.803 321.863 103.752C320.638 103.653 319.551 105.841 319.332 108.856C319.227 110.092 319.333 111.338 319.645 112.532C319.958 113.636 320.485 114.275 321.111 114.33L321.183 114.334ZM321.779 104.418H321.813C322.158 104.449 322.502 104.942 322.734 105.742C323.261 107.986 323.089 110.358 322.245 112.484C321.904 113.236 321.497 113.667 321.149 113.636C320.801 113.605 320.46 113.11 320.228 112.313C319.945 111.201 319.853 110.042 319.958 108.894C320.149 106.237 321.064 104.432 321.779 104.432V104.418Z" fill="#3A3029"/>
<path d="M323.242 122.831C323.214 122.178 323.174 121.176 323.158 120.387C323.158 120.198 323.158 120.021 323.158 119.863C323.158 117.285 323.308 114.69 323.509 112.14C323.672 109.993 323.857 99.0964 324.01 97.9442C324.013 97.9073 324.029 97.8732 324.055 97.849C324.081 97.8248 324.114 97.8123 324.148 97.8142C324.155 97.7847 324.171 97.7588 324.194 97.7418C324.218 97.7247 324.246 97.7176 324.273 97.7219C330.132 97.9407 336.928 100.457 341.935 103.804C343.193 104.635 344.397 105.559 345.538 106.57C346.563 107.483 347.521 108.533 347.913 109.952C348.361 111.565 348.383 113.446 348.349 115.121C348.343 116.604 348.095 118.075 347.619 119.463C347.055 121.003 346.07 122.316 344.799 123.224C343.599 124.106 341.039 126.719 341.039 126.643C339.112 128.777 337.072 130.917 334.516 132.09C332.128 133.177 328.841 133.495 326.601 131.909C324.148 130.168 323.593 127.313 323.346 124.291C323.299 123.806 323.271 123.32 323.242 122.831Z" fill="#E5936F"/>
<path d="M324.531 109.996C324.531 111.428 325.085 112.584 325.75 112.58C326.414 112.577 326.943 111.411 326.934 109.979C326.925 108.546 326.379 107.39 325.718 107.394C325.057 107.397 324.525 108.563 324.531 109.996Z" fill="#401D1D"/>
<path d="M323.831 102.06C325.241 102.128 327.032 102.565 327.751 102.986C328.026 103.146 328.378 103.613 328.188 103.883C327.633 104.671 326.599 104.133 325.773 104.092C325.231 104.092 324.755 104.126 324.213 104.136C324.05 104.148 323.887 104.133 323.728 104.092C323.769 102.68 323.675 103.277 323.831 102.06Z" fill="#733220"/>
<path d="M323.157 120.379C324.244 121.173 325.707 121.008 327.048 120.807C327.935 120.677 327.988 121.453 327.321 121.921C326.346 122.605 324.698 123.34 323.514 122.947C323.419 122.915 323.328 122.871 323.241 122.817C323.213 122.171 323.173 121.169 323.157 120.379Z" fill="white"/>
<path d="M321.113 91.9325C321.739 91.6487 322.645 91.659 322.943 90.8384C323.159 90.2401 323.175 89.4708 323.278 88.8417C323.453 87.816 323.576 86.6604 324.168 85.7646C325.512 83.7714 328.598 84.4586 330.384 85.4227C330.553 83.662 332.107 82.5747 333.696 82.5371C335.67 82.4892 337.672 83.6278 339.11 85.009C339.915 85.7851 340.479 86.7596 341.218 87.5904C342.19 88.6776 343.412 88.8315 344.743 88.7255C345.74 88.6434 346.752 88.4656 347.751 88.64C348.695 88.8275 349.574 89.2934 350.292 89.9871C351.122 90.7689 351.789 91.7366 352.245 92.8246C352.702 93.9125 352.939 95.095 352.94 96.2918C354.694 96.9756 356.659 98.0389 356.862 100.261C356.882 100.79 356.801 101.317 356.624 101.81C356.49 102.231 356.457 102.683 356.528 103.123C356.599 103.562 356.773 103.974 357.032 104.32C357.718 105.345 358.749 106.029 359.225 107.229C359.537 108.069 359.599 108.995 359.399 109.875C359.2 110.756 358.751 111.544 358.116 112.129C356.424 113.606 354.174 113.308 352.181 112.778C353.297 113.872 354.343 115.978 352.701 116.802C352.222 117.042 351.683 117.076 351.188 117.264C350.457 117.559 349.856 118.147 349.509 118.908C348.729 120.498 348.863 120.977 349.152 122.669C349.238 122.84 349.275 123.035 349.258 123.229C349.241 123.423 349.171 123.607 349.058 123.757C348.516 124.519 346.783 124.28 345.975 124.211C345.401 124.164 344.847 123.989 344.283 123.869C343.496 123.712 342.788 123.825 342.005 123.791C341.034 123.753 341.065 122.7 341.09 121.866C341.121 120.478 340.777 119.845 341.09 118.512C341.45 117.001 342.882 115.349 342.45 113.8C342.017 112.252 340.955 111.958 339.57 111.455C338.449 111.045 337.249 110.911 336.171 110.361C334.163 109.335 333.846 107.332 334.081 105.284C333.325 105.453 332.544 105.449 331.789 105.273C331.034 105.096 330.321 104.751 329.695 104.258C328.643 103.385 327.917 102.125 327.652 100.713C326.571 100.677 325.501 100.464 324.478 100.08C322.57 99.427 320.185 98.1551 319.211 96.1618C318.315 94.3327 319.515 92.6505 321.113 91.9325Z" fill="#733220"/>
<path d="M319.673 107.394L330.038 108.508C333.844 108.918 337.68 109.5 341.511 109.356C341.912 109.356 342.006 110.016 341.605 110.04C337.915 110.18 334.236 109.657 330.57 109.26L319.604 108.081C319.648 107.855 319.671 107.625 319.673 107.394Z" fill="#3A3029"/>
<path d="M337.251 111.554C338.971 109.527 342.004 109.691 342.687 112.238C343.37 114.785 341.305 117.866 339.406 119.076C338.897 119.386 338.329 119.561 337.747 119.587C337.164 119.613 336.584 119.49 336.054 119.226C334.92 118.714 334.562 117.681 334.384 116.433C334.039 114.016 334.525 112.187 337.251 111.554Z" fill="#E5936F"/>
<path d="M274.738 200.354C277.395 200.504 281.234 201.014 283.737 199.886C284.865 199.376 289.847 196.884 289.847 196.884C289.847 196.884 310.045 192.393 311.276 188.334C311.27 188.318 311.267 188.301 311.267 188.283C311.267 188.265 311.27 188.248 311.276 188.232C312.736 184.443 316.217 175.54 317.677 171.752C319.034 168.227 320.337 164.664 321.857 161.218C324.542 155.125 328.249 149.768 333.171 145.617C334.752 144.29 336.429 143.103 338.184 142.068C338.551 140.947 338.916 139.825 339.277 138.704C339.625 137.634 339.879 135.907 340.725 135.111C341.665 134.235 353.167 130.413 356.356 130.816C358.809 131.131 359.339 133.452 360.79 135.186C365.891 136.335 386.284 140.13 389.007 141.278C391.751 142.473 394.284 144.179 396.492 146.322C399.03 148.715 401.33 151.416 403.698 154.018L411.262 162.363C413.515 164.849 416.046 167.249 417.842 170.173C419.255 172.467 420.771 176.142 419.762 178.771C415.78 189.151 406.935 187.89 402.896 187.415C403.582 188.994 406.058 200.909 407.164 204.67C408.21 208.233 408.984 214.288 407.756 217.919C406.568 221.434 404.222 224.415 403.589 228.149C403.576 228.192 403.549 228.228 403.513 228.25C403.477 228.273 403.435 228.279 403.395 228.268C391.362 225.221 379.161 223.028 366.868 221.704C365.342 221.54 363.813 221.41 362.287 221.252C361.175 221.136 360.758 220.627 360.295 219.543C359.129 216.808 344.613 188.119 343.773 185.92C341.098 188.608 327.728 210.026 325.228 212.279C324.265 213.213 323.143 213.931 321.925 214.392C320.537 214.853 298.912 219.166 291.082 218.045C289.854 217.867 287.808 217.185 287.808 217.185C287.808 217.185 283.963 215.557 281.167 215.069C279.4 214.76 274.53 214.018 274.53 214.018C274.53 214.018 274.617 208.727 274.627 206.248C274.641 202.776 274.982 202.614 274.635 200.576C274.628 200.554 274.625 200.531 274.627 200.508C274.629 200.485 274.634 200.462 274.644 200.441C274.654 200.421 274.667 200.402 274.683 200.387C274.699 200.372 274.718 200.361 274.738 200.354Z" fill="#ED5500"/>
<path d="M337.117 115.866C338.615 115.737 338.452 113.962 338.822 112.789C338.976 112.256 339.282 111.79 339.696 111.459C339.859 111.333 340.009 111.627 339.856 111.757C338.349 112.943 339.417 115.993 337.117 116.202C336.917 116.226 336.92 115.884 337.117 115.866Z" fill="#9C4725"/>
<path d="M343.578 185.566C347.147 179.599 349.694 172.977 351.098 166.019C351.142 165.804 351.442 165.896 351.411 166.111C349.996 173.099 347.433 179.75 343.844 185.74C343.747 185.921 343.478 185.75 343.578 185.566Z" fill="#9C7968" stroke="#C64700"/>
<path d="M311.257 189.798C311.832 192.946 312.528 196.061 313.347 199.143C313.358 199.188 313.353 199.236 313.331 199.277C313.31 199.318 313.274 199.347 313.233 199.36C313.191 199.372 313.147 199.366 313.11 199.342C313.072 199.319 313.045 199.28 313.034 199.235C312.211 196.153 311.514 193.039 310.944 189.891C310.913 189.665 311.217 189.573 311.257 189.798Z" fill="#9C7968" stroke="#C64700"/>
<path d="M282.934 202.457C282.953 202.238 283.267 202.238 283.248 202.457C283.022 204.99 283.41 207.544 284.373 209.862C284.457 210.06 284.185 210.235 284.103 210.033C283.112 207.663 282.709 205.05 282.934 202.457Z" fill="#9C7968" stroke="#C64700"/>
<path d="M392.969 155.366C396.055 162.006 398.37 169.039 399.862 176.304C399.906 176.519 399.602 176.608 399.548 176.393C398.061 169.156 395.752 162.15 392.677 155.537C392.621 155.342 392.89 155.167 392.969 155.366Z" fill="#9C7968" stroke="#C64700"/>
<path d="M341.897 139.928C345.466 138.538 349.233 137.851 353.023 137.9C353.064 137.9 353.104 137.918 353.133 137.95C353.163 137.983 353.179 138.026 353.179 138.071C353.179 138.117 353.163 138.16 353.133 138.192C353.104 138.224 353.064 138.242 353.023 138.242C349.26 138.193 345.52 138.876 341.978 140.26C341.79 140.335 341.709 140.003 341.897 139.928Z" fill="#9C7968" stroke="#C64700"/>
<path d="M361.479 211.988C367.005 216.601 373.407 219.805 380.216 221.366C380.413 221.414 380.328 221.743 380.131 221.708C373.301 220.136 366.878 216.921 361.332 212.296C361.163 212.152 361.323 211.855 361.479 211.988Z" fill="#9C7968" stroke="#C64700"/>
<path d="M323.221 270.71C326.556 261.29 332.029 252.948 339.125 246.466C339.279 246.326 339.501 246.565 339.345 246.709C332.288 253.149 326.844 261.439 323.525 270.802C323.453 270.997 323.149 270.912 323.221 270.71Z" fill="#7D443B" stroke="#31302F"/>
<path d="M341.109 109.223C342.533 108.624 344.104 108.585 345.551 109.114C346.217 109.359 346.84 109.723 347.397 110.191C348.262 110.916 348.988 111.9 350.182 111.842C350.383 111.842 350.383 112.184 350.182 112.184C348.569 112.276 347.619 110.577 346.313 109.835C345.526 109.397 344.663 109.145 343.781 109.096C342.898 109.047 342.017 109.202 341.193 109.551C341.002 109.63 340.921 109.302 341.109 109.223Z" fill="#B35E22"/>
<path d="M327.773 97.4928C328.076 96.6622 328.527 95.9053 329.099 95.2658C329.672 94.6264 330.355 94.1171 331.109 93.7674C331.863 93.4177 332.673 93.2345 333.492 93.2284C334.311 93.2223 335.123 93.3935 335.882 93.7319C336.067 93.814 335.985 94.1422 335.8 94.0738C335.081 93.7478 334.311 93.5804 333.532 93.5812C332.754 93.5819 331.983 93.7509 331.265 94.0783C330.547 94.4057 329.895 94.885 329.347 95.4887C328.799 96.0923 328.367 96.8083 328.074 97.5954C327.999 97.7868 327.695 97.7082 327.773 97.4928Z" fill="#B35E22"/>
<path d="M256.386 206.177C256.844 205.452 257.746 205.114 258.432 204.724C258.611 204.621 258.771 204.919 258.592 205.018C257.831 205.452 256.781 205.828 256.459 206.779C256.23 207.462 256.289 208.242 256.314 208.943C256.375 210.698 256.579 212.444 256.922 214.16C256.966 214.376 256.662 214.468 256.609 214.253C256.185 212.208 255.974 210.117 255.982 208.02C255.95 207.376 256.091 206.735 256.386 206.177Z" fill="#9C4725"/>
<path d="M253.801 204.429C254.227 203.745 255.12 203.403 255.747 203.021C255.782 203.003 255.822 203.001 255.859 203.014C255.896 203.026 255.927 203.054 255.947 203.09C255.966 203.127 255.973 203.17 255.965 203.212C255.957 203.253 255.935 203.29 255.904 203.315C255.224 203.739 254.183 204.139 253.895 205C253.607 205.862 253.732 206.956 253.839 207.828C254.109 209.645 254.484 211.441 254.964 213.206C254.975 213.251 254.969 213.299 254.948 213.34C254.926 213.381 254.891 213.411 254.849 213.423C254.808 213.435 254.763 213.429 254.726 213.405C254.689 213.382 254.661 213.343 254.65 213.298C254.14 211.175 253.503 208.98 253.428 206.771C253.413 206.029 253.394 205.065 253.801 204.429Z" fill="#9C4725"/>
<path d="M344.405 99.6918C345.517 99.0941 346.765 98.865 347.995 99.0327C349.225 99.2004 350.383 99.7576 351.326 100.635C351.48 100.779 351.257 101.022 351.104 100.878C350.211 100.051 349.117 99.5261 347.954 99.3676C346.792 99.2091 345.613 99.4239 344.562 99.9858C344.374 100.082 344.214 99.7875 344.405 99.6918Z" fill="#B35E22"/>
<path d="M377.586 270.065C377.811 269.627 378.026 269.185 378.227 268.739C378.772 267.535 379.236 266.289 379.617 265.01C380.397 262.357 380.904 259.617 381.126 256.839C381.789 249.347 380.946 241.83 381.299 234.33C381.384 232.508 381.546 230.694 381.768 228.884C382.473 223.12 383.838 217.426 385.453 211.829C388.827 200.099 393.364 188.58 395.857 176.691C396.572 173.283 399.504 170.717 402.987 170.717H450.731C454.993 170.717 458.266 174.498 457.316 178.653C456.252 183.31 454.9 187.924 453.456 192.498C448.987 206.642 443.581 220.794 443.14 235.625C442.918 242.962 443.698 250.323 442.939 257.649C442.607 261.367 441.702 264.995 440.263 268.379C438.909 271.449 436.987 274.43 434.014 276.434H372.37C374.542 274.794 376.33 272.612 377.586 270.065Z" fill="#FFC961"/>
<path d="M377.585 270.065C377.811 269.627 378.026 269.185 378.227 268.739C378.771 267.535 379.236 266.289 379.616 265.01C380.397 262.357 380.903 259.617 381.126 256.839C381.789 249.347 380.946 241.83 381.298 234.33C381.383 232.508 381.545 230.694 381.767 228.884C382.473 223.12 383.838 217.426 385.453 211.829C388.826 200.099 393.364 188.58 395.857 176.691C396.571 173.283 399.504 170.717 402.986 170.717H410.237C405.338 172.09 404.844 175.298 404.289 177.783C403.444 181.561 402.639 185.472 401.641 188.746C398.626 198.673 393.661 211.111 390.794 226.423C390.614 227.384 390.441 228.496 390.261 229.71C389.524 234.904 388.942 241.873 389.238 246.059C389.827 254.358 389.521 259.952 388.071 265.053C387.649 266.542 387.133 267.996 386.527 269.406C385.467 271.835 384.26 274.183 382.912 276.434H372.383C374.551 274.792 376.333 272.61 377.585 270.065Z" fill="#EEA20E"/>
</g>
<rect x="32.75" y="252.5" width="430" height="1.5" fill="#FDF5D7"/>
<defs>
<clipPath id="clip0_4301_193787">
<rect width="430.5" height="233" fill="white" transform="translate(32.5 20)"/>
</clipPath>
</defs>
</svg>
