<?xml version="1.0" encoding="utf-8"?>
<!-- Generator: Adobe Illustrator 28.2.0, SVG Export Plug-In . SVG Version: 6.00 Build 0)  -->
<svg version="1.1" id="Layer_1" xmlns="http://www.w3.org/2000/svg" xmlns:xlink="http://www.w3.org/1999/xlink" x="0px" y="0px"
	 viewBox="0 0 495 254" style="enable-background:new 0 0 495 254;" xml:space="preserve">
<style type="text/css">
	.st0{clip-path:url(#SVGID_00000020358826561151641880000000094408686803055536_);}
	.st1{clip-path:url(#SVGID_00000163050061317643801140000012047104732219562645_);}
	.st2{fill:#605F31;}
	.st3{fill:#7F8444;}
	.st4{fill:#2E1B1A;}
	.st5{fill:#3C3463;}
	.st6{fill:#C7C1B7;}
	.st7{fill:#FFFFFF;}
	.st8{fill:#4A3F7E;}
	.st9{clip-path:url(#SVGID_00000040549765623440576840000002336686357107652780_);fill:#FDF5D7;}
	.st10{clip-path:url(#SVGID_00000026122080044222478160000005911023831368825984_);fill:#F59E73;}
	.st11{clip-path:url(#SVGID_00000111164159388545018500000000123527694252920214_);fill:#F59E73;}
	.st12{clip-path:url(#SVGID_00000011001860047099317010000017302865376078136245_);fill:#E07C54;}
	.st13{fill:#CECECE;}
	.st14{fill:#FFC961;}
	.st15{fill:#DF785E;}
	.st16{clip-path:url(#SVGID_00000089566083818772614010000004343112918993513347_);fill:#170935;}
	.st17{clip-path:url(#SVGID_00000133519297874466761500000013029121308930186419_);fill:#A64F1A;}
	.st18{clip-path:url(#SVGID_00000145029885955708970490000012507927146794796986_);fill:#0E5C58;stroke:#161120;stroke-width:0.7;}
	.st19{clip-path:url(#SVGID_00000098934713847019788180000007918639444277165710_);fill:#6D9AFF;}
	.st20{clip-path:url(#SVGID_00000005962925405073584560000014170942521618831792_);fill:#6D9AFF;}
	.st21{clip-path:url(#SVGID_00000013896148292588858170000002062712571502040762_);fill:#6D9AFF;}
	.st22{clip-path:url(#SVGID_00000020373331686970668750000000276623923879315894_);fill:#6D9AFF;stroke:#5282ED;stroke-width:0.7;}
	.st23{clip-path:url(#SVGID_00000177465362962676853250000017553783856577789327_);fill:#6D9AFF;stroke:#5282ED;stroke-width:0.7;}
	.st24{clip-path:url(#SVGID_00000021081685369384209100000004726704929576359575_);fill:#6D9AFF;stroke:#5282ED;stroke-width:0.7;}
	.st25{clip-path:url(#SVGID_00000132087509162087932490000014415985620848102319_);fill:#493714;}
	.st26{clip-path:url(#SVGID_00000161633739488122057380000012047037130142521223_);fill:#FFE1C9;}
	.st27{clip-path:url(#SVGID_00000151503402129074882960000013848505840741069229_);fill:#493714;}
	.st28{clip-path:url(#SVGID_00000034062624462602504660000017043518239905973915_);fill:#F59E73;}
	.st29{clip-path:url(#SVGID_00000081631834478353298270000013850317346609980053_);fill:#C45547;stroke:#C45547;stroke-width:0.24;}
	.st30{clip-path:url(#SVGID_00000094591023010916662470000008835307479816794544_);fill:#6D9AFF;}
	.st31{clip-path:url(#SVGID_00000170271425664299653060000018170120685394330781_);fill:#B5845E;stroke:#F6B942;stroke-width:0.7;}
	.st32{clip-path:url(#SVGID_00000182524924088286485290000014644332728172976553_);fill:#6D9AFF;stroke:#5282ED;stroke-width:0.7;}
	.st33{clip-path:url(#SVGID_00000019679110656754765960000005812290055516503994_);fill:#F59E73;}
	.st34{clip-path:url(#SVGID_00000095341124392852144450000017453855513756128648_);fill:#CECECE;}
	.st35{clip-path:url(#SVGID_00000094580371050739519080000011180091548516693408_);fill:#ED5500;}
	.st36{clip-path:url(#SVGID_00000063633069777958657510000000491309715098458033_);fill:#FFFFFF;}
	.st37{clip-path:url(#SVGID_00000150822866408251584570000012233877966125257354_);fill:#F59E73;}
	.st38{clip-path:url(#SVGID_00000129195087805522828900000010906743346871499683_);fill:#C45547;stroke:#C45547;stroke-width:0.24;}
	.st39{clip-path:url(#SVGID_00000178900439968429355890000004051551895082522779_);fill:#C45547;stroke:#C45547;stroke-width:0.24;}
	.st40{clip-path:url(#SVGID_00000100340419607826935130000002257044112834457478_);fill:#C45547;stroke:#C45547;stroke-width:0.24;}
	.st41{clip-path:url(#SVGID_00000160177254201606475260000004226679175667858072_);fill:#6D9AFF;}
	.st42{clip-path:url(#SVGID_00000019671657156249214270000002837116868256426905_);fill:#6D9AFF;stroke:#5282ED;stroke-width:0.7;}
	.st43{clip-path:url(#SVGID_00000000224198575850574650000008081330645424985472_);fill:#6D9AFF;stroke:#5282ED;stroke-width:0.7;}
	.st44{clip-path:url(#SVGID_00000160896587617720064280000002493634512803053469_);fill:#4D2323;}
	.st45{clip-path:url(#SVGID_00000121985704134537652580000017156986300054064809_);fill:#471B17;}
	.st46{clip-path:url(#SVGID_00000058557470870900689540000005928863100040566400_);fill:#4D2323;}
	.st47{clip-path:url(#SVGID_00000066503201815300613930000016485348121103863743_);fill:#F59E73;}
	.st48{clip-path:url(#SVGID_00000070115226711606317290000012015103205305117104_);fill:#C45547;}
	.st49{clip-path:url(#SVGID_00000026128249409640451850000004538986678754172323_);fill:#C45547;}
	.st50{clip-path:url(#SVGID_00000092420403976722019330000010794307916584637611_);fill:#471B17;}
	.st51{clip-path:url(#SVGID_00000083080680617583662550000008040068230042442900_);fill:#471B17;}
	.st52{clip-path:url(#SVGID_00000047763294472303176370000009697921031084306357_);fill:#4D2323;}
	.st53{clip-path:url(#SVGID_00000003104762376266210810000018411164322105680772_);fill:#471B17;}
	.st54{clip-path:url(#SVGID_00000127743290117910855850000006547274754643697295_);fill:#4D2323;}
	.st55{clip-path:url(#SVGID_00000034788490795164935150000016383244320304926131_);fill:#632424;}
	.st56{clip-path:url(#SVGID_00000042703199611970784480000002487723362064939192_);fill:#632424;}
	.st57{clip-path:url(#SVGID_00000021086373901672347970000001701693607767312574_);fill:#FFFFFF;}
	.st58{clip-path:url(#SVGID_00000159450003643974980840000013931375512184162436_);fill:#F59E73;}
	.st59{clip-path:url(#SVGID_00000033368846210300181990000002019493376291509178_);fill:#A33F32;}
	.st60{clip-path:url(#SVGID_00000128470645066780665480000015030327150810836129_);fill:#A33F32;}
	.st61{clip-path:url(#SVGID_00000101083197903937562320000001118941644110507427_);fill:#471B17;}
	.st62{clip-path:url(#SVGID_00000010311956948001858640000003835216895103140772_);fill:#C45547;stroke:#C45547;stroke-width:0.24;}
	.st63{clip-path:url(#SVGID_00000016773373731565689830000003911235516658560414_);}
	.st64{fill:#515795;}
	.st65{fill:#FF725E;}
	.st66{fill:#ED5500;}
	.st67{fill:none;stroke:#FFC961;stroke-linecap:round;stroke-linejoin:round;stroke-miterlimit:10;}
	.st68{fill:none;stroke:#FFFFFF;stroke-width:3;stroke-miterlimit:10;}
	.st69{fill:none;stroke:#FFFFFF;stroke-width:3;stroke-linecap:round;stroke-linejoin:round;stroke-miterlimit:10;}
</style>
<g>
	<g>
		<g>
			<defs>
				<rect id="SVGID_1_" width="494.5" height="254"/>
			</defs>
			<clipPath id="SVGID_00000179625199817289054920000003687004705133536403_">
				<use xlink:href="#SVGID_1_"  style="overflow:visible;"/>
			</clipPath>
			<g style="clip-path:url(#SVGID_00000179625199817289054920000003687004705133536403_);">
				<g>
					<g>
						<g>
							<defs>
								<rect id="SVGID_00000042711154621271461210000000893009823864870275_" x="32" y="21" width="430.5" height="233"/>
							</defs>
							<clipPath id="SVGID_00000160155977714570784310000017147366999417392569_">
								<use xlink:href="#SVGID_00000042711154621271461210000000893009823864870275_"  style="overflow:visible;"/>
							</clipPath>
							<g style="clip-path:url(#SVGID_00000160155977714570784310000017147366999417392569_);">
								<path class="st2" d="M79.3,366.9L79.3,366.9c-0.5-10.5-0.5-23.7-0.1-38.5c2.1,0,2.7-3.2,0.5-3.5c-0.1,0-0.3,0-0.4,0
									c0.2-7.6,0.5-15.5,0.9-23.8h0.1c2.2-0.3,2.1-3.5,0-3.6c0.3-6.8,0.7-13.8,1.1-20.9h0.2c2.2,0.1,2-3.2,0-3.5
									c0.4-7.7,0.9-15.4,1.4-23.1c1.7-0.3,2.1-3,0.2-3.4c0.4-6.5,0.9-13,1.4-19.4c2.1,0,2-3,0.3-3.5c0.6-8.1,1.2-16.1,1.8-23.7
									c2.1,0,2-2.9,0.3-3.5c0.6-7.7,1.2-15.1,1.8-22c0.1,0,0.1,0,0.2,0c2.3,0.4,3-3.1,0.7-3.5c-0.2,0-0.4-0.1-0.6-0.1
									c0.7-8.3,1.4-15.9,2-22.4c2.1,0,2.7-3.3,0.5-3.5h-0.2c0.9-9.9,1.6-16.9,1.8-19.9c0.6-0.3,1-1.1,0.9-1.7
									c-0.1-1.1-0.9-1.6-1.9-1.7c-1.1-0.1-2.2-0.1-3.3,0l0,0c-1.1,0-2.2,0.1-3.3,0.3c-1.8,0.2-2,2.6-0.9,3.4
									c-0.3,3.5-1,10.1-1.8,19.2c-1.3,0.6-1.6,2.6-0.3,3.2c-0.6,6.6-1.3,14.2-2,22.6c-1.3,0.4-1.3,2.3-0.3,3.1
									c-0.6,7.1-1.2,14.6-1.9,22.6c-1.5,0.4-1.9,2.9-0.3,3.4c-0.6,7.9-1.3,16-1.9,24.4c-1.6,0.3-1.6,2.6-0.2,3.3
									c-0.5,6.2-0.9,12.5-1.3,18.9c-1.5,0.3-1.5,2.6-0.2,3.3c-0.5,7.7-1,15.4-1.4,23.1c-1.6,0.4-1.9,2.9-0.2,3.4
									c-0.4,7.5-0.8,14.9-1.2,22.2c-1.7,0.2-1.6,2.7-0.2,3.4c-0.4,7.8-0.6,15.4-0.9,22.7c-1.8,0.3-2.2,3.2-0.1,3.5l0,0
									c-0.4,15.3-0.4,29,0,39.8L79.3,366.9z"/>
								<path class="st3" d="M73.2,367.2l6.2-0.3c-0.5-10.5-0.5-23.7-0.1-38.4c2.1,0,2.7-3.2,0.5-3.5c-0.1,0-0.3,0-0.4,0
									c0.2-7.6,0.5-15.5,0.9-23.8h0.1c2.2-0.3,2.1-3.5,0-3.6c0.3-6.8,0.7-13.8,1.1-20.9h0.2c2.2,0.1,2-3.2,0-3.5
									c0.4-7.7,0.9-15.4,1.4-23.1c1.7-0.3,2.1-3,0.2-3.4c0.4-6.5,0.9-13,1.4-19.4c2.1,0,2-3,0.3-3.5c0.6-8.1,1.2-16.1,1.8-23.7
									c2.1,0,2-2.9,0.3-3.5c0.6-7.7,1.2-15.1,1.8-22c0.1,0,0.1,0,0.2,0c2.3,0.4,3-3.1,0.7-3.5c-0.2,0-0.4-0.1-0.6-0.1
									c0.7-8.3,1.4-15.9,2-22.4c2.1,0,2.7-3.3,0.5-3.5h-0.2c0.9-9.9,1.6-16.9,1.8-19.9c0.6-0.3,1-1.1,0.9-1.7
									c-0.1-1.1-0.9-1.6-1.9-1.7c-1.1-0.1-2.2-0.1-3.3,0l0,0c-0.4,0-0.7,0.1-1.1,0.1c-1.8,0.2-2.1,2.6-0.9,3.4
									c-0.3,3.5-1,10.1-1.8,19.2c-1.3,0.6-1.6,2.6-0.3,3.2c-0.6,6.6-1.3,14.2-2,22.6c-1.3,0.4-1.3,2.3-0.3,3.1
									c-0.6,7.1-1.2,14.6-1.9,22.6c-1.6,0.4-1.9,2.9-0.3,3.4c-0.6,7.9-1.3,16-1.9,24.4c-1.6,0.3-1.6,2.6-0.2,3.3
									c-0.4,6.2-0.9,12.5-1.3,18.9c-1.5,0.3-1.5,2.6-0.2,3.3c-0.5,7.7-1,15.4-1.5,23.1c-1.6,0.4-1.9,2.9-0.2,3.4
									c-0.4,7.5-0.8,14.9-1.2,22.2c-1.7,0.2-1.6,2.7-0.2,3.4c-0.4,7.8-0.6,15.4-0.9,22.7c-1.8,0.3-2.2,3.2-0.1,3.5l0,0
									C72.7,342.6,72.7,356.3,73.2,367.2z"/>
								<path class="st2" d="M60.1,345.1c0.3,14.6,0.4,24.2,0.4,24.5l8.4-0.1c0,0,0-0.1,0-0.2c0-1.9-0.2-11-0.4-24.3
									c0.2,0,0.3,0,0.4,0c2.3-0.4,2-3.9-0.2-3.6c-0.1,0-0.2,0-0.3,0c-0.1-6.4-0.3-13.6-0.5-21.3c1.7-0.7,1.5-3.3-0.1-3.5
									c-0.2-6.7-0.3-13.7-0.5-20.9c0.2,0,0.5-0.1,0.7-0.1c2.3-0.4,2-3.9-0.2-3.6c-0.2,0-0.4,0.1-0.5,0.1
									c-0.2-6.1-0.4-12.2-0.6-18.4c0.2,0,0.4-0.1,0.6-0.2c2.1-0.6,1.2-3.6-0.8-3.5c-0.3-7.6-0.5-15.3-0.8-22.7c0.1,0,0.1,0,0.2,0
									c1.9-0.5,1.3-3.1-0.3-3.4c-0.3-8-0.7-15.7-1.1-22.9c1.7-0.7,1.2-3-0.2-3.4c-0.7-12.2-1.5-22.8-2.4-30.4
									c1.1-0.7,1-2.2,0.2-2.9c-0.4-0.4-1-0.6-1.7-0.3c-2,0.8-4.1,1.3-6.3,1.6c-2.1,0.3-2.1,3.2-0.4,3.6c0.8,7.5,1.6,17.9,2.2,29.9
									c-1.4,0.6-1.3,2.8,0.2,3.3c0.4,7.1,0.7,14.6,1,22.5H57c-2.3,0-2.1,3.5,0.2,3.6c0.3,7.5,0.6,15.2,0.8,23
									c-0.9,0.7-0.8,2.2,0.1,2.9c0.2,6.4,0.4,12.8,0.6,19.1c-1.8,0.6-1.6,3.4,0.1,3.5c0.2,7.1,0.4,14,0.5,20.6
									c-2.1,0.2-1.9,3.4,0.1,3.5c0.2,7.4,0.3,14.4,0.4,20.5C58.4,342,58,344.8,60.1,345.1C60.1,345,60.1,345.1,60.1,345.1z"/>
								<path class="st3" d="M63.2,344.8c0.3,14.6,0.4,24.2,0.4,24.5l5.2-0.1c0-1.9-0.2-11-0.4-24.3c0.2,0,0.3,0,0.4,0
									c2.3-0.4,2-3.9-0.2-3.6c-0.1,0-0.2,0-0.3,0c-0.1-6.4-0.3-13.6-0.5-21.3c1.7-0.7,1.5-3.3-0.1-3.5c-0.2-6.7-0.3-13.7-0.5-20.9
									c0.2,0,0.5-0.1,0.7-0.1c2.3-0.4,2-3.9-0.2-3.6c-0.2,0-0.4,0.1-0.5,0.1c-0.2-6.1-0.4-12.2-0.6-18.4c0.2,0,0.4-0.1,0.6-0.2
									c2.1-0.6,1.2-3.6-0.8-3.5c-0.3-7.6-0.5-15.3-0.8-22.7c0.1,0,0.1,0,0.2,0c1.9-0.5,1.3-3.1-0.3-3.4c-0.3-8-0.7-15.7-1.1-22.9
									c1.7-0.7,1.2-3-0.2-3.4c-0.7-12.2-1.5-22.8-2.4-30.4c1.1-0.7,1-2.2,0.2-2.9c-1.6,0.5-3.2,0.9-4.9,1.1
									c-2.1,0.3-2.1,3.2-0.4,3.6c0.8,7.5,1.6,17.9,2.3,29.9c-1.4,0.6-1.3,2.8,0.2,3.3c0.4,7.1,0.7,14.6,1.1,22.5h-0.1
									c-2.3,0-2.1,3.5,0.2,3.6c0.3,7.5,0.6,15.2,0.8,23c-0.9,0.7-0.8,2.2,0.1,2.9c0.2,6.4,0.4,12.8,0.6,19.1
									c-1.8,0.6-1.6,3.4,0.1,3.5c0.2,7.1,0.4,14,0.5,20.6c-2.1,0.2-1.9,3.4,0.1,3.5c0.2,7.4,0.3,14.4,0.4,20.5
									C61.5,341.8,61.2,344.6,63.2,344.8L63.2,344.8z"/>
								<path class="st2" d="M81,366.5l8.3,0.4c0-0.1,0-0.2,0-0.3c0.4-9.1,1.1-17.8,1.9-26.2c2.2,0.3,2.9-3.1,0.6-3.5
									c-0.1,0-0.2,0-0.3-0.1c0.7-6.8,1.5-13.3,2.4-19.5c0.1,0,0.2,0.1,0.4,0.1c2.3,0.5,3-3,0.7-3.5c-0.2,0-0.4-0.1-0.5-0.1
									c0.9-6.2,2-12.2,3.1-17.8l0.7,0.1c2.3,0.3,3-3.2,0.7-3.5c-0.2,0-0.5,0-0.7-0.1c1.3-6.7,2.8-12.9,4.2-18.7
									c0.1,0,0.2,0.1,0.3,0.1c2.2,0.7,2.9-2.8,0.7-3.5h-0.1c1.8-7.1,3.7-13.5,5.4-19.1c2,0.6,3.5-2.4,1.4-3.3
									c-0.1-0.1-0.2-0.1-0.3-0.1c4.2-12.8,7.7-21.1,9.2-24.3c0.7,0,1.4-0.2,1.7-1c0.4-0.8,0.1-2.1-0.8-2.4c-1.8-0.7-3.6-1.3-5.4-2
									c-0.2-0.1-0.4-0.2-0.7-0.2c-0.9-0.3-1.9-0.1-2.4,0.8c-0.2,0.4-0.2,0.8-0.1,1.3c-1.6,3.5-5.3,12-9.5,25
									c-1.2,0.4-1.8,2-0.9,2.9c-1.9,5.8-3.8,12.4-5.7,19.8c-1.5,0-2,2.2-0.8,3.2c-1.6,6.4-3.2,13.3-4.7,20.8
									c-1.1,0.5-1.5,2.2-0.6,3c-1.1,5.5-2.1,11.3-3,17.4c-1.7,0.2-2.1,2.7-0.5,3.4c-0.9,6.5-1.8,13.2-2.5,20.2
									c-1.2,0.5-1.5,2.5-0.3,3.2C82.1,347.7,81.5,356.9,81,366.5z"/>
								<path class="st3" d="M83.8,366.3l5.5,0.3c0.4-9.1,1.1-17.8,1.9-26.2c2.2,0.3,2.9-3.1,0.6-3.5c-0.1,0-0.2,0-0.3-0.1
									c0.7-6.8,1.5-13.3,2.4-19.5c0.1,0,0.2,0.1,0.4,0.1c2.3,0.5,3-3,0.7-3.5c-0.2,0-0.4-0.1-0.5-0.1c0.9-6.2,2-12.2,3.1-17.8
									l0.7,0.1c2.3,0.3,3-3.2,0.7-3.5c-0.2,0-0.5,0-0.7-0.1c1.3-6.7,2.8-12.9,4.2-18.7c0.1,0,0.2,0.1,0.3,0.1
									c2.2,0.7,2.9-2.8,0.7-3.5h-0.1c1.8-7.1,3.7-13.5,5.4-19.1c2,0.6,3.5-2.4,1.4-3.3c-0.1-0.1-0.2-0.1-0.3-0.1
									c4.2-12.8,7.7-21.1,9.2-24.3c0.7,0.1,1.4-0.2,1.7-1c0.4-0.8,0.1-2.1-0.8-2.4c-1.8-0.7-3.6-1.3-5.4-2
									c-0.1,0.1-0.2,0.2-0.2,0.4c-0.2,0.4-0.2,0.8-0.1,1.3c-1.6,3.5-5.3,12-9.6,25c-1.2,0.4-1.8,2-0.9,2.9
									c-1.8,5.8-3.8,12.4-5.7,19.8c-1.5,0-2,2.2-0.8,3.2c-1.6,6.4-3.2,13.3-4.7,20.8c-1.1,0.5-1.5,2.2-0.6,3
									c-1.1,5.5-2.1,11.3-3,17.4c-1.6,0.2-2.1,2.7-0.5,3.4c-0.9,6.5-1.8,13.2-2.5,20.2c-1.2,0.5-1.5,2.5-0.3,3.2
									C85,347.5,84.3,356.7,83.8,366.3z"/>
								<path class="st2" d="M87.8,304c0-0.2,0.1-0.3,0.2-0.4c-0.2-35.3,6.6-70.3,19.7-103c0.3-0.7,1.4-0.2,1.1,0.5
									c-13.2,32.7-19.9,67.7-19.6,103c0,0.2-0.1,0.4-0.3,0.5c-1.8,18.3-3.2,36.5-4.4,54.8c0,0.8-1.2,0.8-1.2,0.1
									C84.6,341.1,86.1,322.5,87.8,304z"/>
								<path class="st2" d="M75.2,180.8c0.5-16.2,1.1-32.5,1.8-48.7c0-0.8,1.2-0.8,1.2-0.1c-2.3,57-3.8,114.1-4.5,171.1
									c-0.2,16.2-0.3,32.5-0.4,48.7c0,0.8-1.2,0.9-1.2,0.1C72.4,294.9,73.4,237.8,75.2,180.8z"/>
								<path class="st2" d="M58.7,300.5c-0.2-10.8-1.4-21.1-3.4-31.7c-2.1-10.8-3.2-21.6-3.9-32.6c-0.8-12.3-1.7-24.7-2.5-37
									c0-0.8,1.1-0.8,1.2-0.1c0.7,11,1.5,21.9,2.2,32.9c0.7,10.8,1.4,21.5,3.3,32.1c1.9,10.6,3.8,20.9,4.1,31.7
									c0.3,10.9,0.4,21.8,0.6,32.7c0.2,12.4,0.4,24.8,0.6,37.2c0,0.8-1.2,0.8-1.2,0.1C59.4,344.1,59.1,322.3,58.7,300.5z"/>
								<path class="st2" d="M85.7,222.1c-0.3-6.2-1.2-12.4-2.9-18.4c5,5,11.7,8,18.8,8.3c0.4,0,0.6-0.5,0.3-0.8
									c-4.1-5-9.4-10.3-16-10.6c1.8-1.3,3-3.4,4.1-5.3c2.5-4.6,4.6-9.4,6.2-14.4c0.1-0.4-0.3-0.7-0.7-0.5
									c-6.8,4.3-13.9,9.5-15.8,17.7c-8.4,0.3-13.2,7.8-16.9,14.4c-0.2,0.3,0,0.7,0.4,0.7c6.6,0.2,11.4-4.2,15.6-8.7
									c-1.1,6.6,1.1,13.4,6,18C85.2,222.7,85.8,222.6,85.7,222.1z"/>
								<path class="st3" d="M61.4,223.3c-3.1,1.7-5.9,3.7-8.5,6c1.3-3.7,1.1-7.8-0.4-11.5c-0.1-0.2-0.4-0.2-0.5,0
									c-1.5,3.3-2.9,7.2-1.4,10.6c-1.1-0.6-2.4-0.7-3.7-0.7c-2.9-0.1-5.9,0-8.8,0.4c-0.2,0-0.3,0.4-0.1,0.5
									c3.8,2.3,8.2,4.6,12.8,3.6c2.2,4.2,7.1,4.7,11.4,5c0.2,0,0.3-0.2,0.3-0.4c-1.5-3.4-4.9-4.7-8.2-5.7c3.6-1,6.5-3.8,7.6-7.4
									C61.8,223.5,61.6,223.2,61.4,223.3z"/>
								<path class="st2" d="M87.6,146.4c-0.8,0-1.8-0.1-2.8-0.3v-0.2c2.5,0.5,4.8,0.1,4.8,0.1v0.2
									C89.7,146.3,88.8,146.4,87.6,146.4z"/>
								<path class="st2" d="M85.3,172.4c-1.3,0-2.6-0.2-3.3-0.8l0.1-0.1c1.2,1.2,5.4,0.6,5.5,0.6v0.2
									C87.5,172.3,86.5,172.4,85.3,172.4z"/>
								<path class="st2" d="M86.1,198c-1,0-3.5-0.1-5.6-0.6v-0.2c2.7,0.7,6,0.6,6.1,0.6v0.2C86.6,198,86.4,198,86.1,198z"/>
								<path class="st2" d="M83.8,225.7c-1,0-3.5-0.1-5.6-0.6v-0.2c2.7,0.7,6,0.6,6.1,0.6v0.2C84.3,225.7,84.1,225.7,83.8,225.7z"
									/>
								<path class="st2" d="M82.3,248c-1,0-3.5-0.1-5.6-0.6v-0.2c2.7,0.7,6,0.6,6.1,0.6v0.2C82.8,248,82.6,248,82.3,248z"/>
								<path class="st2" d="M60.6,246.3c-0.1,0-0.3,0-0.4,0v-0.2c1.2,0.2,4.7-0.6,4.7-0.6v0.2C64.9,245.7,62.1,246.3,60.6,246.3z"
									/>
								<path class="st2" d="M58.9,220c-0.1,0-0.3,0-0.4,0v-0.2c1.2,0.1,4.7-0.6,4.7-0.6v0.2C63.2,219.4,60.3,220,58.9,220z"/>
								<path class="st2" d="M108.7,249.3c-0.1,0-3.4-1.2-4.4-2l0.1-0.2c1,0.8,4.3,1.9,4.4,2L108.7,249.3z"/>
								<path class="st2" d="M32.3,198c5.3,2.7,11,3.8,16.9,3.1c0.7-0.1,0.7-1,0.2-1.2c0.7-7.7-2.1-15.1-7.9-20.3
									c-0.3-0.3-0.7-0.2-0.9,0.2c-1.9,3.2-2,7-0.7,10.5c1.3,3.2,3.7,5.3,6,7.7c-4.2-2-8.9-2.4-13.6-1
									C31.9,197,31.9,197.7,32.3,198z"/>
								<path class="st3" d="M98.4,210.6c-1.8,5.7-1.8,11.5-0.1,17.2c0.2,0.6,1.1,0.5,1.2,0c7.7-0.6,14.5-4.7,18.7-11.3
									c0.2-0.3,0-0.8-0.3-0.9c-3.5-1.3-7.3-0.8-10.4,1.2c-2.9,1.8-4.6,4.6-6.5,7.3c1.2-4.5,0.8-9.2-1.3-13.5
									C99.3,210.1,98.6,210.2,98.4,210.6z"/>
								<path class="st3" d="M76.2,107.6c0.2-0.7,1.1-0.6,1.2,0.1c1.6,8.1,3.1,16.4,1,24.5c-0.2,0.6-1,0.6-1.2,0.1
									c-0.1-0.1-0.1-0.1-0.2-0.2C74.3,124.1,74,115.7,76.2,107.6z"/>
								<path class="st3" d="M70.9,134.5c1.4,2.2,3.6,3.2,6.1,3.8c0.4,0.1,0.8-0.4,0.7-0.7c0.1-0.1,0.2-0.3,0.1-0.5
									c-1.3-4.6-4.5-8.1-7.7-11.5c-0.4-0.4-1,0-1,0.5C69.2,128.8,69.3,131.9,70.9,134.5z"/>
								<path class="st2" d="M76.4,169.5c5.9-1.5,10.4-6,11.9-11.9c0.1-0.5-0.5-1-0.9-0.6c-3.9,3.4-8.5,5.9-11.6,10.2
									c-0.2,0.3-0.1,0.7,0.2,0.9c-0.1,0.2-0.2,0.4-0.4,0.6C75.3,169.1,75.9,169.6,76.4,169.5z"/>
								<path class="st2" d="M108.1,203.1c5.9-1.5,10.4-6,11.9-11.9c0.1-0.5-0.5-1-0.9-0.6c-3.9,3.4-8.5,5.9-11.6,10.2
									c-0.2,0.3-0.1,0.7,0.2,0.9c-0.1,0.2-0.2,0.4-0.4,0.6C107,202.8,107.6,203.2,108.1,203.1z"/>
								<path class="st3" d="M106.6,178.3c0.2-0.7,1.1-0.6,1.2,0.1c1.6,8.1,3.1,16.3,1,24.5c-0.2,0.6-1,0.6-1.2,0.1
									c-0.1-0.1-0.1-0.1-0.2-0.2C104.8,194.8,104.5,186.5,106.6,178.3z"/>
								<path class="st4" d="M323.1,70.1h-5.9V21h5.9V70.1z"/>
								<path class="st4" d="M331.3,32.3H309V26h22.3V32.3z"/>
								<path class="st5" d="M211.8,39.8h220.3c1,0,1.9-0.8,1.9-1.9v-3.8c0-1-0.8-1.9-1.9-1.9H211.8c-1,0-1.8,0.8-1.8,1.9v3.8
									C209.9,39,210.8,39.8,211.8,39.8z"/>
								<path class="st6" d="M216,293h214V36H216V293z"/>
								<path class="st7" d="M210,293h217V36H210V293z"/>
								<path class="st8" d="M208.4,39.8h220.3c1,0,1.9-0.8,1.9-1.9v-3.8c0-1-0.8-1.9-1.9-1.9H208.4c-1,0-1.9,0.8-1.9,1.9v3.8
									C206.5,39,207.4,39.8,208.4,39.8z"/>
							</g>
						</g>
					</g>
					<g>
						<g>
							<defs>
								<rect id="SVGID_00000076569315344750413860000004485178055809579704_" x="32" y="21" width="430.5" height="233"/>
							</defs>
							<clipPath id="SVGID_00000048493555444536184480000009177045974636064429_">
								<use xlink:href="#SVGID_00000076569315344750413860000004485178055809579704_"  style="overflow:visible;"/>
							</clipPath>
							
								<rect x="31.8" y="252.5" style="clip-path:url(#SVGID_00000048493555444536184480000009177045974636064429_);fill:#FDF5D7;" width="430" height="1.5"/>
						</g>
					</g>
					<g>
						<g>
							<defs>
								<rect id="SVGID_00000139257750714659889040000016739896833937303708_" x="32" y="21" width="430.5" height="233"/>
							</defs>
							<clipPath id="SVGID_00000167373438291489719650000009695855545647594158_">
								<use xlink:href="#SVGID_00000139257750714659889040000016739896833937303708_"  style="overflow:visible;"/>
							</clipPath>
							<path style="clip-path:url(#SVGID_00000167373438291489719650000009695855545647594158_);fill:#F59E73;" d="M165,120.1
								c1.3,0.7,2.2,0.9,3.4,0.5c2.9-0.9,5.9-1.4,9-1.8c0.7-0.1,0.9-0.4,0.6-0.9c-0.9-1.7,0.2-3.3,0.3-5c0-0.5,0.5-0.8,1-0.9
								c0.7-0.1,1.1,0.2,1.4,0.7c0.6,1,0.8,2.1,0.6,3.2c-0.3,2.4,1,3.6,2.8,4.7c4.6,2.9,9.6,4.9,15,5.8c3.4,0.6,4.9,2.8,4.9,6.1
								c0,1.2,0.6,2.2,0.6,3.5c-0.2,5-0.9,9.8-1.7,14.7c-1.3,7.9-2.8,15.7-4.7,23.4c-0.6,2.3-1.2,4.6-1.7,6.9
								c-0.4,1.8-1.8,3-2.4,4.6c-0.9,2.2-2.3,3.1-4.7,3.5c-5.1,0.8-10.1,1.6-15.3,1.5c-3.3-0.1-6.7-0.4-9.8-1.4
								c-3.1-1.1-5.5-3.1-7.7-5.5c-6.2-6.7-10.1-14.8-14.2-22.8c-3.6-7-5.2-14.6-6.7-22.2c-1.1-5.6,0-10.8,2.5-15.8
								c2-3.9,4.4-5.2,8.8-4.5c2.6,0.4,5.2,0.3,7.7,0.2c2.5-0.2,5.1-0.3,7.4-1.5c0.6-0.3,1.3-0.5,1.7-1c0.8-1.2,2-1.2,3.2-1.1
								c0.9,0.1,1.6,0.5,2,1.5s0.1,1.8-0.8,2.3C167.3,119.3,166.3,119.6,165,120.1z"/>
						</g>
					</g>
					<g>
						<g>
							<defs>
								<rect id="SVGID_00000070095124052877487570000006526007602204453004_" x="32" y="21" width="430.5" height="233"/>
							</defs>
							<clipPath id="SVGID_00000150067017650329585610000003863111822699043775_">
								<use xlink:href="#SVGID_00000070095124052877487570000006526007602204453004_"  style="overflow:visible;"/>
							</clipPath>
							<path style="clip-path:url(#SVGID_00000150067017650329585610000003863111822699043775_);fill:#F59E73;" d="M186.3,92.1
								c-0.1,4.3-1,8.5-1.9,12.7c-1.3,6.1-3.2,12-4.9,18c-0.1,0.5-0.3,0.9-0.5,1.3s-0.7,0.9-1.2,0.6c-1.1-0.7-2.2,0-3.3,0
								c-3.3,0.2-6.6,0-9.6-1.4c-0.7-0.3-1.4-0.7-2.1-1.1c-1.8-0.9-2-1.5-1.2-3.3c1.4-2.9,2.4-5.8,3-9c0.1-0.7,0-8.8,0-9.5
								c0-3.5,2.4,1.2,4.5-1.2c3.2-3.6,6.7-6.9,10.8-9.6c0.8-0.5,1.5-1,2.4-1.4c2.1-1,4.1,0.3,4.1,2.5
								C186.3,91.3,186.3,91.7,186.3,92.1z"/>
						</g>
					</g>
					<g>
						<g>
							<defs>
								<rect id="SVGID_00000123400357031442493110000000023418557561541052_" x="32" y="21" width="430.5" height="233"/>
							</defs>
							<clipPath id="SVGID_00000022538646214984015590000002128849118855359886_">
								<use xlink:href="#SVGID_00000123400357031442493110000000023418557561541052_"  style="overflow:visible;"/>
							</clipPath>
							<path style="clip-path:url(#SVGID_00000022538646214984015590000002128849118855359886_);fill:#E07C54;" d="M166.3,104.9
								c6.3,4.6,15.3,4.3,17.4,3.4c-0.7,2.4-2.4,9.8-2.9,11.3C167.9,110.3,168.4,107.1,166.3,104.9z"/>
						</g>
					</g>
					<g>
						<path class="st13" d="M238.2,122h32.2c1,0,1.8,0.8,1.8,1.8v9.8c0,1-0.8,1.8-1.8,1.8h-32.2c-1,0-1.8-0.8-1.8-1.8v-9.8
							C236.4,122.8,237.2,122,238.2,122z"/>
						<path class="st14" d="M338.4,123.8v9.8c0,1-0.8,1.8-1.8,1.8h-9.9c-1,0-1.8-0.8-1.8-1.8v-9.8c0-1,0.8-1.8,1.8-1.8h9.9
							C337.6,122,338.4,122.8,338.4,123.8z"/>
						<path class="st14" d="M519.3,54.7h9.9c1,0,1.8,0.8,1.8,1.8v9.8c0,1-0.8,1.8-1.8,1.8h-9.9c-1,0-1.8-0.8-1.8-1.8v-9.8
							C517.5,55.5,518.3,54.7,519.3,54.7z"/>
						<path class="st14" d="M519.3,90h9.9c1,0,1.8,0.8,1.8,1.8v9.8c0,1-0.8,1.8-1.8,1.8h-9.9c-1,0-1.8-0.8-1.8-1.8v-9.8
							C517.5,90.8,518.3,90,519.3,90z"/>
						<path class="st14" d="M519.3,72.4h9.9c1,0,1.8,0.8,1.8,1.8V84c0,1-0.8,1.8-1.8,1.8h-9.9c-1,0-1.8-0.8-1.8-1.8v-9.8
							C517.5,73.2,518.3,72.4,519.3,72.4z"/>
						<path class="st13" d="M279,122h39.2c1,0,1.8,0.8,1.8,1.8v9.8c0,1-0.8,1.8-1.8,1.8H279c-1,0-1.8-0.8-1.8-1.8v-9.8
							C277.2,122.8,278,122,279,122z"/>
						<g>
							<path class="st15" d="M334.9,160.3c1.4,0,2.5,1.1,2.5,2.5s-1.1,2.5-2.5,2.5s-2.5-1.1-2.5-2.5
								C332.4,161.5,333.6,160.4,334.9,160.3z"/>
							<path class="st15" d="M334.9,172.2c1.4,0,2.5,1.1,2.5,2.5s-1.1,2.5-2.5,2.5s-2.5-1.1-2.5-2.5
								C332.4,173.3,333.6,172.2,334.9,172.2z"/>
							<path class="st15" d="M334.9,148.5c1.4,0,2.5,1.1,2.5,2.5s-1.1,2.5-2.5,2.5s-2.5-1.1-2.5-2.5
								C332.4,149.7,333.6,148.5,334.9,148.5z"/>
							<g>
								<path class="st14" d="M326.6,149.4c0.6,0,0.6-0.9,0-0.9c-2.8,0-5.6,0-8.4,0c-9.9,0-34.8,0-44.7,0c-0.6,0-0.6,0.9,0,0.9
									c2.8,0,5.6,0,8.4,0C291.8,149.4,316.7,149.4,326.6,149.4L326.6,149.4z"/>
							</g>
							<g>
								<path class="st14" d="M326.7,153.6c0.6,0,0.6-0.9,0-0.9c-7.7,0-30.4,0-38.1,0c-0.6,0-0.6,0.9,0,0.9
									C296.3,153.6,319,153.6,326.7,153.6L326.7,153.6z"/>
							</g>
							<g>
								<path class="st14" d="M281.7,173c0.6,0,0.6-0.9,0-0.9c-2.8,0-5.5,0-8.3,0c-0.6,0-0.6,0.9,0,0.9
									C276.2,173,278.9,173,281.7,173L281.7,173z"/>
							</g>
							<g>
								<path class="st14" d="M326.6,173c0.6,0,0.6-0.9,0-0.9c-8.3,0-31.5,0-39.8,0c-0.6,0-0.6,0.9,0,0.9
									C295.1,173,318.3,173,326.6,173L326.6,173z"/>
							</g>
							<g>
								<path class="st14" d="M326.7,177.2c0.6,0,0.6-0.9,0-0.9c-7.7,0-30.4,0-38.1,0c-0.6,0-0.6,0.9,0,0.9
									C296.3,177.2,319,177.2,326.7,177.2L326.7,177.2z"/>
							</g>
							<g>
								<path class="st14" d="M294.5,161.2c0.5,0,0.5-0.9,0-0.9c-7,0-14,0-21,0c-0.6,0-0.6,0.9,0,0.9
									C280.5,161.2,287.5,161.2,294.5,161.2L294.5,161.2z"/>
							</g>
							<g>
								<path class="st14" d="M326.6,161.2c0.6,0,0.6-0.9,0-0.9c-4,0-23.1,0-27.1,0c-0.6,0-0.6,0.9,0,0.9
									C303.5,161.2,322.6,161.2,326.6,161.2L326.6,161.2z"/>
							</g>
							<g>
								<path class="st14" d="M326.7,165.4c0.6,0,0.6-0.9,0-0.9c-7.7,0-30.4,0-38.1,0c-0.6,0-0.6,0.9,0,0.9
									C296.3,165.4,319,165.4,326.7,165.4L326.7,165.4z"/>
							</g>
						</g>
						<path class="st14" d="M519.3,108.7h9.9c1,0,1.8,0.8,1.8,1.8v9.8c0,1-0.8,1.8-1.8,1.8h-9.9c-1,0-1.8-0.8-1.8-1.8v-9.8
							C517.5,109.5,518.3,108.7,519.3,108.7z"/>
					</g>
					<g>
						<g>
							<defs>
								<rect id="SVGID_00000080907952999616693580000017677779503571827337_" x="32" y="21" width="430.5" height="233"/>
							</defs>
							<clipPath id="SVGID_00000155142697216678968400000015800702529056616855_">
								<use xlink:href="#SVGID_00000080907952999616693580000017677779503571827337_"  style="overflow:visible;"/>
							</clipPath>
							<path style="clip-path:url(#SVGID_00000155142697216678968400000015800702529056616855_);fill:#170935;" d="M148.7,267.9
								c-0.3-14.3,0-28.7,3.9-38.5c2.8-7,9-16.4,8.6-19.2c-0.5-3.4-0.5-9.5,1.5-10.7c4.1-2.5,9-3.2,13.4-3.6
								c6.6-0.6,13.2-1.1,19.8-0.8c3.3,0.1,6.5,0.5,9.7,1c1.7,0.3,2.7,1.3,2.7,3.1c0.2,6.1,1.8,11.9,2.8,17.9
								c2,12.8,4.8,25.5,6.4,38.4c0.5,4.1,1.7,9.3-1.8,12.5C210.4,272.6,148.9,279.8,148.7,267.9z"/>
						</g>
					</g>
					<g>
						<g>
							<defs>
								<rect id="SVGID_00000124145253949725967660000004749068103238170753_" x="32" y="21" width="430.5" height="233"/>
							</defs>
							<clipPath id="SVGID_00000096050043850883732630000013712427444162964115_">
								<use xlink:href="#SVGID_00000124145253949725967660000004749068103238170753_"  style="overflow:visible;"/>
							</clipPath>
							<path style="clip-path:url(#SVGID_00000096050043850883732630000013712427444162964115_);fill:#A64F1A;" d="M176.8,252.3
								c-0.2-0.4-0.8-0.6-1.2-0.3c-0.2,0.1-0.3,0.3-0.5,0.5c-0.4,0.8-0.6,1.9-0.5,2.9c0.1,0.5,0.2,0.9,0.6,1.2
								c0.4,0.3,0.8,0.1,1.1-0.2c0.3-0.4,0.4-0.9,0.5-1.4C176.9,254.2,177.2,253,176.8,252.3z"/>
						</g>
					</g>
					<g>
						<g>
							<defs>
								<rect id="SVGID_00000086676363023307828610000000648245335344360895_" x="32" y="21" width="430.5" height="233"/>
							</defs>
							<clipPath id="SVGID_00000159435035289333047310000008508764016775934639_">
								<use xlink:href="#SVGID_00000086676363023307828610000000648245335344360895_"  style="overflow:visible;"/>
							</clipPath>
							
								<path style="clip-path:url(#SVGID_00000159435035289333047310000008508764016775934639_);fill:#0E5C58;stroke:#161120;stroke-width:0.7;" d="
								M166.6,271.7C166.5,271.7,166.5,271.7,166.6,271.7c-0.2,0-0.3-0.2-0.3-0.3c1.7-15.6,13.1-63.8,13.2-64
								c0.1-0.1,0.2-0.2,0.4-0.2c0.1,0.1,0.2,0.2,0.2,0.4c-0.1,0.5-11.5,48.3-13.2,63.9C166.8,271.6,166.7,271.7,166.6,271.7z"/>
						</g>
					</g>
					<g>
						<g>
							<defs>
								<rect id="SVGID_00000170957873088337993070000013515905150791681928_" x="32" y="21" width="430.5" height="233"/>
							</defs>
							<clipPath id="SVGID_00000176733288943572754430000014758115487807951780_">
								<use xlink:href="#SVGID_00000170957873088337993070000013515905150791681928_"  style="overflow:visible;"/>
							</clipPath>
							<path style="clip-path:url(#SVGID_00000176733288943572754430000014758115487807951780_);fill:#6D9AFF;" d="M193.2,158
								c0-4.9,1.3-9.3,2.5-13.6c1.1-3.8,2.3-7.6,4.1-11.1c0.8-1.5,1.5-3.2,3.4-3.6c0.6-0.1,0.3-0.5,0.3-0.8c-0.1-0.5,0-0.9,0.5-1
								s1,0,1.2,0.5c0.6,1.1,1,2.3,1.3,3.4c1.3,3.9,2.1,7.9,3.2,11.8c0.8,2.7,2.2,5,3.6,7.4c2.5,4.2,4.9,8.4,7.1,12.8
								c0.4,0.8,0.9,1.6,1.3,2.4c0.5,0.9,1.1,1.6,2.3,1.1c0.5-0.2,0.7,0.1,0.9,0.5c1.2,2.7,3.1,4.9,4.3,7.5
								c2.6,5.5,1.4,9.4-3.1,13.5c-0.5,0.4-1.1,0.8-1.6,1.2c-2,1.4-4,1.4-6,0c-3.7-2.6-7.3-5.2-10.3-8.5c-2-2.2-3.9-4.6-5.3-7.3
								c-0.3-0.5-0.6-1.1-0.4-1.6c0.3-0.9-0.1-1.5-0.7-2.1c-1.8-1.9-3.4-4-4.9-6.2c-0.2-0.3-0.4-0.8-1-0.6c-1.4,0.4-2.1-0.4-2.4-1.5
								C193.3,160.6,193.1,159.2,193.2,158z"/>
						</g>
					</g>
					<g>
						<g>
							<defs>
								<rect id="SVGID_00000158723771421687126320000003703164533846460588_" x="32" y="21" width="430.5" height="233"/>
							</defs>
							<clipPath id="SVGID_00000011006854962490989280000012776094179544627366_">
								<use xlink:href="#SVGID_00000158723771421687126320000003703164533846460588_"  style="overflow:visible;"/>
							</clipPath>
							<path style="clip-path:url(#SVGID_00000011006854962490989280000012776094179544627366_);fill:#6D9AFF;" d="M176.4,135.2
								c0,0,5.1-17,5-17.3c-0.4-1.4,0.6-1.4,1.9-1.1c1.9,0.4,3.4,1.7,5,2.6c1.8,1.1,3.7,1.7,5.6,2.5c2.5,1.1,5,2.3,7.6,3.3
								c3.3,1.3,4.7,4.6,5.4,7.6c0.8,3.2,3,11.2,3.2,12.1c0.1,0.5-6.3,14.7-5.9,18c0.4,2.6,0.7,5.1,1.2,7.6
								c0.9,4.6,2.5,8.9,3.6,13.4c0.7,2.7,1.6,5.3,1.9,8c0.4,2.7-0.7,5.1-3.1,6.4c-0.5,0.3-1.2,0.7-1.6,0.4
								c-1.1-0.9-2.7-1.2-3.2-2.7c-0.1-0.4-0.3-0.6-0.7-0.6c-5.2-0.4-10.3-0.3-15.5-0.1c-3.9,0.2-7.7,0.7-11.5,1.2
								c-2.2,0.3-4.4,1.1-6.6,1.5c-1.5,0.3-3.1,0.6-4.6,0.9c-0.9,0.2-1.6-0.5-2.1-0.9c-6.3-6-11.9-12.6-14.8-21
								c-0.9-2.7-1.6-5.5-2.5-8.2s-2.3-5.2-3.3-7.9c-1-2.5-1.5-5.2-2-7.8c-1-5.6-1.7-11.2-1.9-16.9c-0.2-5.8-0.4-12,1.4-17.6
								c0.7-2.1,2.1-2.5,4-2.3c1.6,0.1,3.3,0.4,4.9,0.7c1.9,0.3,3.9-0.3,5.7-0.7c2.4-0.5,5-1.4,7.4-1.4c1.2,0,1.5-0.2,1.7,0.6
								c0.6,1.9,2.3,4.3,3.5,5.8C171,127.1,176.4,135.2,176.4,135.2z"/>
						</g>
					</g>
					<g>
						<g>
							<defs>
								<rect id="SVGID_00000058561347786471685990000004684557586612171137_" x="32" y="21" width="430.5" height="233"/>
							</defs>
							<clipPath id="SVGID_00000033361505509049954980000015463050171370157224_">
								<use xlink:href="#SVGID_00000058561347786471685990000004684557586612171137_"  style="overflow:visible;"/>
							</clipPath>
							<path style="clip-path:url(#SVGID_00000033361505509049954980000015463050171370157224_);fill:#6D9AFF;" d="M115.9,187.7
								c0-1.1,0.4-2,0.4-3c0.3-1.1,0.3-2.3,0.5-3.4c2.3-8.9,5.3-17.5,9.2-25.8c2.5-5.2,4-10.8,4.7-16.5c0.4-3.6,0.9-7.2,1.7-10.8
								c0.4-2.2,1.6-4.2,2.8-6c1.2-1.6,2.6-3.6,4.2-4.8c1.4-0.9,3.2-1.5,4.4-0.3c5.5,4.9,5.5,13.8,7.4,20.5c0.7,2.3,0.5,4.8,0.9,7.1
								c0.4,2.5,0.7,5,0.3,7.5c-0.3,1.9-1.6,3-1.9,4.9c-0.2,1-0.3,2.1-0.5,3.1c-0.8,4-1.6,8.1-2.6,12.1c-0.9,3.7-1.3,8.6-4.4,11.2
								c-0.8,0.6-1.7,1.1-2.7,1.4c-1.3,0.4-2.8,0.2-4.1,0.6c-0.5,0.2-1,0.5-1.5,0.8c-2.5,1.5-5.4,2.3-8.1,3.3
								c-1.5,0.5-2.9,1.2-4.5,1.2c-0.5,0-1,0-1.5,0.2c-1.1,0.5-3-0.3-3.5-1.3C116.8,189.1,115.9,188.4,115.9,187.7z"/>
						</g>
					</g>
					<g>
						<g>
							<defs>
								<rect id="SVGID_00000103262700019151540160000004849957688785014968_" x="32" y="21" width="430.5" height="233"/>
							</defs>
							<clipPath id="SVGID_00000168816662858756968880000005335891472391053959_">
								<use xlink:href="#SVGID_00000103262700019151540160000004849957688785014968_"  style="overflow:visible;"/>
							</clipPath>
							
								<path style="clip-path:url(#SVGID_00000168816662858756968880000005335891472391053959_);fill:#6D9AFF;stroke:#5282ED;stroke-width:0.7;" d="
								M155.5,163.4c-0.1,0-0.3-0.1-0.3-0.2c-3.6-25.9-10.1-40.2-11.9-44c-0.1-0.1-0.1-0.2-0.1-0.2c-0.1-0.2,0-0.3,0.2-0.4
								c0.1,0,0.3,0,0.4,0.2c0,0,0,0.1,0.1,0.2c1.9,3.8,8.3,18.2,12,44.2C155.8,163.2,155.7,163.3,155.5,163.4L155.5,163.4z"/>
						</g>
					</g>
					<g>
						<g>
							<defs>
								<rect id="SVGID_00000140713119565906007960000014857776005212199082_" x="32" y="21" width="430.5" height="233"/>
							</defs>
							<clipPath id="SVGID_00000134970643053819161480000015540198182541537711_">
								<use xlink:href="#SVGID_00000140713119565906007960000014857776005212199082_"  style="overflow:visible;"/>
							</clipPath>
							
								<path style="clip-path:url(#SVGID_00000134970643053819161480000015540198182541537711_);fill:#6D9AFF;stroke:#5282ED;stroke-width:0.7;" d="
								M203.5,151.9L203.5,151.9c-0.2,0-0.3-0.2-0.3-0.3c1-6.1,1.1-13.5,0.3-20.7c0-0.3,0-0.3,0-0.4c0-0.2,0.1-0.3,0.3-0.3
								s0.3,0.1,0.3,0.3c0,0,0,0.1,0,0.3c0.8,7.2,0.7,14.6-0.3,20.8C203.8,151.8,203.6,151.9,203.5,151.9z"/>
						</g>
					</g>
					<g>
						<g>
							<defs>
								<rect id="SVGID_00000142177407470937403490000004202653821398974367_" x="32" y="21" width="430.5" height="233"/>
							</defs>
							<clipPath id="SVGID_00000023274451710660953450000003479129263783837605_">
								<use xlink:href="#SVGID_00000142177407470937403490000004202653821398974367_"  style="overflow:visible;"/>
							</clipPath>
							
								<path style="clip-path:url(#SVGID_00000023274451710660953450000003479129263783837605_);fill:#6D9AFF;stroke:#5282ED;stroke-width:0.7;" d="
								M208.4,181.6c-0.1,0-0.2-0.1-0.3-0.2l-3.1-11.7c0,0,0,0,0-0.1c-0.2-12.6-1.8-18-1.8-18c0-0.2,0-0.3,0.2-0.4
								c0.2,0,0.3,0,0.4,0.2c0,0.1,1.6,5.5,1.8,18.2l3.1,11.6C208.7,181.4,208.6,181.6,208.4,181.6L208.4,181.6z"/>
						</g>
					</g>
					<g>
						<g>
							<defs>
								<rect id="SVGID_00000065066340728139635610000011697008943601600391_" x="32" y="21" width="430.5" height="233"/>
							</defs>
							<clipPath id="SVGID_00000181793142595188452530000005326899109358639511_">
								<use xlink:href="#SVGID_00000065066340728139635610000011697008943601600391_"  style="overflow:visible;"/>
							</clipPath>
							<path style="clip-path:url(#SVGID_00000181793142595188452530000005326899109358639511_);fill:#493714;" d="M144.7,215.1
								c2.1-1.6,3.8-3.6,5.3-5.9c2.3-3.4,4.7-6.8,6.5-10.5c0.2-0.4,0.5-0.9,0.8-1.2c0.5-0.4,1-0.7,1.7-0.2c0.6,0.5,0.8,1,0.4,1.7
								c-1.9,3.1-3.4,6.3-5.6,9.2c-1.6,2.1-3.1,4.2-4.7,6.3c-0.3,0.4-0.6,0.8-0.9,1.1c-1.6,1.6-0.9,1-5,0.7
								C143.3,216.4,144.7,215.3,144.7,215.1z"/>
						</g>
					</g>
					<g>
						<g>
							<defs>
								<rect id="SVGID_00000051380946288086283040000016271903842793757338_" x="32" y="21" width="430.5" height="233"/>
							</defs>
							<clipPath id="SVGID_00000164501829313521327790000006629394891658876050_">
								<use xlink:href="#SVGID_00000051380946288086283040000016271903842793757338_"  style="overflow:visible;"/>
							</clipPath>
							<path style="clip-path:url(#SVGID_00000164501829313521327790000006629394891658876050_);fill:#FFE1C9;" d="M233.1,145.5
								c0.3,0.8,0-1.3-0.4-0.2c-0.5,1.5-1.4,2.6-2.4,3.7c-0.3,0.3-0.9,0.5-1.3,0.2c-0.6-0.4-2.6-0.4-2.5-1.1c0.8-1.1,2.8-3.8,5-3.2
								c0.4,0.1,0.7,0.9,0.7,0.2C232.4,145.1,232.9,145.5,233.1,145.5z"/>
						</g>
					</g>
					<g>
						<g>
							<defs>
								<rect id="SVGID_00000008137167706204247060000015429433247776042891_" x="32" y="21" width="430.5" height="233"/>
							</defs>
							<clipPath id="SVGID_00000173873720217603523770000008210774685875291058_">
								<use xlink:href="#SVGID_00000008137167706204247060000015429433247776042891_"  style="overflow:visible;"/>
							</clipPath>
							<path style="clip-path:url(#SVGID_00000173873720217603523770000008210774685875291058_);fill:#493714;" d="M240.2,171.4
								c-1.6,1.2-3.3,0.8-4.1-0.9c-1.2-2.7-2.7-5.3-3.5-8.2c-0.1-0.3-0.3-0.6-0.2-0.8c0.6-1.2,1-2.7,1.8-3.6c1.7-2.1,2.1-3,1.1-5.5
								c-0.1-0.3-0.3-0.7-0.3-1c0-0.5,0.2-1.1,0.9-1.2c0.7-0.1,1.3,0.3,1.5,1c0.7,1.9,1.4,3.8,1.9,5.7c1.3,4.7,2.5,9.5,3.5,14.3
								c0.4,1.8-0.5,3.3-1.5,5.1c-0.2,0.4-0.6-1.2-1-1.4c-0.5-0.3-0.3-0.8-0.2-1.2C240.4,173,240.5,172.3,240.2,171.4z"/>
						</g>
					</g>
					<g>
						<g>
							<defs>
								<rect id="SVGID_00000096050207636659717980000002464581177252697229_" x="32" y="21" width="430.5" height="233"/>
							</defs>
							<clipPath id="SVGID_00000142878099620720941090000017083521675657568927_">
								<use xlink:href="#SVGID_00000096050207636659717980000002464581177252697229_"  style="overflow:visible;"/>
							</clipPath>
							<path style="clip-path:url(#SVGID_00000142878099620720941090000017083521675657568927_);fill:#F59E73;" d="M220.1,185.6
								c-0.9-0.7-1.8-1.3-2.5-2.3c-2-2.9-2.2-5.7-0.2-8.8c1.9-3,3.9-6,5.3-9.3c1.7-3.7,3.4-7.4,4.9-11.2c2-5,3.8-10.1,4.8-15.4
								c0.7-3.5,1.2-7.1,1.6-10.7c0.2-1.9,1.4-3.2,2.5-4.5c1.9-2.4,3.9-4.6,5.5-7.2c0.3-0.5,0.7-1.2,1.4-1c0.8,0.2,0.7,1,0.7,1.6
								c0,1.4-0.5,2.7-1.2,3.9c-0.7,1.1-1.3,2.1-1.9,3.2c-0.2,0.3-0.3,0.8,0,1.1c0.4,0.4,0.7,0,1-0.2c1.4-0.9,2.4-2.2,3.1-3.7
								c1.5-3.2,3.6-6.2,5.5-9.2c0.6-1,1.4-1.6,2.6-1.8c0.8-0.2,1.7-0.3,2.4-0.8s1.3-0.4,1.7,0.1c0.5,0.7,0.1,1.2-0.3,1.7
								c-0.4,0.7-0.7,1.4-1.2,2c-2.9,3.6-4.7,7.8-5.9,12.2c-0.4,1.2-1.3,2-2,2.9c-2.5,3-4.6,6.2-6.4,9.7c-0.6,1.1-4.3,15.4-6.1,21.3
								c-1.3,4.4-2.4,8.9-4.1,13.2c-1,2.4-2,4.8-3,7.1c-0.5,1-1.1,1.8-2.2,2.3c-1.1,0.6-2.3,1.6-3,2.8c-0.5,0.8-1.4,0.3-1.9,0.8
								C220.6,185.6,220.3,185.6,220.1,185.6z"/>
						</g>
					</g>
					<g>
						<g>
							<defs>
								<rect id="SVGID_00000149346560210022047120000001716774993202543785_" x="32" y="21" width="430.5" height="233"/>
							</defs>
							<clipPath id="SVGID_00000139288084432942671430000014343223873754923408_">
								<use xlink:href="#SVGID_00000149346560210022047120000001716774993202543785_"  style="overflow:visible;"/>
							</clipPath>
							
								<path style="clip-path:url(#SVGID_00000139288084432942671430000014343223873754923408_);fill:#C45547;stroke:#C45547;stroke-width:0.24;" d="
								M237.7,132.7h-0.1c-0.1-0.1-0.2-0.2-0.1-0.4c0-0.1,1.1-2.4,3.3-3.9c0.6-0.4,1.2-0.7,1.8-1c1.9-1,3.8-2,4.6-4.5
								c0.3-1,0.5-1.9,0.6-2.9c0.4-2.3,0.8-4.5,3.4-5.9c0.2-0.1,1-0.4,1.5-0.2c0.2,0.1,0.3,0.3,0.3,0.5c0.1,0.3-0.1,0.7-0.3,1.2
								c-0.3,0.8-1,2.4-1.5,5.5c0,0.2-0.2,0.3-0.3,0.2c-0.2,0-0.3-0.2-0.2-0.3c0.6-3.2,1.2-4.8,1.6-5.6c0.2-0.4,0.3-0.7,0.3-0.9
								v-0.1c-0.2-0.1-0.7,0-1,0.2c-2.4,1.3-2.7,3.2-3.1,5.5c-0.2,0.9-0.3,1.9-0.7,3c-0.9,2.8-3,3.9-4.9,4.8c-0.6,0.3-1.2,0.6-1.8,1
								c-2.1,1.4-3.1,3.6-3.1,3.6C237.9,132.7,237.8,132.7,237.7,132.7z"/>
						</g>
					</g>
					<g>
						<g>
							<defs>
								<rect id="SVGID_00000031894869045235840510000000514308316447261104_" x="32" y="21" width="430.5" height="233"/>
							</defs>
							<clipPath id="SVGID_00000023985430049403671860000001830334749606455974_">
								<use xlink:href="#SVGID_00000031894869045235840510000000514308316447261104_"  style="overflow:visible;"/>
							</clipPath>
							<path style="clip-path:url(#SVGID_00000023985430049403671860000001830334749606455974_);fill:#6D9AFF;" d="M207.4,173
								c0-0.5,0-1.1,0.2-1.6c1.1-2.1,2.7-4,4.6-5.4c1.9-1.3,5.1-2.9,7.4-2.3c0.2,0,0.1-0.9,0.6-0.5c0.6,0.6,1.7-1.4,2-2
								c0.3-0.5-0.5-0.9-0.6-1.4c-0.1-0.6,0.1-1.2,0.3-1.8c1.2-3.2,2.9-6.2,4.1-9.4c0.6-1.5,2.1-2.4,3.2-3.5
								c0.2-0.1,0.3-0.3,0.6-0.3c0.7,0-0.4,2.8-0.5,3.3c-0.2,1.3-0.1,2.6,0.1,3.8c0.5,2.5,1.6,4.8,2.5,7.1c2,5,5.1,9.4,9,13.1
								c1.6,1.5,1.6,2,0.4,3.9c-1.3,2.2-2.8,4.3-4.5,6.3c-0.5,0.6-0.9,0.9-1.7,0.5c-0.8-0.5-1.4-0.1-2,0.4c-1.7,1.5-3.4,3-5.2,4.4
								c-1.3,1-3.2,2.2-4.8,2.7c-1.1,0.4-2,0.7-3.1,0c-0.5-0.3-0.8-0.7-1.2-1.1c-2.3-2.7-4.4-5.5-6.5-8.3c-1.1-1.4-2.2-2.8-3.4-4.2
								C208.3,175.8,207.3,174.6,207.4,173z"/>
						</g>
					</g>
					<g>
						<g>
							<defs>
								<rect id="SVGID_00000127009987659993192820000006202106938504195252_" x="32" y="21" width="430.5" height="233"/>
							</defs>
							<clipPath id="SVGID_00000146460733284390012930000015592132236310862776_">
								<use xlink:href="#SVGID_00000127009987659993192820000006202106938504195252_"  style="overflow:visible;"/>
							</clipPath>
							
								<path style="clip-path:url(#SVGID_00000146460733284390012930000015592132236310862776_);fill:#B5845E;stroke:#F6B942;stroke-width:0.7;" d="
								M215.5,175.9L215.5,175.9c-0.2,0-0.3-0.2-0.3-0.3c0.6-4.5,3.6-10.4,3.8-10.6c0.1-0.1,0.2-0.2,0.4-0.1
								c0.1,0.1,0.2,0.2,0.1,0.4c0,0.1-3.1,6-3.7,10.5C215.8,175.8,215.6,175.9,215.5,175.9z"/>
						</g>
					</g>
					<g>
						<g>
							<defs>
								<rect id="SVGID_00000005267476993338807460000009853614547751772331_" x="32" y="21" width="430.5" height="233"/>
							</defs>
							<clipPath id="SVGID_00000029003383047028861700000006176918901787985596_">
								<use xlink:href="#SVGID_00000005267476993338807460000009853614547751772331_"  style="overflow:visible;"/>
							</clipPath>
							
								<path style="clip-path:url(#SVGID_00000029003383047028861700000006176918901787985596_);fill:#6D9AFF;stroke:#5282ED;stroke-width:0.7;" d="
								M234.4,181.7c-0.1,0-0.1,0-0.2-0.1c-10.2-8.9-12.1-20.6-12.1-20.7c0-0.2,0.1-0.3,0.2-0.3c0.2,0,0.3,0.1,0.3,0.2
								c0,0.1,1.9,11.7,11.9,20.4c0.1,0.1,0.1,0.3,0,0.4C234.6,181.6,234.5,181.7,234.4,181.7z"/>
						</g>
					</g>
					<g>
						<g>
							<defs>
								<rect id="SVGID_00000046303948547810693060000003246158590102557323_" x="32" y="21" width="430.5" height="233"/>
							</defs>
							<clipPath id="SVGID_00000080884788896656435110000017687794923730011813_">
								<use xlink:href="#SVGID_00000046303948547810693060000003246158590102557323_"  style="overflow:visible;"/>
							</clipPath>
							<path style="clip-path:url(#SVGID_00000080884788896656435110000017687794923730011813_);fill:#F59E73;" d="M175.5,184.9
								c0.1,0.7-0.2,1.3-0.6,1.8c-1,1.4-2.1,2.7-3.4,3.8c-0.7,0.6-1.6,1-2.4,0.4c-0.8-0.6-0.5-1.5-0.1-2.3c1-2,2.6-4.1,4-5.8
								c0.4-0.5,1.6-0.6,2.2-0.4C176,182.8,175.6,184.2,175.5,184.9z"/>
						</g>
					</g>
					<g>
						<g>
							<defs>
								<rect id="SVGID_00000071556127743147115580000006587905553816917909_" x="32" y="21" width="430.5" height="233"/>
							</defs>
							<clipPath id="SVGID_00000137126424553586370360000001830275249150121148_">
								<use xlink:href="#SVGID_00000071556127743147115580000006587905553816917909_"  style="overflow:visible;"/>
							</clipPath>
							<path style="clip-path:url(#SVGID_00000137126424553586370360000001830275249150121148_);fill:#CECECE;" d="M185.1,156.1
								c0,0-6-0.1-7.9,7.2c-1.9,7.2,6.2,9.5,9.6,9.1c3.4-0.4,9-3.9,9-3.9l0.4-6.9l-2.8-2.7l-5.3-2.1L185.1,156.1z"/>
						</g>
					</g>
					<g>
						<g>
							<defs>
								<rect id="SVGID_00000127033579263268032740000018149738232790342050_" x="32" y="21" width="430.5" height="233"/>
							</defs>
							<clipPath id="SVGID_00000015356289002765957500000005883709089770819243_">
								<use xlink:href="#SVGID_00000127033579263268032740000018149738232790342050_"  style="overflow:visible;"/>
							</clipPath>
							<path style="clip-path:url(#SVGID_00000015356289002765957500000005883709089770819243_);fill:#ED5500;" d="M199.7,215.6
								c-1.1,0.5-4.5,0.5-5.9,0.4c-3.6-0.3-21.2-1.4-26.3-2.3c-2-0.3-2.5-1-2-2.9c0.5-2.4,1.3-4.7,2-6.9c2.1-6.6,4.3-13.2,6.3-19.9
								c1.9-6.2,3.4-12.5,5.8-18.6c1.1-2.9,2.1-3.5,5.1-2.9c7.4,1.4,14.9,2.1,22.4,3.5c3.2,0.6,5,0.5,8.2,1.6
								c1.3,0.4,1.6,1.5,1.1,2.7c-1,2.5-1.4,5.2-2.5,7.7c-2.7,6.4-4,12.7-6.5,19.2c-1.8,4.6-3.3,9.4-5.3,13.9
								C201,213.1,201.6,214.8,199.7,215.6z"/>
						</g>
					</g>
					<g>
						<g>
							<defs>
								<rect id="SVGID_00000119079381876897339870000012755369348679833760_" x="32" y="21" width="430.5" height="233"/>
							</defs>
							<clipPath id="SVGID_00000018224410681570661240000015956261054702721422_">
								<use xlink:href="#SVGID_00000119079381876897339870000012755369348679833760_"  style="overflow:visible;"/>
							</clipPath>
							<path style="clip-path:url(#SVGID_00000018224410681570661240000015956261054702721422_);fill:#FFFFFF;" d="M185.1,156.1
								l30.2,2.9c2.7,0.3,4.4,2.7,5.3,5.2c1.4,4-0.3,14.9-3.7,25.4l-30.2-4.6c0,0,6.6-15.7,4.5-21.9
								C189.1,156.8,185.1,156.1,185.1,156.1z"/>
						</g>
					</g>
					<g>
						<g>
							<defs>
								<rect id="SVGID_00000053541843288995098780000003256493920668512932_" x="32" y="21" width="430.5" height="233"/>
							</defs>
							<clipPath id="SVGID_00000129906254444145753660000012191168787920802216_">
								<use xlink:href="#SVGID_00000053541843288995098780000003256493920668512932_"  style="overflow:visible;"/>
							</clipPath>
							<path style="clip-path:url(#SVGID_00000129906254444145753660000012191168787920802216_);fill:#F59E73;" d="M186.1,198.4
								c2.4-1.4,5.6-1.5,4.4-0.1c-0.4,0.4-4.3,2.6-4.8,2.9c-0.8,0.4-1.6,0.4-4,0.5c-3.1,0.1-5.5,0.4-8.6,0.7
								c-3.8,0.4-7.7,0.8-11.5,1.3c-0.9,0.1-1.7,0.3-2.6,0.4c-0.9,0.2-1.7,0.2-2.6,0c-2.3-0.3-4.6-0.4-6.9-0.6
								c-0.3,0-0.8,0.1-0.9-0.3c-0.2-0.4,0.3-0.4,0.5-0.6c0.1-0.2,0.2-0.4,0.3-0.6c0.5-2,1.7-3.6,2.9-5.2c1.1-1.3,2.5-1.7,4-1.9
								c0.9-0.2,1.7-0.2,2.5-0.6c2.1-1.1,4.1-2.4,5.9-4.1c1.8-1.7,3.4-3.7,5.4-5.3c1.1-0.8,2.2-1.7,3.5-2.3c0.2-0.1,0.6-0.2,0.4,0.1
								c-0.2,0.7-0.2,1.3-0.6,1.9c-0.5,0.8-0.7,3.2-0.5,3.9c0.2,0.6,2.2,0.9,4,0.7c2.9-0.3,1.4,0,4.2-0.7c1.9-0.5,4.4-1.1,6.3-1.6
								c1.3-0.3,4.6-1.1,4.9,0.4c0.1,0.3-1,0.6-1.7,0.8c-2.2,0.8-3.5,1.8-6.7,2.6c-0.7,0.2-2.5,0.7-3.7,1c-0.2,0-0.1,0.3,0,0.3
								c3.2,0,11.5-1.6,14.1-1.5c3.3,0.2,3,1.8,2.3,2.1c0,0-0.8,0.2-1.6,0.4c-0.2,0.1,0.1,0.8-0.3,1.1c-0.3,0.2-4.6,1.9-6.1,2.4
								c-1.2,0.4-8.3,0.9-8.3,1.5C180.3,198.1,184.3,199.5,186.1,198.4z"/>
						</g>
					</g>
					<g>
						<g>
							<defs>
								<rect id="SVGID_00000098204605141556728820000016764693149917626536_" x="32" y="21" width="430.5" height="233"/>
							</defs>
							<clipPath id="SVGID_00000030483418703029932570000009110451455451157409_">
								<use xlink:href="#SVGID_00000098204605141556728820000016764693149917626536_"  style="overflow:visible;"/>
							</clipPath>
							
								<path style="clip-path:url(#SVGID_00000030483418703029932570000009110451455451157409_);fill:#C45547;stroke:#C45547;stroke-width:0.24;" d="
								M175.8,192.6c-0.1,0-0.3-0.1-0.3-0.3s0.1-0.3,0.3-0.3c1.4-0.1,2.9-0.2,3.1-0.3c0.1,0,0.3,0,0.4,0.2c0,0.1,0,0.3-0.2,0.3
								C178.9,192.4,177,192.5,175.8,192.6L175.8,192.6z"/>
						</g>
					</g>
					<g>
						<g>
							<defs>
								<rect id="SVGID_00000034770381597119066510000005758280248722696356_" x="32" y="21" width="430.5" height="233"/>
							</defs>
							<clipPath id="SVGID_00000077283694473425102660000006369162405972945584_">
								<use xlink:href="#SVGID_00000034770381597119066510000005758280248722696356_"  style="overflow:visible;"/>
							</clipPath>
							
								<path style="clip-path:url(#SVGID_00000077283694473425102660000006369162405972945584_);fill:#C45547;stroke:#C45547;stroke-width:0.24;" d="
								M176.7,196.2c-0.1,0-0.3-0.1-0.3-0.3s0.1-0.3,0.2-0.3c0.5-0.1,2.9-0.4,3.1-0.4c0.2,0,0.3,0.1,0.3,0.3s-0.1,0.3-0.3,0.3
								C179.6,195.9,177.8,196.1,176.7,196.2L176.7,196.2z"/>
						</g>
					</g>
					<g>
						<g>
							<defs>
								<rect id="SVGID_00000182504387615305921110000007218569939180918204_" x="32" y="21" width="430.5" height="233"/>
							</defs>
							<clipPath id="SVGID_00000048491928355824643590000005372695408729176999_">
								<use xlink:href="#SVGID_00000182504387615305921110000007218569939180918204_"  style="overflow:visible;"/>
							</clipPath>
							
								<path style="clip-path:url(#SVGID_00000048491928355824643590000005372695408729176999_);fill:#C45547;stroke:#C45547;stroke-width:0.24;" d="
								M178.5,199c-0.5,0-1.2,0-1.3,0c-0.2,0-0.3-0.1-0.3-0.3s0.1-0.3,0.3-0.3c0.6,0,1.8,0,2,0s0.3,0.1,0.3,0.2
								c0,0.2-0.1,0.3-0.2,0.3C179.1,199,178.8,199,178.5,199z"/>
						</g>
					</g>
					<g>
						<g>
							<defs>
								<rect id="SVGID_00000145026396987054855780000011954454343727091370_" x="32" y="21" width="430.5" height="233"/>
							</defs>
							<clipPath id="SVGID_00000132053563298780637910000006356394718960803994_">
								<use xlink:href="#SVGID_00000145026396987054855780000011954454343727091370_"  style="overflow:visible;"/>
							</clipPath>
							<path style="clip-path:url(#SVGID_00000132053563298780637910000006356394718960803994_);fill:#6D9AFF;" d="M115.4,190.5
								c0.3-4.6,1.7-11.1,3.2-15.6c1.2-3.6,3.9-2.4,7.7-0.8c1.2,0.5,2.5,1,3.7,1.3c2.3,0.6,3.9,2.4,5.9,3.5c0.4,0.2,0.5,0.7,0.6,1.1
								c0.2,1.1,0.5,2.1,1.2,3c0.7,1,1.7,1.5,2.8,2c1.7,0.9,3.4,1.6,5,2.5c1.7,0.9,3.3,1.9,5,2.8c1.2,0.7,2.5,1.2,3.9,1.4
								c0.7,0.1,1.4,0.1,2.1,0.1c0.7-0.1,1.3-0.3,2-0.2c1.3,0.2,1.3,1.3,0.9,2.3c-2.4,5.9-6.1,11.1-9,16.7c-0.6,1.2-1.2,2.5-1.8,3.8
								c-1.4,2.9-2.6,2.5-5,2.1c-2.9-0.5-5.6-1.6-8.5-2.1c-0.7-0.1-0.4-1.5-0.4-2.3c0-0.6-0.8-1.2-1.2-1.6c-0.8-0.7-1.6-1.2-2.5-1.8
								c-3.6-2.5-6.8-5.4-10.1-8.3c-0.9-0.8-1.8-1.7-2.6-2.6c-0.8-0.9-1.6-1.8-2.3-2.9c-0.4-0.7-0.5-1.6-0.5-2.4
								C115.4,191.9,115.4,191.2,115.4,190.5z"/>
						</g>
					</g>
					<g>
						<g>
							<defs>
								<rect id="SVGID_00000098926028710626445870000009380352389270470532_" x="32" y="21" width="430.5" height="233"/>
							</defs>
							<clipPath id="SVGID_00000114784657214481305780000013955689287255943833_">
								<use xlink:href="#SVGID_00000098926028710626445870000009380352389270470532_"  style="overflow:visible;"/>
							</clipPath>
							
								<path style="clip-path:url(#SVGID_00000114784657214481305780000013955689287255943833_);fill:#6D9AFF;stroke:#5282ED;stroke-width:0.7;" d="
								M140,185.2h-0.1c-0.1,0-7.2-3.2-14-2.4c-0.2,0-0.3-0.1-0.3-0.2c0-0.2,0.1-0.3,0.2-0.3c7-0.9,14.2,2.4,14.3,2.4
								c0.1,0.1,0.2,0.2,0.1,0.4C140.3,185.1,140.1,185.2,140,185.2z"/>
						</g>
					</g>
					<g>
						<g>
							<defs>
								<rect id="SVGID_00000093895626746371297330000010610473853613287572_" x="32" y="21" width="430.5" height="233"/>
							</defs>
							<clipPath id="SVGID_00000100370333232665757840000013647175475404423101_">
								<use xlink:href="#SVGID_00000093895626746371297330000010610473853613287572_"  style="overflow:visible;"/>
							</clipPath>
							
								<path style="clip-path:url(#SVGID_00000100370333232665757840000013647175475404423101_);fill:#6D9AFF;stroke:#5282ED;stroke-width:0.7;" d="
								M135.3,211.4c-0.1,0-0.2-0.1-0.3-0.2c-0.1-0.2-0.1-0.2,1-2.1c0.4-0.8,1.3-2.3,2.5-4.2c1.7-2.9,4.1-6.8,5.5-8.6
								c2.8-3.6,6.4-5.4,6.5-5.4c0.1-0.1,0.3,0,0.4,0.1c0.1,0.1,0,0.3-0.1,0.4c0,0-3.6,1.8-6.3,5.2s-8.7,14-9,14.5
								c0,0.1-0.1,0.1-0.1,0.2C135.3,211.4,135.3,211.4,135.3,211.4z"/>
						</g>
					</g>
					<g>
						<g>
							<defs>
								<rect id="SVGID_00000154422757820136721750000010711170106381200802_" x="32" y="21" width="430.5" height="233"/>
							</defs>
							<clipPath id="SVGID_00000181046240110419305880000012049924955678689943_">
								<use xlink:href="#SVGID_00000154422757820136721750000010711170106381200802_"  style="overflow:visible;"/>
							</clipPath>
							<path style="clip-path:url(#SVGID_00000181046240110419305880000012049924955678689943_);fill:#4D2323;" d="M186.7,85.8h-0.1
								c-1.4-0.6-5.3-4.6-5.4-4.8c-0.1-0.1-0.1-0.3,0-0.4s0.3-0.1,0.4,0c0,0,3.9,4.1,5.3,4.6c0.1,0.1,0.2,0.2,0.1,0.4
								C186.9,85.8,186.8,85.8,186.7,85.8z"/>
						</g>
					</g>
					<g>
						<g>
							<defs>
								<rect id="SVGID_00000128480463810988088690000015810260375598143411_" x="32" y="21" width="430.5" height="233"/>
							</defs>
							<clipPath id="SVGID_00000124852151501124276130000016600271152351402902_">
								<use xlink:href="#SVGID_00000128480463810988088690000015810260375598143411_"  style="overflow:visible;"/>
							</clipPath>
							<path style="clip-path:url(#SVGID_00000124852151501124276130000016600271152351402902_);fill:#471B17;" d="M176.2,64.6
								c0.5-0.1,1.2-0.3,1.2-1c0-0.8-0.6-0.7-1.2-0.7c-0.1,0-0.3,0-0.3-0.1c-0.7-1.6-3-1.2-4.1-1.1c-0.6,0.1-1.2-0.1-1.3-1.4
								c-0.1-1,0-2.1,0-3.2c0-1.7-0.8-2.7-2.4-3.2c-5.2-1.6-7.7,0-10.1,4c-1.4,2.4-0.4,5.6,1.9,7.1c1.5,1,2.5,2.4,2.3,4.4
								C162.2,70.1,174.1,65.1,176.2,64.6z"/>
						</g>
					</g>
					<g>
						<g>
							<defs>
								<rect id="SVGID_00000059999388474583474510000010583049173541297554_" x="32" y="21" width="430.5" height="233"/>
							</defs>
							<clipPath id="SVGID_00000113322635510668873270000002635088292315991451_">
								<use xlink:href="#SVGID_00000059999388474583474510000010583049173541297554_"  style="overflow:visible;"/>
							</clipPath>
							<path style="clip-path:url(#SVGID_00000113322635510668873270000002635088292315991451_);fill:#4D2323;" d="M168.1,62.8
								c0.1,0,0.2-0.1,0.3-0.3c0.1-0.5,0.5-5-0.8-5.9c-0.9-0.6-3.4-1-5.3-0.3c-1.1,0.4-1.8,1.1-2,2.1c-0.2,0.9-0.1,1.7,0.3,2.3
								c0.8,1.2,2.3,1.4,2.4,1.4c0.2,0,0.3-0.1,0.3-0.2c0-0.2-0.1-0.3-0.2-0.3c0,0-1.4-0.2-2-1.2c-0.3-0.5-0.4-1.1-0.2-1.9
								c0.2-0.8,0.8-1.4,1.7-1.7c1.8-0.7,4.2-0.2,4.8,0.2c0.8,0.5,0.8,3.6,0.6,5.4C167.7,62.7,167.9,62.8,168.1,62.8
								C168,62.8,168,62.8,168.1,62.8z"/>
						</g>
					</g>
					<g>
						<g>
							<defs>
								<rect id="SVGID_00000114068311137151097470000012416576850320520591_" x="32" y="21" width="430.5" height="233"/>
							</defs>
							<clipPath id="SVGID_00000128451019788059136240000009248124398176928693_">
								<use xlink:href="#SVGID_00000114068311137151097470000012416576850320520591_"  style="overflow:visible;"/>
							</clipPath>
							<path style="clip-path:url(#SVGID_00000128451019788059136240000009248124398176928693_);fill:#F59E73;" d="M192.2,87.3
								c-0.1-1.2-0.2-2.5-0.3-3.7c-0.7-1.1-0.8-2.4-1-3.6c-1.4-8.5-11-12.6-16.9-11.3c-2.7,0.6-5.4,1.2-7.4,3.2
								c-4.4,4.3-6.2,9.6-6.1,15.7c0.1,6.3,2.5,11.9,5.7,17.2c2.1,3.5,9.8,10.6,16.8,4.7c0.2-0.2,0.7-0.8,1.2-1.3
								c0.6-0.6,1.3-1.2,1.5-1.5c2.3-3.4,3.8-7.1,5.1-11.1c0.8-2.4,1.1-4.7,1-7.2C191.8,88.2,191.5,87.6,192.2,87.3z"/>
						</g>
					</g>
					<g>
						<g>
							<defs>
								<rect id="SVGID_00000123435268088486797470000007450091643646685577_" x="32" y="21" width="430.5" height="233"/>
							</defs>
							<clipPath id="SVGID_00000044144113981546819550000005196078090601367730_">
								<use xlink:href="#SVGID_00000123435268088486797470000007450091643646685577_"  style="overflow:visible;"/>
							</clipPath>
							<path style="clip-path:url(#SVGID_00000044144113981546819550000005196078090601367730_);fill:#C45547;" d="M180.1,93.4
								c0.7,0.7,1.4,1.5,1.1,2.5c-0.1,0.5-0.4,0.9-0.8,1.2c-0.4,0.3-0.8,0.5-1.3,0.5c-0.1,0-0.2,0-0.2-0.1c-0.1-0.1-0.1-0.1-0.1-0.2
								s0-0.2,0.1-0.2c0-0.1,0.1-0.1,0.2-0.1c0.3,0,0.6-0.2,0.9-0.3c0.3-0.2,0.5-0.5,0.6-0.8c0.2-0.8-0.4-1.4-0.9-1.9
								C179.4,93.7,179.8,93.1,180.1,93.4z"/>
						</g>
					</g>
					<g>
						<g>
							<defs>
								<rect id="SVGID_00000028306692035280285710000011428745014583445396_" x="32" y="21" width="430.5" height="233"/>
							</defs>
							<clipPath id="SVGID_00000183950239108011318150000000344089986863230338_">
								<use xlink:href="#SVGID_00000028306692035280285710000011428745014583445396_"  style="overflow:visible;"/>
							</clipPath>
							<path style="clip-path:url(#SVGID_00000183950239108011318150000000344089986863230338_);fill:#C45547;" d="M178.6,96.5
								c-0.3-0.1-0.5-0.2-0.8-0.2s-0.6,0-0.8,0.2c-0.1,0-0.2,0-0.2,0c-0.1,0-0.1-0.1-0.2-0.2c0-0.1,0-0.2,0-0.2
								c0-0.1,0.1-0.1,0.1-0.2c0.7-0.3,1.4-0.3,2.1,0c0.1,0,0.1,0.1,0.2,0.2c0,0.1,0,0.2,0,0.2c0,0.1-0.1,0.1-0.2,0.2
								C178.8,96.5,178.7,96.5,178.6,96.5z"/>
						</g>
					</g>
					<g>
						<g>
							<defs>
								<rect id="SVGID_00000180361871132960485340000005173307492073999019_" x="32" y="21" width="430.5" height="233"/>
							</defs>
							<clipPath id="SVGID_00000170261676458969991300000009738176620444671107_">
								<use xlink:href="#SVGID_00000180361871132960485340000005173307492073999019_"  style="overflow:visible;"/>
							</clipPath>
							<path style="clip-path:url(#SVGID_00000170261676458969991300000009738176620444671107_);fill:#471B17;" d="M172.5,83.8
								c-1.2,0.2-2.3,0.3-3.3,1c-0.4,0.3-0.8,0.6-0.6,1.1c0.2,0.6,0.7,0.3,1.1,0.2c1.4-0.4,2.9-0.4,4.3,0c0.3,0.1,0.5,0.2,0.8,0.2
								c0.6,0,1.2-0.2,1.4-0.8c0.2-0.6-0.3-1-0.8-1.2C174.5,83.7,173.5,83.7,172.5,83.8z"/>
						</g>
					</g>
					<g>
						<g>
							<defs>
								<rect id="SVGID_00000080905529819568052730000008401274297867064217_" x="32" y="21" width="430.5" height="233"/>
							</defs>
							<clipPath id="SVGID_00000098899739863925984110000006083625036441005465_">
								<use xlink:href="#SVGID_00000080905529819568052730000008401274297867064217_"  style="overflow:visible;"/>
							</clipPath>
							<path style="clip-path:url(#SVGID_00000098899739863925984110000006083625036441005465_);fill:#471B17;" d="M190,87.9
								c-0.2-0.7-2.1-2.6-3.9-2.9c-1.8-0.3-1.7-0.3-2.5,0.1c-0.4,0.2-0.6,0.7-0.4,1.1c0.2,0.4,0.6,0.5,1,0.5
								C186.1,86.8,188.1,86.9,190,87.9z"/>
						</g>
					</g>
					<g>
						<g>
							<defs>
								<rect id="SVGID_00000140711189878389710760000005132404272931374991_" x="32" y="21" width="430.5" height="233"/>
							</defs>
							<clipPath id="SVGID_00000010271984430035650750000003470745990502648202_">
								<use xlink:href="#SVGID_00000140711189878389710760000005132404272931374991_"  style="overflow:visible;"/>
							</clipPath>
							<path style="clip-path:url(#SVGID_00000010271984430035650750000003470745990502648202_);fill:#4D2323;" d="M189.3,77.1
								c0.1,0,0.1,0,0.2-0.1c0.1-0.1,0.1-0.3,0-0.4c0,0-0.1-0.1-0.1-0.2c-2.9-3.7-10.3-12.5-16.8-13c-2-0.1-3.7,0.5-5.1,1.9
								c-0.1,0.1-0.1,0.3,0,0.4s0.3,0.1,0.4,0c1.3-1.3,2.9-1.9,4.7-1.8c6.4,0.5,14.1,9.9,16.4,12.7c0,0.4,0,0.4,0,0.5
								C189.1,77.1,189.2,77.1,189.3,77.1z"/>
						</g>
					</g>
					<g>
						<g>
							<defs>
								<rect id="SVGID_00000023988975517912161260000002530201680912643499_" x="32" y="21" width="430.5" height="233"/>
							</defs>
							<clipPath id="SVGID_00000000217471120101890700000009512633773639571588_">
								<use xlink:href="#SVGID_00000023988975517912161260000002530201680912643499_"  style="overflow:visible;"/>
							</clipPath>
							<path style="clip-path:url(#SVGID_00000000217471120101890700000009512633773639571588_);fill:#471B17;" d="M195.4,97.7
								c1.5-1.1,2.1-3.2,3.2-4.7c2.7-3.6,2.2-10.8-0.7-13.5c-0.6-0.5-0.9-1.2-1.1-1.9c-1.6-5.1-4.6-9-9.1-11.8
								c-3.8-2.3-7.9-3.5-12.2-4c-2.1-0.3-5.4,0.3-7.4,1c-1.4,0.5-1.5,1.4-2.9,2c-0.4,0.2-0.8,0.5-1.3,0.2s-0.9,0.1-1.3,0.4
								c-1.5,1.1-2.4,2.7-3.4,4.2c-0.9,1.5-1.8,3.1-2.4,4.8c-1.1,2.6-2.2,5.2-3.8,7.6c-1.5,2.2-1.6,4.6-0.6,7.2
								c1.4,3.7,3.7,6.7,7.5,8.2c1.1,0.5,2.3,0.5,3.5,0.3c0.3-0.1,0.7-0.1,0.7-0.5c0-0.5-0.4-0.4-0.7-0.4c-1.4,0.1-1.5-0.6-1.7-1.8
								c-0.2-1.6,0.1-3.1,0-4.7c0-0.2,0.1-0.4,0.2-0.6c2.6-3,4-6.7,6.1-10c1-1.5,2-3,3-4.5c0.6-0.8,1.4-1.1,2.2-0.5
								c5.4,4.3,10.8,8.6,15.4,13.8c1.8,2.1,2.7,4.6,2,7.4c-0.4,1.6,2.3,0.7,2.9,0.3c0.4-0.3,0.8-0.7,1.2-0.7c0.2,0,0.3,0.1,0.2,0.3
								c-0.2,0.5-0.6,0.9-0.9,1.3c-0.8,1.2-2,1.6-3.4,1.8c-0.2,0-0.7-0.1-0.9,0C189,99.4,191.2,100.8,195.4,97.7z M193,72.2
								c-0.4-0.4,0.5,0.1,0.7,0.4c0.3,0.4,0.5,0.9,0.7,1.4c0.2,0.4,0.7,0.8,0.8,1.2C195.4,75.7,193.7,72.8,193,72.2z M196.6,79.9
								c0.9,0.7,2.3,2.1,2,3.4C198.6,83.6,196.1,79.5,196.6,79.9z"/>
						</g>
					</g>
					<g>
						<g>
							<defs>
								<rect id="SVGID_00000089570609666853919500000004673081774048321173_" x="32" y="21" width="430.5" height="233"/>
							</defs>
							<clipPath id="SVGID_00000181050755707208627650000000675671918226814131_">
								<use xlink:href="#SVGID_00000089570609666853919500000004673081774048321173_"  style="overflow:visible;"/>
							</clipPath>
							<path style="clip-path:url(#SVGID_00000181050755707208627650000000675671918226814131_);fill:#4D2323;" d="M162.3,66.1
								c0.1,0,0.1,0,0.2-0.1c1.7-1.6,3.9-2.5,5.4-2.9c1.6-0.4,2.9-0.5,2.9-0.5c0.2,0,0.3-0.1,0.3-0.3S171,62,170.8,62
								c-0.1,0-1.3,0.1-3,0.5c-1.6,0.4-3.8,1.3-5.6,3c-0.1,0.1-0.1,0.3,0,0.4C162.2,66.1,162.2,66.1,162.3,66.1z"/>
						</g>
					</g>
					<g>
						<g>
							<defs>
								<rect id="SVGID_00000068664832785433810730000005573475561961893044_" x="32" y="21" width="430.5" height="233"/>
							</defs>
							<clipPath id="SVGID_00000018937607552143850210000010665944401322786983_">
								<use xlink:href="#SVGID_00000068664832785433810730000005573475561961893044_"  style="overflow:visible;"/>
							</clipPath>
							<path style="clip-path:url(#SVGID_00000018937607552143850210000010665944401322786983_);fill:#632424;" d="M184.5,90.4
								c0.1,0.4,0.1,1,0.6,1c0.5,0.1,0.7-0.4,0.9-0.8c0.3-0.7,0.3-1.3-0.2-1.9c-0.2-0.2-0.4-0.3-0.6-0.1
								C184.5,89.1,184.4,89.8,184.5,90.4z"/>
						</g>
					</g>
					<g>
						<g>
							<defs>
								<rect id="SVGID_00000142160730680400101570000004967788960441951409_" x="32" y="21" width="430.5" height="233"/>
							</defs>
							<clipPath id="SVGID_00000181082714046337112500000006725889773323352967_">
								<use xlink:href="#SVGID_00000142160730680400101570000004967788960441951409_"  style="overflow:visible;"/>
							</clipPath>
							<path style="clip-path:url(#SVGID_00000181082714046337112500000006725889773323352967_);fill:#632424;" d="M171.5,89.2
								c0,0.3,0.1,0.6,0.2,0.9c0.1,0.3,0.3,0.5,0.6,0.4c0.9-0.1,0.9-0.9,0.9-1.6c0-0.6-0.1-1.4-0.9-1.3
								C171.6,87.7,171.4,88.5,171.5,89.2z"/>
						</g>
					</g>
					<g>
						<g>
							<defs>
								<rect id="SVGID_00000152987057024986861110000006917182503816345233_" x="32" y="21" width="430.5" height="233"/>
							</defs>
							<clipPath id="SVGID_00000013877031792306573540000006482277797032927878_">
								<use xlink:href="#SVGID_00000152987057024986861110000006917182503816345233_"  style="overflow:visible;"/>
							</clipPath>
							<path style="clip-path:url(#SVGID_00000013877031792306573540000006482277797032927878_);fill:#FFFFFF;" d="M173.1,100.9
								c-0.2-0.5,2.4,0.2,2.9,0.3c2.6,0.7,3.3,0.6,5.6,0.5c0.4,0,0.8,0.2,0.5,0.7c-0.1,0.3-0.5,1.6-3.4,1.5
								C176.6,103.8,173.4,101.6,173.1,100.9z"/>
						</g>
					</g>
					<g>
						<g>
							<defs>
								<rect id="SVGID_00000144321402588550022800000015974862716994909071_" x="32" y="21" width="430.5" height="233"/>
							</defs>
							<clipPath id="SVGID_00000083794596349518257320000005671792488934341785_">
								<use xlink:href="#SVGID_00000144321402588550022800000015974862716994909071_"  style="overflow:visible;"/>
							</clipPath>
							<path style="clip-path:url(#SVGID_00000083794596349518257320000005671792488934341785_);fill:#F59E73;" d="M157.7,89.9
								c0.8,3,1.6,6,4.3,8.2c0.8,0.6,1,1,1.7,0.7c0.8-0.3,0.6-1.2,0.5-1.8c-0.2-2.4-1.2-4.5-2.2-6.6c-0.4-0.7-0.5-1.5-1.2-2
								c-0.7-0.6-1.4-1.2-2.4-0.7C157.6,88.2,157.6,89.1,157.7,89.9z"/>
						</g>
					</g>
					<g>
						<g>
							<defs>
								<rect id="SVGID_00000103968566459443357300000005619821134898816654_" x="32" y="21" width="430.5" height="233"/>
							</defs>
							<clipPath id="SVGID_00000158030573358698337440000010797652752364946325_">
								<use xlink:href="#SVGID_00000103968566459443357300000005619821134898816654_"  style="overflow:visible;"/>
							</clipPath>
							<path style="clip-path:url(#SVGID_00000158030573358698337440000010797652752364946325_);fill:#A33F32;" d="M162.4,94.1
								C162.4,94.1,162.5,94.1,162.4,94.1c0.2-0.1,0.3-0.2,0.2-0.4c0-0.1-0.8-1.9-1.7-3.1c-0.7-0.9-1.5-1.3-2.1-1.1
								c-0.2,0-0.2,0.2-0.2,0.4c0,0.1,0.2,0.2,0.4,0.2c0.5-0.2,1.1,0.4,1.5,0.9c0.9,1.2,1.7,3,1.7,3C162.2,94,162.3,94.1,162.4,94.1
								z"/>
						</g>
					</g>
					<g>
						<g>
							<defs>
								<rect id="SVGID_00000145772466875979119260000017345251286547417780_" x="32" y="21" width="430.5" height="233"/>
							</defs>
							<clipPath id="SVGID_00000002358494482519716130000017032875384360035728_">
								<use xlink:href="#SVGID_00000145772466875979119260000017345251286547417780_"  style="overflow:visible;"/>
							</clipPath>
							<path style="clip-path:url(#SVGID_00000002358494482519716130000017032875384360035728_);fill:#A33F32;" d="M159.4,92.5
								c0.2,0,0.3-0.1,0.3-0.3c0-0.4,0.1-0.7,0.2-0.8c0.2-0.1,0.4-0.2,0.7-0.1h0.1c0.2,0,0.3-0.1,0.3-0.3c0-0.1-0.1-0.2-0.3-0.3
								c-0.5-0.1-0.9,0-1.2,0.2c-0.3,0.3-0.5,0.7-0.4,1.3C159.1,92.3,159.2,92.5,159.4,92.5L159.4,92.5z"/>
						</g>
					</g>
					<g>
						<g>
							<defs>
								<rect id="SVGID_00000023997594612169775670000014834921515303932319_" x="32" y="21" width="430.5" height="233"/>
							</defs>
							<clipPath id="SVGID_00000057146687856400160710000003899999043645298596_">
								<use xlink:href="#SVGID_00000023997594612169775670000014834921515303932319_"  style="overflow:visible;"/>
							</clipPath>
							<path style="clip-path:url(#SVGID_00000057146687856400160710000003899999043645298596_);fill:#471B17;" d="M161.3,88.6
								c0.1,1.8,0.7,3.3,1.3,5.3c0.3,1,0.2,2-0.4,2.9c-1.9,2.8-1.7,5.7-0.3,8.6c0.5,1,1,1.9,1.6,2.9c0.2,0.4,0.9,0.7,1,0.6
								c0-0.1-0.2-0.3-0.4-0.7c-0.8-1.3-0.9-3.2-1.3-4.7c-0.5-1.8-0.4-3.6,0.7-5.2c1.4-2,1.2-3.9,0.6-6c-0.7-2.6-0.9-3-0.3-5.6
								c0.1-0.5,0.8-0.1,0.3-0.3c-0.6-0.3-1.4,0.8-1.7,1.3C161.4,88.9,161.2,87.1,161.3,88.6z"/>
						</g>
					</g>
					<g>
						<g>
							<defs>
								<rect id="SVGID_00000172433370622058726980000000468876583341855920_" x="32" y="21" width="430.5" height="233"/>
							</defs>
							<clipPath id="SVGID_00000116932888207278239860000013681686039551254951_">
								<use xlink:href="#SVGID_00000172433370622058726980000000468876583341855920_"  style="overflow:visible;"/>
							</clipPath>
							
								<path style="clip-path:url(#SVGID_00000116932888207278239860000013681686039551254951_);fill:#C45547;stroke:#C45547;stroke-width:0.24;" d="
								M180.8,195.3c-0.1,0-0.2-0.1-0.3-0.2c0-0.2,0-0.3,0.2-0.4c0.2-0.1,1.4-0.2,4.4-0.6c0.9-0.1,1.8-0.2,2.8-0.4
								c1-0.1,6.9-1.2,7-1.2c0.2,0,0.3,0.1,0.3,0.2c0,0.2-0.1,0.3-0.2,0.3c-0.2,0-6,1.1-7,1.2c-0.9,0.1-1.9,0.2-2.8,0.4
								C183,195,181,195.3,180.8,195.3L180.8,195.3z"/>
						</g>
					</g>
				</g>
			</g>
		</g>
		<g>
			<defs>
				<rect id="SVGID_00000181076751977722527240000016333504179418007951_" width="494.5" height="254"/>
			</defs>
			<clipPath id="SVGID_00000011734048568095298720000010077401670866883505_">
				<use xlink:href="#SVGID_00000181076751977722527240000016333504179418007951_"  style="overflow:visible;"/>
			</clipPath>
			<g style="clip-path:url(#SVGID_00000011734048568095298720000010077401670866883505_);">
				<rect x="410.5" y="264.6" class="st64" width="48" height="13"/>
			</g>
		</g>
		<g>
			<defs>
				<rect id="SVGID_00000087385914359860732550000008843966987440347568_" width="494.5" height="254"/>
			</defs>
			<clipPath id="SVGID_00000001626894954310751810000013285554868998746792_">
				<use xlink:href="#SVGID_00000087385914359860732550000008843966987440347568_"  style="overflow:visible;"/>
			</clipPath>
		</g>
	</g>
</g>
<g>
	<path class="st13" d="M285,78.7c0.1-9.8-8-17.9-17.7-18l0.1-9.6c15.1,0.3,27.2,12.6,27.4,27.6c0.1,4.8-1.2,9.2-3.3,13.1l-8.6-4.5
		C284.1,84.7,284.9,81.8,285,78.7z"/>
	<path class="st14" d="M267.4,96.7c6.9,0,12.8-3.8,15.8-9.5l8.6,4.5c-4.7,8.6-13.8,14.5-24.3,14.5c-9.8,0-18.6-5.1-23.4-12.9
		l8.2-5.1C255.2,93.3,260.9,96.7,267.4,96.7L267.4,96.7z"/>
	<path class="st65" d="M249.7,82.1c0.4,2.2,1.3,4.3,2.5,6.1l-8.2,5.1c-2.4-3.8-3.8-8-4.1-12.8c-0.1-0.6-0.1-1.3-0.1-1.9
		c-0.1-4.1,0.9-8.1,2.5-11.6c0.8-1.7,1.7-3.3,2.8-4.8l5.4,4l2.5,1.7c-1.4,1.9-2.4,4.1-3,6.6c-0.3,1.3-0.4,2.7-0.5,4.1
		C249.4,79.9,249.5,81,249.7,82.1z"/>
	<path class="st66" d="M267.3,60.7c-5.9,0-11.1,2.9-14.4,7.3l-2.5-1.8l-5.4-4c5-6.9,13.1-11.3,22.2-11.3h0.4l-0.1,9.6L267.3,60.7
		L267.3,60.7z"/>
</g>
<rect x="344.7" y="54.7" class="st65" width="56.2" height="56.2"/>
<rect x="344.7" y="122.1" class="st14" width="56.2" height="56.2"/>
<polyline class="st67" points="295.4,65.6 305.7,55.4 334.9,55.4 "/>
<polyline class="st67" points="295.4,99.5 305.7,109.8 334.9,109.8 "/>
<line class="st67" x1="300.8" y1="81.4" x2="334" y2="81.4"/>
<path class="st68" d="M376.7,63.9l18.4,31.4c1.5,2.5-0.3,5.7-3.3,5.7H355c-2.9,0-4.7-3.2-3.3-5.7l18.4-31.4
	C371.6,61.4,375.2,61.4,376.7,63.9z"/>
<line class="st69" x1="373.4" y1="72.6" x2="373.4" y2="88.4"/>
<line class="st69" x1="373.4" y1="94.3" x2="373.4" y2="94.5"/>
</svg>
