<?xml version="1.0" encoding="utf-8"?>
<!-- Generator: Adobe Illustrator 28.2.0, SVG Export Plug-In . SVG Version: 6.00 Build 0)  -->
<svg version="1.1" id="Layer_1" xmlns="http://www.w3.org/2000/svg" xmlns:xlink="http://www.w3.org/1999/xlink" x="0px" y="0px"
	 viewBox="0 0 617 400" style="enable-background:new 0 0 617 400;" xml:space="preserve">
<style type="text/css">
	.st0{fill:#282936;}
	.st1{fill:#F69F81;}
	.st2{fill:#693636;}
	.st3{fill:#FADDD2;}
	.st4{fill:#38100A;}
	.st5{fill:#B3504B;}
	.st6{fill:#5B5A7D;}
	.st7{fill:#080911;}
	.st8{fill:#FFE6DB;}
	.st9{fill:#F7BE63;}
	.st10{fill:#FFFFFF;}
	.st11{fill:#E9EAF2;}
	.st12{fill:#D8DAE6;}
	.st13{fill:url(#SVGID_1_);}
	.st14{fill:url(#SVGID_00000031177800345043758580000017674574517563030947_);}
	.st15{fill:#F0ECE8;}
	.st16{fill:none;stroke:#38100A;stroke-width:0.5;stroke-linecap:round;stroke-linejoin:round;stroke-miterlimit:10;}
	.st17{fill:#DDD8D3;}
	.st18{fill:none;stroke:#F0ECE8;stroke-width:2;stroke-linecap:round;stroke-linejoin:round;stroke-miterlimit:10;}
	.st19{fill:#FFFFFF;stroke:#9CB6FF;stroke-width:2;stroke-linecap:round;stroke-linejoin:round;stroke-miterlimit:10;}
	.st20{fill:#F0ECE8;stroke:#9CB6FF;stroke-width:2;stroke-linecap:round;stroke-linejoin:round;stroke-miterlimit:10;}
	.st21{fill:#9CB6FF;}
	.st22{fill:none;stroke:#FF725E;stroke-width:2;stroke-miterlimit:10;}
	.st23{fill:#212333;}
	.st24{fill:#FF725E;}
	.st25{fill:#ED5500;}
	.st26{fill:#FFD545;}
	.st27{fill:#FDF6B4;}
	.st28{fill:#31DD83;}
	.st29{fill:none;stroke:#ED5500;stroke-width:5;stroke-linecap:round;stroke-linejoin:round;}
	.st30{fill:none;stroke:#ED5500;stroke-width:5;stroke-linecap:round;stroke-linejoin:round;stroke-dasharray:0.5182,10.3646;}
	.st31{fill:none;stroke:#ED5500;stroke-width:5;stroke-linecap:round;stroke-linejoin:round;stroke-dasharray:0.5346,10.6917;}
	.st32{fill:#FF9166;}
	.st33{fill:#8080BC;}
	.st34{fill:#4F5161;}
	.st35{fill:#A65224;}
	.st36{fill:#C44A2D;}
	.st37{fill:none;stroke:#9CB6FF;stroke-width:2;stroke-linecap:round;stroke-linejoin:round;stroke-miterlimit:10;}
	.st38{fill:#FFFFFF;stroke:#FF725E;stroke-width:2;stroke-linecap:round;stroke-linejoin:round;stroke-miterlimit:10;}
	.st39{fill:none;stroke:#4F5161;stroke-miterlimit:10;}
	.st40{fill:none;stroke:#54597F;stroke-width:0.75;stroke-linecap:round;stroke-linejoin:round;stroke-miterlimit:10;}
	.st41{fill:none;stroke:#C44A2D;stroke-width:0.75;stroke-linecap:round;stroke-linejoin:round;stroke-miterlimit:10;}
	.st42{fill:#A3A4AD;}
	.st43{fill:#1A1284;}
	.st44{fill:#CF533E;}
</style>
<g>
	<g>
		<path class="st0" d="M476.2,157.8c0.2,0.3,2,7.8,4.3,11c1.4,1.9,3,3.7,4.2,5.6c0.9,1.4,1.3,2.6,1.1,4.2c0,0.2,1.8,4.9,4,5.5
			s3.5-0.8,4.6-2.5c0.9-1.4,2-2.1,3.4-2.8c0.7-0.3,1.5-0.6,2.1-1.1c0.1-0.1,0.3-0.1,0.4-0.1c3.3,0.1,6.7-0.8,7.5-4.6
			c0.6-2.8-0.2-6.7-2.7-8.1c-0.3-0.2-0.4-0.5-0.3-0.9c1-2,0.2-4.6-1.2-6.5c-1.8-2.6-4.4-4.9-7.5-4.5c-0.3,0-0.7-0.2-0.7-0.5
			c-0.4-2.2-2.3-4-5.2-3.8c-1.5,0.1-3.3,1-5.1,1.5c-0.3,0.1-0.6,0-0.9-0.2c-0.7-0.7-1.6-1-2.7-0.6c-0.6,0.2-1.3,0.5-2,0.9
			C476.9,151.9,474.5,154.9,476.2,157.8z"/>
		<path class="st1" d="M494.7,202.5c-4.8,4-11.8,4.3-17.1,1.2c-3.8-2.2-7.3-5.9-8.8-10.1c-0.1-0.4,0.2-0.8,0.6-0.8c0.8,0,1.5,0,2,0
			c2.1-0.2,3.6,0,5.6-3c0.5-0.8,1.3-0.2,2.2-0.3c1.4-0.1,2.8,0.6,4.1,1c1.9,0.5,3.9,0.7,5.9,0.7c0.2-0.3,0.5-0.4,0.8-0.2
			c0.8,0.4,1.6,0.5,1.4,0.6c-0.5,2.2,0.6,3.1,2.6,3.8c1.3,0.4,2.6,1.2,3.9,1.6c0.6,0.1,0.9,0.8,0.6,1.4
			C497.4,199.8,496.2,201.3,494.7,202.5z"/>
		<path class="st2" d="M523.2,268c0.7,0.1,1.7-0.2,2.2-0.6c1.6-1.1,2.9-2.7,3.7-4.4c0.1,0.2,0.4,0.2,0.4-0.1
			c-0.1-1.6-2.6-1.2-3.6-0.9c-1.6,0.6-2.7,2-2.8,3.7C523,266.3,522.5,267.9,523.2,268z"/>
		<path class="st1" d="M490.8,197.5c-2.5,1.3-5.9,1.8-8.1,1.7c-2.8-0.1-6.4-1.5-7.8-4.2c0.7-1.8,1.4-3.6,2-5.3c1-2.9,2.8-6.4,1.3-9
			c-0.1-0.2-0.1-0.3,0-0.5c0-0.1,0-0.3,0.2-0.5c4.5-6.3,11.3-10.5,18.9-11.9c0.6-0.1,1,0.3,1,0.8c0.3,0.2,1.2-0.4,1,0
			c-0.7,2.5-2.1,5.5-3.1,7.8c-1.2,2.8-2.6,5.6-3.4,8.6C491.2,190.8,490.8,194.8,490.8,197.5z"/>
		<path class="st1" d="M469.3,171.7c0.1,0.7,0.7,1.2,1.4,1.6c0.3,0.2,0.5,0.6,0.5,1c0,0.3-0.1,0.5-0.1,0.8c-0.1,0.5-0.2,1.1-0.3,1.7
			c-0.4,2.9-0.5,5.7,0.9,6.7c3.3,2.6,9.8,2.3,13.6,1.1c2-0.6,4-3,4.7-4.8c0.1-0.3,0.3-0.5,0.6-0.6c2-0.7,3.7-2,5-3.7
			c2-2.6,3.9-5.9,4.2-9.2c1.3-12-16.4-16.2-23.5-8.3c-2.4,2.7-3.8,6.3-4.1,10.6c0,0.3-0.2,0.5-0.4,0.6c-0.5,0.3-1.1,0.7-1.6,1
			C469.7,170.6,469.2,171,469.3,171.7z"/>
		<path class="st3" d="M425.4,275.9c13.7,2.8,27.7,3.8,41.6,2.9c0.5,0,0.8-0.3,0.9-0.7c4.1-2,5.6-7.8,7.4-11.7c0.6-1.4,2.6-4,1-5.3
			c-0.8-0.7-2.1-0.9-3-1.2c-1.4-0.4-2.9-0.8-4.4-1.1c-6-1.2-11.9-1.9-17.7-3.8c-5.5-1.8-11.1-3.8-17-3.1c-0.1,0-0.2,0.1-0.3,0.1
			c-0.4-0.4-0.1-0.3-0.5,0.4c-3.6,7.1-7.3,14.3-8.7,22.1C424.6,275.2,424.8,275.8,425.4,275.9z"/>
		<path class="st2" d="M427.4,276.8c1.1-4.2,2.3-8.4,3.7-12.5c0-0.1,0.1-0.1,0.1-0.1c0.5-1.5,0.9-3.1,1.4-5
			c0.4-1.8,4.8-13.3,3.9-14.3c-0.3-0.4-0.5-1-0.2-1.6c1.2-2.9,4.3-3.2,7.2-2.6c0.3,0,0.5,0,0.8-0.1c0.3-0.2,0.6-0.3,1.1-0.2
			c11.7,2.2,23.5,4.3,35.1,6.9c1.8,0.4,3.6,1.2,4.3,3.1c0.8,2.2-0.1,5-0.5,7.2c-0.3,2.3-0.7,4.5-1.1,6.8c0,0.1,0,0.4,0.1,0.5
			c7.4,18.7,9.5,49.5,9.6,52.4c0.3,5.2,0.3,5.2-1.5,5.5c-1,0.1-15.4,0.9-28.5,0.6c-0.5,0-0.7-0.4-1-0.8c-1.4-2.5-4.4-13.6-5.4-19.4
			c0-0.2-0.3-0.2-0.4,0c-0.8,2.6-3.8,12.6-6,19.2c-0.1,0.4-0.5,0.7-1,0.7c-10-0.3-18-0.6-18.5-0.6c0,0,0,0-0.1,0
			c-1.6,0-3.2,0.1-4.9,0.1c-1.5,0-3.3,0.3-4.5-0.6C419.2,320.7,423.9,290,427.4,276.8z"/>
		<path class="st1" d="M520.7,263.3c0.5,0.7,1.2,0.7,2,0.7c2.1,0.1,4.2,0.2,6.3,0.3c6.6,0.3,14.7,1,19.8-4.2
			c0.2-0.2,0.2-0.4,0.1-0.6l0.1-0.1c0.2-0.2,0.2-0.4,0.1-0.6c-0.5-1.7-3.4-1.3-4.7-1.6c-2.8-0.7-5.5-1.8-8.3-2.5
			c-0.1-0.2-0.3-0.3-0.6-0.3c-4.3,0.6-8.5,0.5-12.7-0.3c-0.6-0.1-0.9,0.5-0.7,0.9c0,0,0,0,0,0.1c-0.8,1.5-1.3,3-1.6,4.7
			C520.5,260.8,520.1,262.5,520.7,263.3z"/>
		<path class="st2" d="M488.5,252.9c0.3,4.1,2.3,8.6,7,10.3c4.3,1.6,8.9-0.4,11.6-3.5c3.5-4,3.6-9.2,3.7-14
			c0.1-6.2,1.3-12.1,2.7-18.1c1.2-5.5,2.6-9.9,2.5-15.5c-0.1-4.1-2.4-7-6.1-9.6c-0.2-0.1-5.7-4-8.3-0.7c-1.8,2.3-2.9,5.2-3.9,7.8
			c-1.3,3.2-2.4,6.4-3.4,9.6c-1.8,5.7-3.1,11.6-4.1,17.5C489.1,241.8,488.1,247.5,488.5,252.9z"/>
		<path class="st3" d="M435.3,270.8c0.4,3.1,0.8,7,2.3,9.8c1.3,2.2,5.2,3.3,7.5,4c7.1,2.3,36.7,0.5,44.1,1.6
			c0.4,0.1,0.7-0.3,0.8-0.6c1.3-9.8,1.1-19.8-0.5-29.6c0.7-0.1,0.7-1.3-0.1-1.2c-18.2,1.5-35.7-5.3-53.5-7.4c-0.4,0-0.6,0.3-0.6,0.6
			C434.8,255.5,434.4,263.2,435.3,270.8z"/>
		<path class="st2" d="M489.4,256.2c1-2.7,2.4-5.1,4.1-7.4c4.2-5.5,9.4-5.4,15.2-9c0.1-1,3.7-8.1,3.5-7.1
			c-0.5,2.9-2.7,14.6-0.1,16.1c1.8,1.1,11.3,2.3,18.6,3.6c0.3,0,0.4,0.4,0.2,0.6c-0.4,0.5-4.4,4.9-6.1,12.7
			c-0.1,0.6-0.3,1.2-0.5,1.7c-0.1,0.4-0.4,0.6-0.8,0.6c-1.2-0.1-27.7,0.7-33.9-5.3C487.5,260.7,488.7,258.1,489.4,256.2z"/>
		<g>
			<path class="st4" d="M508.2,226.5c-1.1,2.7-2.3,5.4-3.3,8.1c-1.2,3.1-2.1,6.3-3,9.5c-1.9,6.8-3.5,13.7-6.7,20
				c-0.1,0.2-0.5,0-0.3-0.2c3.2-6.4,4.9-13.4,6.7-20.3c0.9-3.1,1.7-6.2,2.9-9.2c1.1-2.7,2.2-5.4,3.3-8.1
				C508,226.2,508.3,226.3,508.2,226.5L508.2,226.5z"/>
		</g>
		<path class="st2" d="M427.2,262.4c1.2,1.3,4.2,4.6,5.8,5.3c1.9,0.8,3.8,1.6,5.7,2.2c2.7,1,5.5,1.8,8.4,2.5
			c21.7,4.9,42.2,2.8,43.7,2.2c1.4-0.5,1.8-2.4,2.3-3.8c2.4-7.1,4.4-14.3,5.9-21.6c0.6-2.1,1.2-4,1.7-5.5c1.2-3.6,2.1-7.6,3.5-11.4
			c1.1-3,2.4-5.9,4.3-8.3c0.7-0.8,1.3-1.7,1.9-2.6c1.2-1.7,4.3-0.9,4.9-2.9c2.2-7.8-1.4-16.5-7.9-19.9c-4.5-2.3-9.4-3.7-14.3-4.3
			c0,0,0,1.1-0.5,1.7c-0.6,0.9-4,3.7-8.9,3.4c-3.7-0.2-7.5-3.2-9.3-7.4c-0.2-0.5-0.6-0.8-1.1-0.8c-2.8-0.3-12-1.1-16.8-0.1
			c-3.6,0.7-8.2,4.4-10.2,7.4c-2.2,3.3-4.1,6.7-5.8,10.3c-3.8,7.9-5.7,16.4-7.8,26.1c-0.3,1-0.6,2-0.8,3c-1.2,4.3-2.3,8.7-3.3,13
			c-0.5,2.2-1,4.5-1.5,6.8C426.7,259.2,426,261.1,427.2,262.4z"/>
		<path class="st1" d="M546.6,261.7c1.7-0.8,3.4-2.4,4.9-3.5c1.1-0.8,2.4-1.2,3.6-1.9c0.8-0.5,1.4-1.6,0.2-2c-1.4-0.5-3,0.2-4.2,1
			c-0.1,0.1-0.1,0.2-0.1,0.3c-1.9,1.2-3.5,2.8-4.8,4.7C546.1,260.3,546.5,261.8,546.6,261.7z"/>
		<path class="st2" d="M461.4,255.1c0.4,1.3,1.9,2,2.9,1c2.9-2.8,4.5-8,4.2-8.1c-0.1-0.1-0.1-0.1-0.2-0.2c-1.9-0.8-3.8,0.8-5.3,2
			C461.7,250.9,460.9,253.5,461.4,255.1z"/>
		<g>
			<path class="st4" d="M463.4,290.9c-1.3,0.3-2.7,0.5-3.6,1.6c-0.8,0.9-1.3,1.8-1.6,3c-0.6,2.2-1,4.5-1.5,6.7
				c-0.1,0.2-0.4,0.1-0.4-0.1c0.5-2.5,1-5,1.7-7.4c0.3-1,0.9-1.9,1.7-2.7c1-0.9,2.3-1.2,3.6-1.5
				C463.5,290.5,463.6,290.8,463.4,290.9L463.4,290.9z"/>
		</g>
		<path class="st3" d="M467.4,253c1.4-0.9,2-2.9,2-3.1c-0.3-0.7-1.1-1-1.8-0.5c-0.7,0.5-2.4,2.6-2.5,3.4
			C465.1,253.3,466.7,253.4,467.4,253z"/>
		<path class="st1" d="M460.4,250.6c7.6,0.3,16.8-1.4,19.1-1.8c0.2,0,0.3,0,0.5,0.1c1.8,0.8,4.8,1.3,6.4,1.1s3.4-1,4.8-1.7
			c1.7-0.8,3.4-1.7,5.1-2.5c1.6-0.8-0.4-2.4-1.4-2.4c-1.2,0-2.3,0.3-3.4,0.6s-1.8-0.2-2-1c0.9,0.1,1.6-0.7,1.5-1.7
			c0-0.6-0.2-1.3-0.5-1.9c0.5,0.3,0.9,0.5,1.3,0.8c0.9,0.6,1.8,1.7,2.9,1.9c1.8,0.2,2.1-1.4,1.5-2.7c-0.4-0.8-0.9-1.7-1.5-2.6
			c1.3,0.6,2.3,1.9,3.4,3c0.7,0.7,1.7,1.9,2.7,1.3c1-0.6,0.6-2,0.2-2.8c-1.4-2.8-3.5-6.7-7.1-6.7c-1.7,0-3.4,0.7-4.9,1.3
			c-2.3,1-4.5,2-6.8,3c-0.1,0-0.2,0.1-0.2,0.1c-4.6,1.6-8.3,3.7-13.7,4.1C467.4,240.1,459.9,250.6,460.4,250.6z"/>
		<path class="st3" d="M462,252.8c0,0.3,0,0.4,0.3,0.6c0.4,0.3,1.3,0,1.7,0c0.8-0.1,1.9,0,2.7-0.2c0.4-0.1,0.5-0.2,0.6-0.6
			c0.3-0.8,1.5-9.8,5.5-13.1c0.1-0.1-0.5-0.4-0.6-0.5c-0.7-0.1-4.7-0.2-5.2,0.6C466,241.1,462,252.1,462,252.8z"/>
		<path class="st2" d="M424,245.7c0.8,4.7,3.2,9.2,14.3,10.5c4.8,0.6,1.4-3.3,4.4-6.5c4.9-5.1,9.6-11,12.2-17.4
			c2.9-7.1,4.6-15,5.6-20.9c0.2-1.3,11-20.3,11.2-20.3c-5.4-0.8-10.6-2.6-16.1-0.9c-5.7,1.8-9.7,6.1-12.9,10.9
			c-2.3,3.4-4.3,6.9-6.3,10.5c-2.1,3.7-3.7,7.7-5.5,11.6c-1.9,4.1-3.8,8.3-5.4,12.5C424.1,239,423.4,242.3,424,245.7z"/>
		<path class="st2" d="M427.8,242.2c2.1-1.7,5.7-4.7,8.1-5c7.5-0.9,12.6,0,16.5,0.3c4.4,0.4,11.6,0.5,17.6,0.5
			c0.4,0,0.6,0.4,0.3,0.7c-4.3,4.7-6,12.3-6.3,17.4c0,0.2-0.2,0.4-0.4,0.4c-2.9,0.3-5.5,0.4-6.9,0.4c-6.9,0.1-25.3-0.4-31.2-7.7
			C424.3,247.9,425.8,243.8,427.8,242.2z"/>
		<g>
			<path class="st4" d="M470,238.8c-0.1-0.9-3.7-0.7-4.3-0.7c-2.3-0.1-4.7-0.2-7-0.3c-2.2-0.1-4.4-0.2-6.7-0.4
				c-2.4-0.2-4.7-0.7-7-0.9c-3.4-0.4-6.9-0.6-10.3,0.3c-0.2,0.1-0.4-0.3-0.1-0.4c5.7-1.5,11.5,0.1,17.2,0.6
				c4.8,0.4,9.7,0.6,14.5,0.8c0.9,0,3.8-0.3,4,1C470.4,239,470.1,239.1,470,238.8L470,238.8z"/>
		</g>
		<g>
			<path class="st4" d="M429.2,253.1c4,2.4,8.3,2.9,12.9,3.5c2.4,0.3,4.8,0.2,7.3,0.2c4.7-0.1,9.5-0.3,14.2-0.4
				c2.9-0.1,5.5-3.1,6.4-5.8c0.1-0.2,0.5-0.1,0.4,0.1c-0.5,1.4-1.5,2.7-2.5,3.8c-0.9,1-2.2,2.1-3.6,2.2c-1.6,0.1-3.3,0.1-4.9,0.1
				c-2.9,0.1-5.8,0.2-8.8,0.2c-2.3,0.1-4.6,0.2-6.8,0c-2.6-0.2-5.2-0.6-7.8-1.1c-2.5-0.5-4.8-1.3-7-2.7
				C428.8,253.3,429,252.9,429.2,253.1L429.2,253.1z"/>
		</g>
		<g>
			<path class="st4" d="M459.2,212c-0.5,4.4-1.7,8.7-2.9,12.9c-1.2,4.1-2.6,8.2-4.1,12.2c-0.1,0.2-0.5,0.1-0.4-0.1
				c1.5-3.9,2.8-7.9,4-11.9c1.3-4.3,2.4-8.7,3-13.1C458.9,211.8,459.3,211.8,459.2,212L459.2,212z"/>
		</g>
		<g>
			<path class="st5" d="M482.7,239.2c1.1,0,2.2,0.1,3.1,0.9c0.4,0.3,0.7,0.7,1,1.1c0.5,0.7,1.1,2.1,2.1,1.9c0.2,0,0.4,0.3,0.1,0.4
				c-1,0.2-1.5-0.6-2.1-1.4c-0.5-0.7-1-1.4-1.7-1.9c-0.8-0.5-1.7-0.6-2.7-0.6C482.4,239.6,482.4,239.2,482.7,239.2L482.7,239.2z"/>
		</g>
		<g>
			<path class="st5" d="M494.3,236.9c-1.3-1.6-3-2.9-5.1-1.8c-0.2,0.1-0.4-0.2-0.2-0.3c2.3-1.2,4.1,0.1,5.6,1.8
				C494.7,236.8,494.4,237,494.3,236.9L494.3,236.9z"/>
		</g>
		<g>
			<path class="st5" d="M489.9,239.3c-1.1-1.5-2.8-2.2-4.7-2.1c-0.3,0-0.3-0.4,0-0.4c2-0.2,3.8,0.7,5,2.3
				C490.4,239.3,490.1,239.5,489.9,239.3L489.9,239.3z"/>
		</g>
		<g>
			<path class="st5" d="M484.5,239.6c0.9,0.8,2.1,2.2,2,3.5c-0.1,1.1-0.9,1.6-1.9,1.2c-1-0.4-1.9-1.4-3-1.3
				c-1.3,0.1-1.7,1.4-2.5,2.2c-1.5,1.2-3.5,1.2-5.3,1.2c-0.3,0-0.3-0.4,0-0.4c1.8,0,3.8,0,5.2-1.3c0.8-0.8,1.2-2.1,2.6-2.1
				c0.6,0,1.1,0.2,1.6,0.4c0.7,0.3,1.9,1.4,2.6,0.7c1.2-1.1-0.8-3.3-1.6-4C484,239.7,484.3,239.4,484.5,239.6L484.5,239.6z"/>
		</g>
		<g>
			<path class="st4" d="M453.2,275.3c4.3,2.4,8.7,4.7,13.5,5.9c0.2,0.1,0.1,0.4-0.1,0.4c-4.9-1.1-9.2-3.5-13.6-5.9
				C452.8,275.6,453,275.2,453.2,275.3L453.2,275.3z"/>
		</g>
		<g>
			<path class="st6" d="M495.6,252.6c1.5-0.1,31.1,0.1,40.1-0.1c0.7,0,1.1,0.6,1,1.2c-0.2,0.5-0.3,1-0.5,1.8c-1.5,0.1-3,0.2-4.4,0.2
				c-19.6-0.1-36.3,0.2-36.7-0.7C494.6,254.3,494.6,252.7,495.6,252.6z"/>
			<path class="st6" d="M519.5,253.7c0,0,14.1-29.8,17.2-36.5c0.4-0.8,1.2-1.3,2-1.3c9.8,0.3,50.3-0.7,60.7-0.2
				c0.1,0,0.2,0.1,0.3,0.1c0.3,0.3,0.6,0.6,0.9,0.8c0.3,0.2,0.3,0.6,0.2,0.9c-0.2,0.5-5.6,13-8.1,18.7c-1.4,3.2-2.8,6.4-4.3,9.6
				c-0.7,1.5-2.9,7.2-3.9,8c-0.8,0.6-1.8,0.6-2.7,0.6c-1.7,0-53.4,2-61.3,0.7C519.9,255.2,519.2,254.5,519.5,253.7z"/>
			<g>
				<path class="st4" d="M495.8,253.3c6.7,0.2,13.3,0.4,20,0.4c1.2,0,2.4,0,3.6-0.1c0.3,0,0.8,0,1.1-0.1c1-0.3,1.4-1.8,1.9-2.6
					c1.8-3.5,3.5-7,5.2-10.6c1.9-4,3.8-8,5.8-11.9c0.9-1.9,1.9-3.8,2.9-5.6c0.4-0.9,0.9-1.7,1.3-2.5c0.4-0.8,0.8-1.8,1.5-2.3
					c0.6-0.5,1.3-0.4,2-0.4c1.2,0,2.5-0.1,3.7-0.1c2.5-0.1,4.9-0.1,7.4-0.1c4.9-0.1,9.7-0.1,14.6-0.1c11.2,0,22.3,0.1,33.5,0
					c0.3,0,0.3,0.4,0,0.4c-19.7,0.2-39.3-0.3-59,0.3c-0.7,0-1.5-0.1-2.1,0.5c-0.3,0.4-0.6,0.9-0.8,1.4c-0.5,0.9-1,1.9-1.5,2.8
					c-1,1.9-2,3.8-2.9,5.8c-1.9,3.9-3.8,7.7-5.6,11.6c-1.8,3.7-3.5,7.3-5.4,10.9c-0.5,1-1,2.9-2.4,3.1c-0.9,0.1-1.8,0.1-2.7,0.1
					c-7.3,0.1-14.7-0.1-22-0.4C495.6,253.7,495.6,253.3,495.8,253.3L495.8,253.3z"/>
			</g>
		</g>
		<path class="st1" d="M531.3,259.4c0,0.1,0.1,0.2,0.2,0.3c4.1,3.5,14.1,3.4,15.5,2c2.3-1.6,4.7-4.2,6-7.1c0.7-1.4,2-5,0.4-6.3
			c-1.3-1-2.3,0.6-2.9,2c0.1-0.6,0.2-1.3,0.2-1.9c0-1.2-0.6-3.2-2.2-2.2c-0.7,0.4-1,1.3-1.3,2c-0.5,1.2-0.9,2.5-1.6,3.6
			c0,0.1-0.2,0-0.2,0c0-0.4,0-0.8-0.1-1.2c-0.2-0.9-0.8-2.2-2-1.7c-0.5,0.3-0.7,1-0.9,1.5s-0.4,1-0.6,1.4c0,0.1-0.1,0.1-0.2,0
			c-0.1-0.4-0.3-0.7-0.6-0.9s-0.7-0.2-0.9,0c-1.4,0.8-2.2,2.7-3.4,3.8c-1.5,1.5-2.7,2-5.3,2C530.6,256.7,530.9,259,531.3,259.4z"/>
		<g>
			<path class="st5" d="M550.3,251.2c-0.7,3.1-2.4,5.8-4.8,7.9c-0.2,0.2-0.5-0.1-0.3-0.3c2.3-2,3.9-4.7,4.7-7.7
				C550,250.9,550.4,251,550.3,251.2L550.3,251.2z"/>
		</g>
		<g>
			<path class="st5" d="M545.5,252.8c-0.8,1.9-2.1,3.5-3.6,4.8c-0.2,0.2-0.5-0.1-0.3-0.3c1.5-1.3,2.7-2.9,3.5-4.8
				C545.3,252.4,545.6,252.6,545.5,252.8L545.5,252.8z"/>
		</g>
		<g>
			<path class="st5" d="M541.6,253c-0.8,1.9-2.1,3.4-3.8,4.4c-0.2,0.1-0.4-0.2-0.2-0.3c1.7-0.9,2.9-2.3,3.7-4.1
				C541.4,252.7,541.7,252.8,541.6,253L541.6,253z"/>
		</g>
		<g>
			<path class="st5" d="M552.4,256.2c-0.4,0.7-0.9,1.3-1.4,1.9c-0.2,0.2-0.5-0.1-0.3-0.3c0.5-0.6,1-1.2,1.4-1.8
				C552.2,255.8,552.5,256,552.4,256.2L552.4,256.2z"/>
		</g>
		<g>
			<path class="st4" d="M509.6,248.9c-1.9-0.4-3.8-0.7-5.8-0.9c-0.3,0-0.3-0.4,0-0.4c2,0.2,3.9,0.5,5.9,0.9
				C510,248.5,509.8,248.9,509.6,248.9L509.6,248.9z"/>
		</g>
		<g>
			<path class="st4" d="M464.3,254c-0.1,0.5,0,1,0.1,1.5c0.1,0.2-0.3,0.3-0.4,0.1c-0.2-0.5-0.2-1.1-0.1-1.7
				C464,253.6,464.4,253.8,464.3,254L464.3,254z"/>
		</g>
		<g>
			<path class="st4" d="M449.6,234c-3.3-2.2-7-3.6-10.9-4.1c-0.2,0-0.3-0.4,0-0.4c4,0.5,7.8,1.9,11.1,4.2
				C450,233.8,449.8,234.1,449.6,234L449.6,234z"/>
		</g>
		<g>
			<path class="st4" d="M525.1,264.9c-0.2,0.5-0.3,1.1-0.2,1.7c0.1,0.2-0.3,0.4-0.4,0.1c-0.1-0.7-0.1-1.4,0.2-2
				C524.9,264.5,525.2,264.7,525.1,264.9L525.1,264.9z"/>
		</g>
		<path class="st0" d="M476.4,158.1c1.2,0.9,6.3,0.6,8.2,5.7c3.8,10.3,7.7,6.2,7.3,9c-1.3,8.7-0.7,8,0.7,9.8
			c1.4,1.9,2.4-2.7,4.7-3.4c1.5-0.5-0.1-0.7,1.2-1.7c1.1-0.9,1.4-2.6,1.8-3.9c0.5-1.5,0.5-3.1,0.5-4.6c-0.1-6.1-2.6-12.3-8.2-15.2
			c-4.5-2.3-14.4,0.5-14.5,0.6C477.3,155.2,475.6,157.5,476.4,158.1z"/>
		<g>
			<path class="st7" d="M494.1,173.4c0.8,2.3,2.7,3.8,5.2,4c0.3,0,0.3,0.4,0,0.4c-2.6-0.2-4.7-1.8-5.5-4.3
				C493.7,173.2,494,173.1,494.1,173.4L494.1,173.4z"/>
		</g>
		<path class="st1" d="M489.2,173.7c-0.1,0.2-0.1,0.3-0.2,0.5c-0.3,0.7-0.3,1.5,0,2.2c1,2.2,3.8,1.1,5-0.2s2.3-4.3,0.4-5.5
			c-1.8-1.2-4.6,0.8-5.1,2.6C489.3,173.4,489.2,173.5,489.2,173.7C489.2,173.6,489.2,173.6,489.2,173.7z"/>
		<g>
			<path class="st5" d="M489.8,178.4c-0.7,1.2-1.3,2.4-2,3.5c-0.5,0.8-1.1,1.6-1.9,2.1c-1.8,1.1-4.4,1.3-6.4,1.3
				c-0.3,0-0.3-0.4,0-0.4c1.9,0,4.5-0.2,6.2-1.3c0.8-0.5,1.4-1.5,1.9-2.3c0.6-1,1.2-2.1,1.8-3.2C489.6,178,489.9,178.2,489.8,178.4
				L489.8,178.4z"/>
		</g>
		<g>
			<path class="st5" d="M493.9,172.3c-1.8-0.5-2.9,1.5-3.9,2.6c-0.2,0.2-0.5-0.1-0.3-0.3c1.2-1.2,2.3-3.3,4.3-2.7
				C494.2,172,494.1,172.4,493.9,172.3L493.9,172.3z"/>
		</g>
		<g>
			<path class="st7" d="M480.5,158.3c0.7-0.8,1.6-1.4,2.5-2c1-0.7,2-1.4,3.2-1.9c2-0.9,4.2-1.3,6.3-0.8c0.2,0.1,0.1,0.4-0.1,0.4
				c-2.3-0.6-4.6,0-6.6,1c-0.8,0.4-1.6,0.9-2.4,1.5c-0.9,0.6-1.9,1.2-2.5,2.1C480.6,158.8,480.3,158.5,480.5,158.3L480.5,158.3z"/>
		</g>
		<g>
			<path class="st7" d="M487.5,162.4c2.4-0.7,5-0.4,7.1,0.8c1.1,0.6,2,1.5,2.9,2.4c1.3,1.3,2.8,1.8,4.5,2.2c0.2,0.1,0.1,0.4-0.1,0.4
				c-1.3-0.3-2.5-0.6-3.6-1.4c-1-0.7-1.8-1.7-2.7-2.5c-2.2-1.8-5.3-2.4-8-1.6C487.3,162.9,487.2,162.5,487.5,162.4L487.5,162.4z"/>
		</g>
		<g>
			<path class="st7" d="M499.5,172.5c-1.7-1.4-3.6-2.3-5.6-3c-0.2-0.1-0.1-0.5,0.1-0.4c2.1,0.6,4.1,1.6,5.8,3.1
				C500,172.4,499.7,172.7,499.5,172.5L499.5,172.5z"/>
		</g>
		<g>
			<path class="st5" d="M472.1,172.7c-0.3-0.2-0.7-0.4-1.1-0.3c-0.2,0-0.4-0.3-0.1-0.4c0.5-0.1,1,0.1,1.4,0.4
				C472.5,172.5,472.3,172.8,472.1,172.7L472.1,172.7z"/>
		</g>
		<path class="st4" d="M475.5,166.6c0.9-0.5,1.4,0.3,1.4,1.1c0,0.7-0.4,1.6-0.9,2.1c-0.7,0.7-1.2-0.1-1.4-0.8
			C474.5,168.1,474.8,167.1,475.5,166.6z"/>
		<path class="st0" d="M474.5,163.1c0.7-0.7,1.7-0.6,2.6-0.3c1,0.3,2,0.8,2.6,1.8c0.3,0.5-0.1,1-0.6,1.2s-1,0-1.5,0
			c-1-0.1-2.1-0.3-3-0.8C473.8,164.6,473.9,163.8,474.5,163.1C474.5,163.2,474.5,163.1,474.5,163.1z"/>
		<path class="st5" d="M470.8,176.8c0.1,0,0.2,0,0.3,0c0.2,0,2.9,0.2,2.8,0c-0.1-0.5-0.4-0.9-0.8-1.1c-0.4-0.2-1.6-0.3-2-0.4
			C471,175.7,470.9,176.2,470.8,176.8z"/>
	</g>
	<g>
		<path class="st8" d="M493.8,322.4h92.6c-0.1-4.4-0.9-12.2-1.6-17.5c-0.3-2.4-0.6-4.4-0.9-5.1c-0.9-3.5-4.3-5.6-7.4-7.1
			c-3.8-1.9-8-3-12.2-4.1c-14-3.7-28.6-5.1-43.1-5.3c-6.1-0.1-12.6,0-18.1,3.1c-2.7,1.5-4.6,4-5,7.1c-0.2,1.4-0.1,2.7,0,4
			C496.5,302.7,494.5,316.6,493.8,322.4z"/>
		<path class="st9" d="M555.2,300.3c1.5,0,11.3-22.5,11.9-24.1c0.4-1,0.8-1.7,0-2.6c-0.9-1-10.6-3.7-12-3.6
			c-1.2,0.1-1.6,0.9-2.2,1.8c-3.9,6.3-9,17.6-11.5,24.5C541,297.3,553.2,300.3,555.2,300.3z"/>
		<path class="st10" d="M524.3,297.4c0,0.8,21.9,2.5,21.6,2.2c0-7.9,0-15.7,0-23.6c0-0.3-0.1-0.5-0.2-0.6c0-0.4-19.7-2.6-20.5-1.7
			s-0.6,2.7-0.6,3.8C524.6,279.8,524.4,293,524.3,297.4z"/>
		<path class="st10" d="M546.8,311.8c3.7,0,7.4-0.3,11.1-0.6c4.5-0.4,9.2-0.5,13.7-1.1c2.3-4.4,5.5-10.7,8.1-15.7
			c2.1-4.1,3.7-7.4,4-8s-0.3-1-0.7-0.7c-0.7,0.5-1.2,0.6-2,0.9c-0.2,0.1-0.4,0.1-0.6,0c-5.3-2.6-11.9-5.4-16.9-8
			c-0.7-0.3-1.3,0.1-1.5,0.7c0,0.1-0.1,0.1-0.1,0.2l-3.5,7.5L547,311.4C546.8,311.6,546.8,311.7,546.8,311.8z"/>
		<g>
			<path class="st4" d="M565.2,283.4c-3.8,8.3-7.8,16.5-11.9,24.6c-0.1,0.2-0.5,0-0.3-0.2c4.1-8.1,8.1-16.3,11.9-24.6
				C565,282.9,565.3,283.1,565.2,283.4L565.2,283.4z"/>
		</g>
		<path class="st11" d="M497.9,277.8c0.1-0.1,0.2-0.1,0.2-0.2c0.3-0.2,0.6-0.2,0.9-0.3c6.6-1,13.2-1.8,19.8-2.6c0.2,0,0.4,0,0.5,0.1
			s0.1,0.2,0.2,0.3c1.8,5.9,3.6,11.7,5.4,17.6c0.9,3,1.8,5.9,2.7,8.9c0.2,0.8,1.8,4.7,2.2,6.9c-5.1,0.4-9.2,0.4-14.2-0.9
			c-4.2-1.1-8.4-3.6-12.3-5.9c-2.1-7.4-4.9-17.7-5.9-21.9C497.4,279.2,497.3,278.3,497.9,277.8z"/>
		<path class="st12" d="M541.1,311.9c-2.2,0-4.3-0.2-6.5-0.5c-1.2-0.1-2.4-0.1-3.6-0.3l0,0c-0.6-0.5-0.6-1.4-0.5-2.2
			c0.2-2.9,0.5-5.7,0.9-8.5c0.4-2.4,0.8-4.8,1.3-7.2c0.1-0.7,0.3-1.4,0.9-1.8c0.7-0.5,1.6-0.4,2.4-0.2c5.8,1,19.6,3.2,20,4.2
			c0.4,0.8-2,13.4-2.6,15.3C549.3,311.3,545.3,311.9,541.1,311.9z"/>
		<g>
			<path class="st4" d="M517.6,279.1c-5.2,0.8-10.4,1.6-15.6,2.4c-0.2,0-0.4-0.3-0.1-0.4c5.2-0.8,10.4-1.6,15.6-2.4
				C517.8,278.7,517.9,279,517.6,279.1L517.6,279.1z"/>
		</g>
		<g>
			<path class="st4" d="M518.7,283.4c-5.2,0.8-10.4,1.6-15.6,2.4c-0.2,0-0.4-0.3-0.1-0.4c5.2-0.8,10.4-1.6,15.6-2.4
				C518.8,283,518.9,283.4,518.7,283.4L518.7,283.4z"/>
		</g>
		<g>
			<path class="st4" d="M520.2,287.8c-5.2,0.8-10.4,1.6-15.6,2.4c-0.2,0-0.4-0.3-0.1-0.4c5.2-0.8,10.4-1.6,15.6-2.4
				C520.3,287.4,520.4,287.8,520.2,287.8L520.2,287.8z"/>
		</g>
		<g>
			<path class="st4" d="M521.3,292.2c-5.2,0.8-10.4,1.6-15.6,2.4c-0.2,0-0.4-0.3-0.1-0.4c5.2-0.8,10.4-1.6,15.6-2.4
				C521.4,291.7,521.5,292.1,521.3,292.2L521.3,292.2z"/>
		</g>
		<g>
			<path class="st4" d="M522.3,296.5c-5.2,0.8-10.4,1.6-15.6,2.4c-0.2,0-0.4-0.3-0.1-0.4c5.2-0.8,10.4-1.6,15.6-2.4
				C522.5,296.1,522.6,296.5,522.3,296.5L522.3,296.5z"/>
		</g>
		<g>
			<path class="st4" d="M523.4,300.9c-5.2,0.8-10.4,1.6-15.6,2.4c-0.2,0-0.4-0.3-0.1-0.4c5.2-0.8,10.4-1.6,15.6-2.4
				C523.5,300.4,523.7,300.8,523.4,300.9L523.4,300.9z"/>
		</g>
		<g>
			<path class="st10" d="M512.1,295.7c0.2,1.7,0.5,3.5,0.8,5.2c0.3,2,0.6,4,0.9,6c6.2,2.3,12.8,3.6,19.2,4.3
				c1.2,0.1,2.3,0.2,3.5,0.3c-1.2-6.7-2.7-16.8-3-18.4c0-0.2,0-0.3,0-0.5c0-0.7,0.1-1.3,0-2c0-0.7,0-1.7-0.4-2.3
				c-0.8-1.3-2.1,0-2.9,0.9c-0.3,0.3-0.7,0.5-1.1,0.5c-3.2,0.2-16.8,1.3-17.2,2.4C511.5,293.2,511.9,294.6,512.1,295.7z"/>
		</g>
		<g>
			<path class="st4" d="M545,312.1c0.6,0,1.2,0,1.7,0c3.6,0,7.3-0.3,11.1-0.6c1.8-0.2,3.6-0.3,5.4-0.4c2.7-0.2,5.5-0.3,8.3-0.7
				c1.1-0.1,2.1-0.3,3-0.5c3.9-0.8,7-2.3,9.2-4.4c0.1-0.1,0.1-0.2,0-0.3c-0.1-0.1-0.2-0.1-0.3,0c-2.1,2.1-5.2,3.5-9,4.3
				c-0.9,0.2-1.9,0.4-3,0.5c-2.7,0.4-5.5,0.5-8.3,0.7c-1.8,0.1-3.6,0.2-5.4,0.4c-3.8,0.4-7.6,0.6-11.1,0.6c-3.5,0.1-7-0.1-10.3-0.3
				c-1.2-0.1-2.4-0.2-3.5-0.3c-7-0.8-13.4-2.2-19.2-4.3c-1.4-0.5-2.8-1.1-4.1-1.7c-3-1.3-7.6-4-10.1-6.4c-0.1-0.1-0.2-0.1-0.3,0
				c-0.1,0.1-0.1,0.2,0,0.3c2.6,2.4,7.2,5.1,10.2,6.5c1.3,0.6,2.7,1.2,4.1,1.7c5.8,2.1,12.2,3.6,19.3,4.3c1.1,0.1,2.2,0.2,3.5,0.3
				C539.2,311.9,542.1,312.1,545,312.1z"/>
		</g>
		<g>
			<path class="st4" d="M570.5,285.9c-3.6,8.2-7.5,16.3-11.5,24.3c-0.1,0.2-0.5,0-0.3-0.2c4-8,7.8-16.1,11.5-24.3
				C570.3,285.5,570.6,285.7,570.5,285.9L570.5,285.9z"/>
		</g>
		<g>
			<path class="st4" d="M576.6,288.6c-3.6,8.2-7.5,16.3-11.5,24.3c-0.1,0.2-0.5,0-0.3-0.2c4-8,7.8-16.1,11.5-24.3
				C576.3,288.1,576.7,288.3,576.6,288.6L576.6,288.6z"/>
		</g>
		<g>
			<g>
				<path class="st4" d="M557.5,273.1c0.9,1.6,2,3.1,3.1,4.5c0.2,0.2-0.1,0.5-0.3,0.3c-1.2-1.4-2.2-3-3.2-4.6
					C557.1,273.1,557.4,272.9,557.5,273.1L557.5,273.1z"/>
			</g>
			<g>
				<path class="st4" d="M561.9,274.8c-2,0.3-4,0.9-5.9,1.7c-0.2,0.1-0.3-0.3-0.1-0.4c1.9-0.8,3.9-1.4,5.9-1.7
					C562,274.4,562.1,274.8,561.9,274.8L561.9,274.8z"/>
			</g>
		</g>
		<g>
			<g>
				<path class="st4" d="M553.9,280.1c0.9,1.6,2,3.1,3.1,4.5c0.2,0.2-0.1,0.5-0.3,0.3c-1.2-1.4-2.2-3-3.2-4.6
					C553.4,280.1,553.7,279.9,553.9,280.1L553.9,280.1z"/>
			</g>
			<g>
				<path class="st4" d="M558.2,281.8c-2,0.3-4,0.9-5.9,1.7c-0.2,0.1-0.3-0.3-0.1-0.4c1.9-0.8,3.9-1.4,5.9-1.7
					C558.4,281.4,558.5,281.8,558.2,281.8L558.2,281.8z"/>
			</g>
		</g>
		<g>
			<g>
				<path class="st4" d="M550.2,287.1c0.9,1.6,2,3.1,3.1,4.5c0.2,0.2-0.1,0.5-0.3,0.3c-1.2-1.4-2.2-3-3.2-4.6
					C549.7,287,550.1,286.8,550.2,287.1L550.2,287.1z"/>
			</g>
			<g>
				<path class="st4" d="M554.6,288.8c-2,0.3-4,0.9-5.9,1.7c-0.2,0.1-0.3-0.3-0.1-0.4c1.9-0.8,3.9-1.4,5.9-1.7
					C554.7,288.4,554.8,288.7,554.6,288.8L554.6,288.8z"/>
			</g>
		</g>
		<g>
			<path class="st4" d="M531.4,302c-5.2,0.8-10.4,1.6-15.6,2.4c-0.2,0-0.4-0.3-0.1-0.4c5.2-0.8,10.4-1.6,15.6-2.4
				C531.5,301.5,531.6,301.9,531.4,302L531.4,302z"/>
		</g>
		<g>
			<path class="st4" d="M531.7,304c-5.2,0.8-10.4,1.6-15.6,2.4c-0.2,0-0.4-0.3-0.1-0.4c5.2-0.8,10.4-1.6,15.6-2.4
				C531.8,303.6,531.9,304,531.7,304L531.7,304z"/>
		</g>
		<g>
			<path class="st4" d="M551.2,307.3c-5.1-1.3-10.2-2.6-15.3-3.9c-0.2-0.1-0.2-0.5,0.1-0.4c5.1,1.3,10.2,2.6,15.3,3.9
				C551.5,306.9,551.4,307.3,551.2,307.3L551.2,307.3z"/>
		</g>
	</g>
	
		<radialGradient id="SVGID_1_" cx="55.3468" cy="-1168.0753" r="1.1764" gradientTransform="matrix(0 36.5795 -110.7602 0 -128893.5156 -1702.1561)" gradientUnits="userSpaceOnUse">
		<stop  offset="7.000000e-02" style="stop-color:#00366A"/>
		<stop  offset="0.26" style="stop-color:#003D77;stop-opacity:0.76"/>
		<stop  offset="0.61" style="stop-color:#004F9B;stop-opacity:0.32"/>
		<stop  offset="0.86" style="stop-color:#005EB8;stop-opacity:0"/>
	</radialGradient>
	<rect x="357.8" y="322.4" class="st13" width="240.3" height="41.6"/>
	
		<radialGradient id="SVGID_00000101069067176796937590000002497862303404201141_" cx="56.2651" cy="-1164.61" r="1.0282" gradientTransform="matrix(0 36.5795 -110.7602 0 -128893.5156 -1702.1561)" gradientUnits="userSpaceOnUse">
		<stop  offset="7.000000e-02" style="stop-color:#00366A"/>
		<stop  offset="0.26" style="stop-color:#003D77;stop-opacity:0.76"/>
		<stop  offset="0.61" style="stop-color:#004F9B;stop-opacity:0.32"/>
		<stop  offset="0.86" style="stop-color:#005EB8;stop-opacity:0"/>
	</radialGradient>
	
		<rect x="-10.3" y="356" style="fill:url(#SVGID_00000101069067176796937590000002497862303404201141_);" width="210" height="36.4"/>
	<path class="st15" d="M448.2,59v224.9c0,11.5-9.3,20.8-20.8,20.8h-339c-11.5,0-20.8-9.3-20.8-20.8V59c0-1.4,0.1-2.8,0.4-4.2
		c1.9-9.5,10.3-16.6,20.4-16.6h339c10.1,0,18.5,7.1,20.4,16.6C448.1,56.1,448.2,57.5,448.2,59z"/>
	<path class="st16" d="M539.9,279.5c-0.3-1.1-1.6-1.6-2.7-1.8c-1.2-0.3-2.5-0.4-3.7,0.1c-1.1,0.5-1.9,1.9-1.4,3
		c0.3,0.7,1,1.1,1.6,1.4c0.7,0.3,1.4,0.4,2.1,0.6c1.6,0.6,2.9,1.9,3.4,3.5c0.3,0.8,0.3,1.7-0.1,2.4c-0.5,0.8-1.6,0.9-2.5,1
		c-1,0.1-2,0.1-3-0.3c-0.9-0.4-1.8-1.1-2-2.1"/>
	<path class="st16" d="M534.7,274.9c1.1,6,1.5,9,1.6,15.2"/>
	<path class="st17" d="M186.4,170.3h-77.9c-3.6,0-6.6-2.9-6.6-6.6V74.3c0-3.6,2.9-6.6,6.6-6.6h77.9c3.6,0,6.6,2.9,6.6,6.6v89.4
		C193,167.4,190,170.3,186.4,170.3z"/>
	<g>
		<line class="st18" x1="102" y1="92.3" x2="200.9" y2="92.3"/>
		<line class="st18" x1="102" y1="103.6" x2="200.9" y2="103.6"/>
		<line class="st18" x1="102" y1="115.3" x2="200.9" y2="115.3"/>
		<line class="st18" x1="102" y1="127.1" x2="200.9" y2="127.1"/>
		<circle class="st19" cx="114.9" cy="92.5" r="4.4"/>
		<circle class="st19" cx="178.5" cy="103.6" r="4.4"/>
		<circle class="st19" cx="134.1" cy="115.3" r="4.4"/>
		<circle class="st20" cx="164.9" cy="127.7" r="4.4"/>
	</g>
	<path class="st21" d="M186.4,280.9h-77.9c-3.6,0-6.6-2.9-6.6-6.6v-89.4c0-3.6,2.9-6.6,6.6-6.6h77.9c3.6,0,6.6,2.9,6.6,6.6v89.4
		C193,277.9,190,280.9,186.4,280.9z"/>
	<path class="st17" d="M200.9,249.9c0.1,1.5,1.4,2.7,3,2.6c0.1,0,0.2,0,0.3,0c0.4,1.1,0.9,2.1,1.5,3c-0.1,0.1-0.2,0.2-0.2,0.2
		c-1,1.2-0.9,2.9,0.3,3.9s2.9,0.9,3.9-0.3c0.1-0.1,0.1-0.2,0.2-0.3c1,0.5,2.1,0.9,3.2,1.1c0,0.1,0,0.2,0,0.3c0.1,1.5,1.4,2.7,3,2.6
		c1.5-0.1,2.7-1.4,2.6-3c0-0.1,0-0.2,0-0.3c1.1-0.4,2.1-0.9,3-1.5c0.1,0.1,0.2,0.2,0.2,0.2c1.2,1,2.9,0.9,3.9-0.3
		c1-1.2,0.9-2.9-0.3-3.9c-0.1-0.1-0.2-0.1-0.3-0.2c0.5-1,0.9-2.1,1.1-3.2c0.1,0,0.2,0,0.3,0c1.5-0.1,2.7-1.4,2.6-3
		c-0.1-1.5-1.4-2.7-3-2.6c-0.1,0-0.2,0-0.3,0c-0.4-1.1-0.9-2.1-1.5-3c0.1-0.1,0.2-0.2,0.2-0.2c1-1.2,0.9-2.9-0.3-3.9
		s-2.9-0.9-3.9,0.3c-0.1,0.1-0.1,0.2-0.2,0.3c-1-0.5-2.1-0.9-3.2-1.1c0-0.1,0-0.2,0-0.3c-0.1-1.5-1.4-2.7-3-2.6
		c-1.5,0.1-2.7,1.4-2.6,3c0,0.1,0,0.2,0,0.3c-1.1,0.4-2.1,0.9-3,1.5c-0.1-0.1-0.2-0.2-0.2-0.2c-1.2-1-2.9-0.9-3.9,0.3
		s-0.9,2.9,0.3,3.9c0.1,0.1,0.2,0.1,0.3,0.2c-0.5,1-0.9,2.1-1.1,3.2c-0.1,0-0.2,0-0.3,0C202,247,200.8,248.3,200.9,249.9z
		 M210,249.2c-0.2-2.9,2-5.3,4.8-5.5c2.9-0.2,5.3,2,5.5,4.8c0.2,2.9-2,5.3-4.8,5.5S210.2,252.1,210,249.2z"/>
	<g>
		<path class="st17" d="M203.3,208c0.2,2.4,2.3,4.2,4.7,4.1c0.2,0,0.4,0,0.5-0.1c0.6,1.7,1.4,3.3,2.4,4.8c-0.1,0.1-0.3,0.2-0.4,0.4
			c-1.6,1.8-1.4,4.6,0.4,6.2c1.8,1.6,4.6,1.4,6.2-0.4c0.1-0.1,0.2-0.3,0.3-0.4c1.6,0.8,3.3,1.4,5.1,1.7c0,0.2,0,0.4,0,0.5
			c0.2,2.4,2.3,4.2,4.7,4.1c2.4-0.2,4.2-2.3,4.1-4.7c0-0.2,0-0.4-0.1-0.5c1.7-0.6,3.3-1.4,4.8-2.4c0.1,0.1,0.2,0.3,0.4,0.4
			c1.8,1.6,4.6,1.4,6.2-0.4c1.6-1.8,1.4-4.6-0.4-6.2c-0.1-0.1-0.3-0.2-0.4-0.3c0.8-1.6,1.4-3.3,1.7-5.1c0.2,0,0.4,0,0.5,0
			c2.4-0.2,4.2-2.3,4.1-4.7c-0.2-2.4-2.3-4.2-4.7-4.1c-0.2,0-0.4,0-0.5,0.1c-0.6-1.7-1.4-3.3-2.4-4.8c0.1-0.1,0.3-0.2,0.4-0.4
			c1.6-1.8,1.4-4.6-0.4-6.2c-1.8-1.6-4.6-1.4-6.2,0.4c-0.1,0.1-0.2,0.3-0.3,0.4c-1.6-0.8-3.3-1.4-5.1-1.7c0-0.2,0-0.4,0-0.5
			c-0.2-2.4-2.3-4.2-4.7-4.1s-4.2,2.3-4.1,4.7c0,0.2,0,0.4,0.1,0.5c-1.7,0.6-3.3,1.4-4.8,2.4c-0.1-0.1-0.2-0.3-0.4-0.4
			c-1.8-1.6-4.6-1.4-6.2,0.4c-1.6,1.8-1.4,4.6,0.4,6.2c0.1,0.1,0.3,0.2,0.4,0.3c-0.8,1.6-1.4,3.3-1.7,5.1c-0.2,0-0.4,0-0.5,0
			C205,203.5,203.2,205.6,203.3,208z M217.5,207c-0.3-4.5,3.1-8.4,7.5-8.7c4.5-0.3,8.4,3.1,8.7,7.5c0.3,4.5-3.1,8.4-7.5,8.7
			S217.9,211.4,217.5,207z"/>
	</g>
	<path class="st17" d="M237.4,249.4c0.2,3.2,3,5.7,6.3,5.5c0.2,0,0.5-0.1,0.7-0.1c0.7,2.3,1.8,4.5,3.2,6.4c-0.2,0.2-0.3,0.3-0.5,0.5
		c-2.1,2.5-1.9,6.2,0.6,8.3c2.5,2.1,6.2,1.9,8.3-0.6c0.2-0.2,0.3-0.4,0.4-0.6c2.1,1.1,4.4,1.8,6.8,2.3c0,0.2,0,0.5,0,0.7
		c0.2,3.2,3,5.7,6.3,5.5c3.2-0.2,5.7-3,5.5-6.3c0-0.2-0.1-0.5-0.1-0.7c2.3-0.7,4.5-1.8,6.4-3.2c0.2,0.2,0.3,0.3,0.5,0.5
		c2.5,2.1,6.2,1.9,8.3-0.6s1.9-6.2-0.6-8.3c-0.2-0.2-0.4-0.3-0.6-0.4c1.1-2.1,1.9-4.4,2.3-6.8c0.2,0,0.5,0,0.7,0
		c3.2-0.2,5.7-3,5.5-6.3s-3-5.7-6.3-5.5c-0.2,0-0.5,0.1-0.7,0.1c-0.7-2.3-1.8-4.5-3.2-6.4c0.2-0.2,0.3-0.3,0.5-0.5
		c2.1-2.5,1.9-6.2-0.6-8.3s-6.2-1.9-8.3,0.6c-0.2,0.2-0.3,0.4-0.4,0.6c-2.1-1.1-4.4-1.8-6.8-2.3c0-0.2,0-0.5,0-0.7
		c-0.2-3.2-3-5.7-6.3-5.5c-3.2,0.2-5.7,3-5.5,6.3c0,0.2,0.1,0.5,0.1,0.7c-2.3,0.7-4.5,1.8-6.4,3.2c-0.2-0.2-0.3-0.3-0.5-0.5
		c-2.5-2.1-6.2-1.9-8.3,0.6s-1.9,6.2,0.6,8.3c0.2,0.2,0.4,0.3,0.6,0.4c-1.1,2.1-1.9,4.4-2.3,6.8c-0.2,0-0.5,0-0.7,0
		C239.6,243.3,237.2,246.1,237.4,249.4z M256.5,248c-0.4-6,4.1-11.2,10.1-11.7s11.2,4.1,11.7,10.1c0.4,6-4.1,11.2-10.1,11.7
		C262.1,258.6,256.9,254.1,256.5,248z"/>
	<g>
		<path class="st21" d="M259.7,190.5c7.3,0,13.2-5.9,13.2-13.2c0-1-0.8-1.7-1.7-1.7c-1,0-1.7,0.8-1.7,1.7c0,5.4-4.4,9.7-9.7,9.7
			c-5.4,0-9.7-4.4-9.7-9.7V117c0-1-0.8-1.7-1.7-1.7c-1,0-1.7,0.8-1.7,1.7v60.3C246.4,184.5,252.4,190.5,259.7,190.5z"/>
		<g>
			<g>
				<path class="st21" d="M342.5,107.6c-3.2-4-7.2-8-12-11.8c-3.6-2.9-7.7-5.7-12.1-8.4C297.8,75,272.7,68.2,248,68.2
					c-24.8,0-49.8,6.8-70.4,19.2c-18.1,10.8-30.3,24.7-31.9,36.2c0,0.1,0,0.1,0.1,0.2c0,0.1,0.1,0.1,0.2,0.1h0.4
					c0.1,0,0.1,0,0.2-0.1c4.9-4.4,12.2-7,20-7c7.7,0,15,2.5,20,7c0,0,0.1,0.1,0.2,0.1h0.5c0.1,0,0.1,0,0.2-0.1c5-4.4,12.2-7,20-7
					c7.7,0,15,2.5,20,7c0,0,0.1,0.1,0.2,0.1h0.5c0.1,0,0.1,0,0.2-0.1c5-4.4,12.2-7,20-7c7.7,0,15,2.5,20,7c0,0,0.1,0.1,0.2,0.1h0.5
					c0.1,0,0.1,0,0.2-0.1c5-4.4,12.2-7,20-7c7.7,0,15,2.5,20,7c0,0,0.1,0.1,0.2,0.1h0.5c0.1,0,0.1,0,0.2-0.1
					c4.3-3.9,10.5-6.3,17.1-6.9c0.9-0.1,1.9-0.1,2.9-0.1c4.5,0,6.9,0.8,10.8,2.4c-0.3-1.7-0.9-3.3-0.9-5.1
					C339.5,111.9,342,109.7,342.5,107.6z"/>
			</g>
		</g>
	</g>
	<circle class="st22" cx="549.8" cy="231.7" r="60"/>
	<path class="st23" d="M447.8,54.8H68c1.9-9.5,10.3-16.6,20.4-16.6h339C437.5,38.1,445.9,45.3,447.8,54.8z"/>
	<g>
		<path class="st24" d="M421.5,109.7c-4.3-0.6-6.8-4.7-5.5-9.2l4.8-20.6c1.2-4.5,5.4-8,10-8.1H533c0.4,0,0.9,0,1.3,0.1
			c4.3,0.6,6.8,4.8,5.6,9.2l-4.8,20.6c-1.2,4.5-5.4,8-10,8.1H422.9C422.4,109.8,421.9,109.8,421.5,109.7z"/>
		<path class="st25" d="M443.9,90.8c0.3-2.5,2.6-4.5,5.1-4.5h58.7c2.5,0,4.3,2,4,4.5s-2.6,4.5-5.1,4.5h-58.7
			C445.3,95.3,443.6,93.3,443.9,90.8z"/>
	</g>
	<g>
		<path class="st26" d="M273,323.3c-4.1-0.6-6.6-4.5-5.4-8.7l4.7-19.7c1.2-4.4,5.3-7.7,9.7-7.8h99.6c0.4,0,0.9,0,1.2,0.1
			c4.1,0.6,6.6,4.5,5.4,8.8l-4.7,19.7c-1.2,4.4-5.3,7.8-9.7,7.8h-99.6C273.9,323.4,273.5,323.3,273,323.3z"/>
		<path class="st27" d="M295.9,305.2c0.2-1.9,1.9-3.4,3.9-3.4h57.3c1.9,0,3.2,1.5,3,3.4s-1.9,3.4-3.9,3.4h-57.3
			C297,308.7,295.7,307.2,295.9,305.2z"/>
	</g>
	<circle class="st24" cx="423.5" cy="46.5" r="3.5"/>
	<path class="st21" d="M397.3,218.6h-88.1c-3.6,0-6.6-2.9-6.6-6.6v-24c0-3.6,2.9-6.6,6.6-6.6h88.1c3.6,0,6.6,2.9,6.6,6.6v24
		C403.9,215.6,400.9,218.6,397.3,218.6z"/>
	<path class="st17" d="M397.3,170.9h-88.1c-3.6,0-6.6-2.9-6.6-6.6v-24c0-3.6,2.9-6.6,6.6-6.6h88.1c3.6,0,6.6,2.9,6.6,6.6v24
		C403.9,168,400.9,170.9,397.3,170.9z"/>
	<circle class="st26" cx="413" cy="46.5" r="3.5"/>
	<circle class="st28" cx="402.5" cy="46.5" r="3.5"/>
	<g>
		<path class="st24" d="M397.6,114c0.1-15.4-12.5-28-27.7-28.2l0.1-15.1c23.7,0.5,42.7,19.7,42.9,43.3c0.1,7.6-1.9,14.4-5.2,20.6
			l-13.5-7.1C396.2,123.4,397.4,118.8,397.6,114z"/>
		<path class="st25" d="M369.9,142.2c10.8,0,20.1-6,24.7-14.9l13.5,7.1c-7.4,13.5-21.6,22.7-38.1,22.7c-15.4,0-29.1-8-36.7-20.2
			l12.9-8C350.9,136.9,359.8,142.2,369.9,142.2L369.9,142.2z"/>
		<path class="st25" d="M342.2,119.3c0.6,3.5,2,6.7,3.9,9.6l-12.9,8c-3.7-5.9-6-12.6-6.5-20c-0.1-1-0.1-2-0.1-3
			c-0.1-6.5,1.4-12.7,3.9-18.2c1.2-2.7,2.7-5.2,4.4-7.5l8.4,6.2l3.9,2.7c-2.2,3-3.8,6.5-4.7,10.3c-0.5,2.1-0.7,4.2-0.8,6.4
			C341.7,115.8,341.9,117.6,342.2,119.3z"/>
		<path class="st24" d="M369.8,85.8c-9.2,0-17.4,4.6-22.6,11.5l-3.9-2.8l-8.4-6.2c7.9-10.8,20.6-17.7,34.8-17.7h0.7l-0.1,15.1
			L369.8,85.8L369.8,85.8z"/>
	</g>
	<g>
		<g>
			<line class="st29" x1="419.3" y1="128.1" x2="419.5" y2="128.1"/>
			<line class="st30" x1="429.9" y1="128.1" x2="544.4" y2="128.1"/>
			<polyline class="st29" points="549.6,128.1 549.8,128.1 549.8,128.4 			"/>
			<line class="st31" x1="549.8" y1="139" x2="549.8" y2="156.2"/>
			<line class="st29" x1="549.8" y1="161.5" x2="549.8" y2="161.8"/>
		</g>
	</g>
	<g>
		<path class="st32" d="M79.3,130.3c-1.9,0-5.5-0.5-7.6-0.4c-0.3,3.6,0,7.7-0.3,11.4c-0.3,3.2-0.7,6.8-0.9,10
			c-0.1,0.9,0.8,1.6,0.7,2.4c4.9,0,9.9,0.1,14.8,0.2c0.1-0.8,0.3-1.6,0.3-1.9c0.1-1.3,0.9-1.5,1-2.8l0.9-9.9c0.3-3.1,1.5-6.9,1.8-10
			C87.1,129.2,82.3,130.3,79.3,130.3z"/>
		<path class="st33" d="M84.3,356h35.9c2.7-18.2,5.5-31.5,5.8-41.9c0.3-8.4,0-17-2.5-25.2c-1.2-4-1.3-8.7-3.8-12.1
			c-1.3-1.8-3-3.6-5.2-4.3c-1-0.3-2-0.4-3-0.3c0.5,0.1,1.1,0.2,1.6,0.3c0.2,0,0.1,0.4-0.1,0.4c-0.8-0.2-1.6-0.3-2.4-0.4
			c-0.7,0.2-1.4,0.6-1.9,1.2c-0.2,0.2-0.4-0.1-0.3-0.3c0.4-0.4,0.9-0.8,1.4-1c-3.3-0.5-6.7-0.7-10.1-0.5c-1,0-2,0.1-3,0.2
			c-0.5,0.1-0.9,0.1-1.2,0.5c-0.3,0.3-0.5,0.7-0.7,1c-1,1.5-2,3-3.1,4.5c-2.1,3-4.2,5.9-6.5,8.8c-2.2,2.9-4.6,5.7-7,8.4
			c2.6,15,2.6,8.6,3.6,23.8C82.8,328.8,83.4,340.2,84.3,356z"/>
		<path class="st33" d="M42.6,356H80c0.9-13.3,0.7-22.1,2.1-33.7c2.9-23,6.7-29.4,7.6-52.6c0.2-5.7,0.4-11.4,0.5-17.2
			c0-0.7,0.3-2-0.3-2.4c-0.3-0.2-1.6,0-2,0c-1.2,0-2.5,0-3.7,0c-2.7,0-5.4,0.1-8.1,0.1c-9.4,0.1-18.7,0.3-28.1,0.4
			c-3.2,18.2-5.8,36.6-6.5,55.1c-0.7,17.9,0.3,28.7,0.8,46.6C42.5,353.7,42.6,354.8,42.6,356z"/>
		<path class="st0" d="M135.6,184.2c-1-5.9-2.5-12.4-6.2-17.3c-0.2-0.2-0.3-0.4-0.5-0.6c-0.7-0.8-1.5-1.6-2.3-2.4
			c-4-3.4-12.1-6.3-19.4-7.4c-0.1,0-0.3,0-0.4-0.1c-0.5-0.1-1.1-0.2-1.6-0.3c-2.8-0.5-5.7-1.1-8.3-2.2c-1.9-0.8-3.6-1.8-5.3-3
			c-0.9-0.6-1.8-1.4-2.7-1.9c-1.2-0.7-2-0.1-3,0.6c-4.4,3-10.7,2.2-14.5-1.5c-1.8,1-3.4,2.3-5.1,3.4c-2.2,1.5-4.5,2.8-6.9,3.9
			c-1,0.4-1.9,0.9-2.9,1.3c-0.6,0.2-1.2,0.5-1.7,0.7c-3.2,1.3-6.4,2.5-9.6,4c-3.9,1.8-9,3.9-12.2,6.8c-3.3,3-4.7,6.1-5.8,10.4
			c-2.4,9.4,1.1,19.8,4.2,28.7c1.6,4.7,3.2,9.4,4.4,14.2c1.3,4.9,6.2,24.8,7.6,29.7c0.2,0.6,0.4,1.2,0.6,1.8c0.1,0,0.2,0,0.2-0.1
			c2-0.4,4.1-0.6,6.2-0.9c2.3-0.3,4.7-0.6,7.1-0.8c4.5-0.4,8.9-0.6,13.4-0.5s9,0.5,13.4,1.2c4.4,0.8,8.8,1.8,13.2,2.8
			c9,2,12.9,0.5,22,1.5c1.2,0.1,2.4,0.2,3.5,0.4c0.5,0,1.1,0.2,1.6,0.2c1.1-0.1,1-0.9,1.1-1.7c0.2-2.2,0.5-4.5,0.8-6.7
			C127,244,138.7,202.2,135.6,184.2z"/>
		<path class="st34" d="M89.3,177.5c-5.2,11.9-9.3,24.3-12.4,37c-0.1,0.3-0.1,0.6-0.2,0.9c-1.6,6.5-2.8,13.1-3.8,19.7
			c-0.1,0.5-0.8,0.3-0.7-0.2c1-6.8,2.3-13.6,3.9-20.2c0.1-0.3,0.1-0.6,0.2-0.9c3.1-12.5,7.2-24.8,12.4-36.6
			C88.8,176.7,89.5,177.1,89.3,177.5z"/>
		<path class="st34" d="M59.8,216.8c-4.6-10.1-9.3-20-14.2-30c-0.2-0.4-0.9-0.1-0.7,0.4c4.9,9.9,9.6,19.9,14.2,30
			C59.4,217.6,60,217.2,59.8,216.8z"/>
		<path class="st34" d="M129.3,166.9c-2.8,5.5-4.7,11.6-6.5,17.4c-3,9.8-5.1,19.8-6.2,30c-0.1,0.5-0.8,0.5-0.8,0
			c1.2-10.5,3.3-20.8,6.4-30.8c1.8-5.7,3.7-11.7,6.5-17.1C129,166.5,129.2,166.7,129.3,166.9z"/>
		<path class="st35" d="M101.3,102.7c-0.4-0.9-0.9-1.6-1.4-2.4c-0.7-1.2-1-2.3-1.1-3.8c-0.1-2.1-0.3-4-1.5-5.7
			c-1.1-1.6-2.9-2.4-4.7-2.7c-2.2-0.3-4.4,0.2-6.4,0.9c-1.2,0.4-2.3,1-3.6,1.1c-1.4,0.2-2.6-0.4-3.9-0.7c-2-0.5-3.5,0.2-5.3,1
			c-2.3,1.1-4.8,1.2-7.2,2.2c-4,1.6-5.7,5.9-5,10.1c0.5,2.9,1.6,5.6,2.1,8.4c0.5,3,0.4,6.1,0.3,9.2c0,0.3,0.4,0.3,0.5,0
			c0-0.1,0-0.3,0-0.4c0,0.1,0.1,0.1,0.2,0.1c4.9-1.6,9.6-4.1,14.8-4.7c4.8-0.5,9.5,1.1,12.6,5c0.8,1,1.4,2.2,2.2,3.2
			c0.2,0.3,0.5,0.7,1,0.5c0.6-0.2,0.6-1.2,0.6-1.7c0.2-1.2,0.3-2.4,0.5-3.5c0.3-2.1,0.7-4.3,1.5-6.3c0.4-1.1,0.9-2.1,1.5-3
			s1.4-1.6,2-2.5C101.8,105.7,102,104.3,101.3,102.7z"/>
		<g>
			<path class="st32" d="M97.3,107.1C96.9,95.9,87,92.6,80.5,92.9c-6.1,0.3-11.7,2.1-15,7c-0.6,0.9-1.1,2.6-1.5,3.7
				c-0.2,0.2-1.2,4-0.9,12c0,0.9,0.1,1.9,0.2,3c0.1,1.7,0.2,3.7,0.4,5.6c0.3,2.9,0.9,5.9,2.3,8.2c2.1,3.3,4.7,5.6,8.1,7.5
				c3.6,2,6,3.3,10.1,1.9c9-3,12-11.7,12.4-16.6c0.1-1.1,0.3-4.3,0.6-7.8c0.1-1.2,0.2-2.4,0.2-3.5C97.7,110.7,97.3,108.1,97.3,107.1
				z"/>
		</g>
		<path class="st36" d="M72.7,124.6c-1,0.4-2.1,0.4-3-0.1c-0.5-0.2-1,0.5-0.4,0.8c1.3,0.6,2.6,0.6,3.9,0.1
			C73.7,125.1,73.2,124.4,72.7,124.6z"/>
		<path class="st36" d="M91.2,124.4c-0.8,0.6-1.8,0.8-2.8,0.3c-0.5-0.3-0.9,0.5-0.4,0.8c1.2,0.7,2.5,0.5,3.6-0.3
			C92.1,124.8,91.7,124.1,91.2,124.4z"/>
		<path class="st32" d="M66,116.1c-0.3-2.4-1.8-5.4-4.6-3.9c-2.6,1.5-1.4,5.8-0.3,7.9c1.1,2.2,4.1,5.2,6.2,2.6
			C68.4,121.2,68.8,115.8,66,116.1z"/>
		<path class="st32" d="M93.8,122.7c1.9,2.7,4.7-0.2,5.7-2.3c1-2.1,1.8-6.7-0.5-8.1c-2.5-1.6-3.8,1.4-4.1,3.9
			C92.5,115.8,92.7,121.1,93.8,122.7z"/>
		<path class="st36" d="M84.6,126.3c-2.7,1.5-4.2,1.3-7.2,0.4c0,0-0.1,0-0.1-0.1c-0.5-0.4-1,0.5-0.5,0.9c2.4,1.7,5.8,1.8,8-0.3
			C85,126.9,84.9,126.1,84.6,126.3z"/>
		<path class="st0" d="M75.2,116.2c0,1.2-0.8,2.3-1.7,2.3s-1.7-1-1.7-2.3c0-1.2,0.8-2.3,1.7-2.3S75.2,115,75.2,116.2z"/>
		<path class="st0" d="M89.7,116.3c0,1.2-0.8,2.3-1.7,2.3c-0.9,0-1.7-1-1.7-2.3c0-1.2,0.8-2.3,1.7-2.3
			C89,114.1,89.7,115.1,89.7,116.3z"/>
		<path class="st35" d="M92.1,110.9c-0.1-1-1.2-1.3-1.9-1.5c-0.4-0.1-2.8-0.7-4.9,0.2c-0.6,0.3-1.1,0.8-0.9,1.4
			c0.2,0.9,1.4,0.9,2,0.8c0.9-0.1,1.9-0.1,2.8,0.1c0.6,0.1,1.1,0.3,1.8,0.3C91.7,112.1,92.1,111.6,92.1,110.9z"/>
		<path class="st35" d="M69.6,110.6c0.2-1,1.2-1.2,2-1.4c0.4-0.1,2.8-0.5,4.7,0.6c0.5,0.3,1,0.9,0.8,1.6c-0.3,0.9-1.4,0.7-2,0.6
			c-0.9-0.2-1.8-0.3-2.7-0.1c-0.6,0.1-1.1,0.3-1.8,0.2C69.9,111.9,69.5,111.3,69.6,110.6z"/>
		<path class="st36" d="M80.7,121.2c-0.1-0.2-0.3-0.4-0.6-0.3c-0.7,0.3-1.4,0.7-1.9,1.3c-0.4,0.5,0.3,1.1,0.7,0.7
			c0.4-0.5,0.9-0.9,1.5-1.1C80.6,121.6,80.8,121.4,80.7,121.2z"/>
		<path class="st36" d="M84.1,119.6c-0.1-0.8-0.7-1.4-1.1-2.1c-0.8-1.4-1-2.7-1.2-4.3c-0.1-0.6-1-0.6-0.9,0c0.2,1.3,0.3,2.7,0.9,3.9
			c0.3,0.6,0.8,1.1,1,1.7c0.9,1.9-0.1,2.9-1.4,4.1c-0.4,0.4,0.2,1.1,0.7,0.7C83.1,122.5,84.4,121.3,84.1,119.6z"/>
		<path class="st35" d="M96.5,114.9c-1.3,0.9-2.2,1.8-2.3,3.4c-0.2,2.4,0.1,5.5-1.6,7.5c-0.5,0.6-1.1,1.2-1.6,1.8
			c-0.6,0.8-0.8,2.3-1,3.2c-0.5,1.5-1.7,1.8-3.7,2.6c-0.1,0-0.1,0.1-0.2,0.1c-0.3,0.2-0.7,0.2-1,0.1c-0.5-0.2-0.8-0.5-0.9-1.1
			s0.1-1.1-0.3-1.6c-0.8-1.1-2.3-0.9-3.5-0.7c-1.6,0.3-2,1.2-2.9,2.4c-0.8,1.1-1.9,1.5-2.9,1.1c-1.5-0.7-2.3-1.5-3-3.8
			c-0.6-1.9-0.9-2.2-2.4-3.5c-0.7-0.6-1.4-1.3-2-2.1c-0.8-1.2-0.7-3.6-0.6-5c0.2-1.6,0-3.4-1.7-4.1c-0.1,0-0.2,0.1-0.3,0.2
			c-0.1,0.2-0.1,0.4-0.2,0.6c-0.4-0.3-0.8-0.4-1.2-0.4c0,0.9,0.1,1.9,0.2,3c0.3,4.3,0.7,12.9,3.2,16.7c2.1,3.3,4.6,3.8,8.1,5.7
			c3.6,2,5.6,2.2,9.8,0.7c9-3,12.1-9.1,12.5-14c0.1-1.5,0.4-9.4,0.7-13.9C97.1,114.1,96.7,114.5,96.5,114.9z"/>
		<g>
			<path class="st35" d="M95.3,118.6c0,0.1,0,0.2,0,0.3C95.3,118.7,95.3,118.6,95.3,118.6z"/>
			<path class="st35" d="M97.8,107c-0.4-11.2-10.7-15.1-17.2-14.7c-6.1,0.3-12.3,2.6-15.5,7.6c-0.6,0.9-1.1,2.6-1.5,3.7
				c-0.2,0.2-0.8,4.1-0.5,12.2c0,0.9,0.1,1.9,0.2,3c0.1,1.7,0.2,3.7,0.4,5.6c0.2,0,0.5,0,0.7,0c0.2,1,0.5,2,1,2.9
				c0.1,0.2,0.8,0.2,0.8-0.1c-0.5-1.8-0.5-3.4-0.3-5c0.1-1.6,0.6-3.3,0.4-4.9c-0.1-1.4-0.9-2.4-1.2-3.7c0-0.1,0-0.1,0-0.2
				c0-0.6,0.1-1.1,0.2-1.6c0.4-2.1,1.4-4.3,1.9-6.4c0.7-3,1.7-4.9,3.3-6.2c4-3.5,10.7-2,13-1.8c4.1,0.3,7.4,0.9,9.1,4.7
				c1,2.2,2.1,5.1,2.8,7.4c0.3,0.9,0.5,1.7,0.5,2.6c0,0.4-0.1,0.9-0.2,1.3c-0.3,1.3-1,2.4-1.2,3.7c-0.2,1.4,0,2.9,0.2,4.3
				s0.1,2.8,0.3,4.2c0,0.2,0.4,0.2,0.5,0c0.6-3,1-6.1,1.1-9.2c0.5-0.9,1-1.7,1-2.3C97.7,110.7,97.9,108,97.8,107z"/>
		</g>
		<path class="st35" d="M98.9,104c-0.2-1.2-0.4-2.4-0.9-3.6c-0.7-1.8-1.8-3.4-3.3-4.5c-1.9-1.3-4.3-1.8-6.5-2.2
			c-2.4-0.4-5.3-0.9-7.7-0.2c-1.3,0.4-2.4,1.2-3.6,1.8c-0.7,0.4-1.8,0.1-2.1,1c0,0,5.9,0.1,8.2,1.4c1.9,1,1.6,3.7,3.6,4.6
			c0.6,0.3,1.4,0.4,2.1,0.3c1.6-0.2,3.1-1.4,4.3,0.5c0.6,1,0.7,2.1,1.3,3.1c0.4,0.7,1,1.3,1.7,1.8c1.3,0.9,2.7,0.6,3.1-1.1
			C99.2,106,99,105,98.9,104z"/>
		<path class="st35" d="M95,97.4c-0.1-2.1-0.7-4.3-2.5-5.5c-2-1.4-4.9-1.6-7.3-1.5c-2.8,0.1-5.6,0.7-8.3,1.5c-1.6,0.5-3.1,1-4.6,1.6
			c-1.1,0.5-2.4,0.9-3.3,1.8c-0.6,0.7-0.9,1.7-0.5,2.5c0.3,0.6,0.8,0.9,1.4,1c-0.3,0.2-0.6,0.5-0.8,0.7c-0.2,0.2,0.1,0.5,0.3,0.3
			c2.2-2,5.1-4.2,8.3-3.2c2.8,0.9,3.1,4.2,4.6,6.3c1.2,1.7,2.9,2.3,4.8,1.6c1.2-0.4,2.2-1,3.4-1.3c1-0.3,2.3-0.1,3.2-0.7
			C95.1,101.4,95.1,99,95,97.4z"/>
		<path class="st10" d="M98.2,160.6c-0.5-1.6-1.4-2.8-2.6-3.9c-0.2-0.2-0.5-0.4-0.7-0.6c-0.4-0.3-0.7-0.6-1.1-1
			c-1.1-1-2.2-2.2-3.1-3.4c-0.2-0.2-0.3-0.4-0.5-0.6c-1.2-1.7-2-3.6-2.3-5.7c-6.1,0.2-11.3,0.1-17.5-0.3c-0.2,2-1.3,4-2,5.9
			c-0.1,0.2-0.2,0.5-0.2,0.7l0,0c-1.3,4.3-3.6,8.4-6.5,11.9l0,0c0,0.6,0.2,1.3,0.3,1.9c1.7,0.5,3.4,0.9,5.2,1.2
			c7.9,1.3,15.9,0.3,23.6-1.9c2.7-0.8,5.3-1.7,7.8-2.7C98.6,161.6,98.4,161.1,98.2,160.6z"/>
		<path class="st0" d="M131.6,286.2c-0.8-9.2-4.5-23.3-6.2-32.4c-1.7-9.2-0.4-13-3-22c-0.7-2.3-1.3-4.5-2.1-6.8
			c-0.2-0.5-0.3-1-0.5-1.6c-0.1-0.4-0.3-1.4-0.6-1.7c-0.4-0.5-1.5-0.6-2.1-0.8c-4.2-1.3-8.5-2.2-12.9-2.8c-8.9-1.2-18-0.9-26.8,0.8
			c-4.2,0.8-8.5,1.9-12.5,3.6c-4.3,1.8-8,4.8-12.4,6.2c-1.7,0.6-3.4,0.9-5.2,1.1c-0.1-0.3-0.1-0.3-0.2-0.5c-0.1,0.1-0.1,0.3-0.2,0.5
			c-0.4,0-0.9,0.1-1.3,0.1c-0.2,0-0.2,0.4,0,0.4c0.4,0,0.8,0,1.2-0.1c-3.5,21.3-7.9,42.4-10.9,63.8c-0.7,5-1.4,14.1-1.1,17.7
			c0.1,0.8,0.4,1.4,1.2,1.5c4.2,0.5,17.2,2.1,24.3,2.1c3.5,0,7.2,0,10.4-1.8c2.5-1.4,4.4-3.7,5.8-6.3c1.5-2.7,2.5-5.6,3.3-8.6
			c1.2-4.1,2.3-8.2,3.2-12.4c0.9-3.7,1.7-7.5,2.4-11.2c0.1-0.7,0.3-1.4,0.4-2.1c0-0.2,0.1-0.5,0.1-0.7c0.4,1.7,0.8,3.5,1.2,5.2
			c1.1,4.5,2.3,9.1,3.6,13.5c1.2,4,2.5,9.4,4,13.4c2.6,7.1,2.9,7.1,8.6,7.8c9.2,1.1,19.4,0.9,25.4-2.5c1.4-0.8,3-1.7,3.5-3.3
			C132.7,305.9,132,290.9,131.6,286.2z M47.5,229.1C48.3,228.4,47,228.4,47.5,229.1L47.5,229.1z M47.5,229.1
			c-0.1,0.1-0.1,0.1-0.2,0.2c0.1,0.1,0.1,0.2,0.1,0.3C47.4,229.5,47.5,229.4,47.5,229.1C47.6,229.2,47.5,229.1,47.5,229.1z"/>
		<path class="st10" d="M98.7,162.2c-0.1-0.6-0.2-1.1-0.4-1.6c-0.5-1.6-1.4-2.8-2.6-3.9c-0.2-0.2-0.5-0.4-0.7-0.6
			c-0.6-0.5-1.2-0.9-1.8-1.3c-1.1-0.8-2.2-1.5-3.4-2.3c-0.1-0.1-0.2-0.2-0.4-0.3c-0.3-0.2-0.5-0.4-0.8-0.6c-0.7-0.5-1.3-0.9-2.1-1.3
			c-2.5-1.3-5.6-0.7-8.2-0.6c-2.7,0.1-5.5,0.2-8.2,0.2c-0.4,0.4-0.8,0.8-1.3,1.3c-0.2,0.2-0.4,0.4-0.6,0.6l0,0
			c-0.8,0.9-1.7,1.8-2.5,2.8c-1.4,1.7-2.8,3.5-3.6,5.6c-0.4,1.2-0.6,2.3-0.5,3.4l0,0c0,0.6,0.2,1.3,0.3,1.9c0.6,2.3,1.8,4.5,2.8,6.6
			c1.7,3.7,3.5,7.3,5.3,10.9c3.1,5.9,6.9,12.7,10.5,18.3c3.2-3.9,5.8-8.8,8.7-12.9c2.8-4.1,5.5-8.3,7.4-13
			C98.3,171.5,99.5,166.6,98.7,162.2z"/>
		<path class="st0" d="M78.4,114.8c-0.1-0.4-0.1-0.8-0.3-1.1c0-0.1-0.1-0.2-0.1-0.3c-0.3-0.8-0.7-1.4-1.5-1.7
			c-1.5-0.6-3.6-0.5-5.2-0.4c-2,0.1-3.6,0.6-4.5,1.9c-0.4,0.6-0.6,1.3-0.7,2.3c0,0.1,0,0.2,0.1,0.5c0.3,2.4,1.1,4.8,3.4,6
			c2.2,1.2,6.5,1,8-1.4C78.4,119.1,78.7,116.8,78.4,114.8z M76.6,120c-1.5,2.2-5.8,2-7.6,0.2c-1.3-1.3-1.8-3-2-4.7v-0.1
			c0.1-3,2.6-3.4,5.1-3.5c0.8,0,1.6,0,2.4,0.1c1.4,0.1,2.2,0.7,2.7,1.8C78,115.8,77.6,118.7,76.6,120z"/>
		<path class="st0" d="M83.9,120.6c1.4,2.3,5.8,2.5,8,1.4c2.3-1.2,3.1-3.6,3.4-6c0-0.3,0.1-0.4,0.1-0.5c0-0.9-0.3-1.7-0.7-2.3
			c-0.9-1.3-2.5-1.8-4.5-1.9c-1.6-0.1-3.7-0.2-5.2,0.4c-0.8,0.3-1.2,1-1.5,1.7c0,0.1-0.1,0.2-0.1,0.3c-0.1,0.4-0.2,0.7-0.3,1.1
			C82.8,117,83.1,119.3,83.9,120.6z M84.2,114c0.5-1,1.3-1.6,2.7-1.8c0.8-0.1,1.6-0.1,2.4-0.1c2.5,0,5,0.5,5.1,3.5v0.1
			c-0.2,1.8-0.7,3.5-2,4.7c-1.8,1.8-6.1,1.9-7.6-0.2C83.9,118.9,83.5,116,84.2,114z"/>
		<path class="st0" d="M83.4,114.6c-0.9-0.3-1.8-0.7-2.7-0.7c-0.9,0-1.9,0.3-2.8,0.5c-0.5,0.1-0.3,1,0.2,0.8
			c0.8-0.2,1.7-0.5,2.6-0.5s1.7,0.4,2.5,0.7C83.7,115.7,84,114.8,83.4,114.6z"/>
		<path class="st0" d="M69.8,111.4c-1.3,0.1-1.9,0.6-2.7,0.8c-0.8,0.2-1.4,0.2-2.1,0c-0.8-0.5-1.5-1-2.4-1.5
			c-0.5-0.3-0.9,0.5-0.4,0.8c0.9,0.5,1.8,1.1,2.7,1.7c0.9,1.2,1.2,2.6,1.6,4.1c0.1,0.2,0.4,0.2,0.4-0.1l0,0v-0.1
			c0-0.4,0-0.3-0.1-0.8c0-0.1-0.1-0.1-0.1-0.1l0,0c0-0.1,0-0.1-0.1-0.1c-0.1-0.5,0-1.3,0.2-1.7c0.2-0.6,0.5-1.1,1.1-1.4
			c0.6-0.4,1.1-0.6,1.6-1.1C69.7,111.6,70,111.4,69.8,111.4z"/>
		<path class="st0" d="M92,112c0.4,0.5,1,0.8,1.5,1.1c0.5,0.4,0.9,0.8,1,1.4c0.1,0.4,0.3,1.2,0.2,1.7l-0.1,0.1l0,0l-0.1,0.1
			c-0.1,0.4-0.1,0.3-0.1,0.8v0.1l0,0c0,0.3,0.3,0.3,0.4,0.1c0.4-1.5,0.7-2.9,1.5-4.1c0.8-0.6,1.7-1.2,2.6-1.7c0.5-0.3,0-1-0.4-0.8
			c-0.8,0.5-1.5,1-2.2,1.5c-0.6,0.2-1.3,0.2-2,0s-1.3-0.7-2.5-0.8C91.5,111.7,91.9,111.9,92,112z"/>
		<path class="st0" d="M77.6,95.5c-0.8-1.5-2.1-3.4-4-2.7c-0.5,0.2-0.3,1,0.2,0.8c1.6-0.5,2.5,1.2,3.1,2.3
			C77.1,96.5,77.9,96,77.6,95.5z"/>
		<path class="st0" d="M98.5,98.9c-0.5-3.1-3.4-6.5-6.1-7.9c-0.5-0.3-0.9,0.5-0.4,0.8c2.2,1.1,3.6,2.9,4.8,5c0.9,1.5,1.4,3,0.2,4.4
			c-1,1.1-2,0.9-3.4,1.4c-0.5,0.2-0.3,1,0.2,0.8c1.4-0.5,3-0.3,4-1.4C98.5,101.1,98.7,100,98.5,98.9z"/>
		<path class="st0" d="M100.2,247.8c-0.2,1.5-0.4,3-0.7,4.5c-0.2,1.2-0.2,2.3-1.7,2.5c-0.9,0.1-1.9-0.1-2.8-0.1
			c-3.1-0.1-6.3-0.3-9.4-0.4c-6.4-0.3-12.8-0.7-19.1-1.2c-6.4-0.5-12.8-1-19.1-1.6c-3.3-0.3-6.5-0.7-9.8-1.3
			c-3.1-0.7-6.4-1.6-8.2-4.5c-1.5-2.4-1.8-5.4-2.2-8.2c-0.4-3.2-0.8-6.4-1.1-9.5c-0.6-6.2-1-12.5-1.3-18.8
			c-0.3-7.2-0.4-14.5-0.1-21.7C25,181,26.4,173.9,32,170c3.4,6.9,6.2,14,8.4,21.3c2.3,7.9,3.5,16,5,24.1c0.6,3.4,1,7.2,2.5,10.3
			c1.2,2.6,3.1,3.3,5.8,3.2c8.4-0.5,16.9-1.7,25.3-2.7c7.8-0.9,15.6-1.6,23.4-2C102.1,232.1,101.3,240,100.2,247.8z"/>
		<path class="st32" d="M209.1,198.3c-1.1,0.7-1.9,0.7-4,1.9c-3.7,1.9-11.7,11.5-15.5,12.9c-0.4,0.2-0.6,0.5-0.6,0.9
			c-0.1,0.2,0,0.5,0.1,0.7c1.1,1.9,2.2,3.9,3.3,5.8c-0.2,0.6,0.2,1.4,1,1.2h0.1c0.2,0,0.3,0,0.5-0.1c4.8-1.1,9.1-4.1,14-4.8
			c2.5,0,5,0,7.4,0.3c1.2,0.2,2.4,0.5,3.6,0.8c1.9,0.6,4,0.5,5.9-0.1c4.2-1.4,8.2-3.5,12.2-5.6c0.1-0.2,0.2-0.5,0.2-0.8
			c1.4-0.1,2.8-0.2,4.2-0.3c1,0,0.8-1,0.3-1.9c-0.8-1.6-5.5-3.6-5.9-3.8c-2.8-1-6-0.5-8.9-0.9c-1.3-0.2-2.7-0.2-4-0.5
			c-1.2-0.3-2.3-0.8-3.4-1.1c-1.1-0.6-2.3-1.1-3.4-1.6c-0.7-0.3-0.8-1.3-0.2-1.8s1.3-0.9,2.1-1.2c1.5-0.7,3-1.3,4.2-2.4
			c0.7-0.7,2.4-2.7,2.4-3.7c0-1.1-1.5-1.3-3-0.1L209.1,198.3z"/>
		<path class="st10" d="M194.2,206.6c2,6,3.3,12.1,3.8,18.4c-0.8,0.1-1.6,0.2-2.4,0.3c-1.3-4-2.5-8-3.8-12.1c-0.3-1-0.6-2-0.9-3
			c-0.2-0.7-1.4-2.4-0.6-2.6C192.7,207,193,206.8,194.2,206.6z"/>
		<path class="st0" d="M122.5,218.9c0.1,5.4,0.5,10.8,1.4,16.2c0.8,4.3,1.8,8.3,6,10.3c3.9,1.8,8.4,1.7,12.5,1.3
			c5.3-0.5,10.5-1.8,15.7-3.2c10.7-2.9,21.2-6.7,31.3-11.2c1.8-0.8,4.8-1.6,6-3.3c1-1.4,0.2-3.2-0.2-4.7c-1.4-5.6-4.9-18.2-5.3-18.1
			c-16.1,2.9-29.2,3.4-43.3,7.3c-1.1-7.4-3.6-14.6-6.3-21.7c-1.1-2.9-5.9-18.4-9-22c-2.2-2.5-3.6,12.3-6.8,11.7c0-0.3,8-7.6,8.1-7.9
			c0-0.5-4.9,0.1-4.9,0.6C126.7,187.3,122.4,205.8,122.5,218.9z"/>
		<path class="st34" d="M76.9,214.5c-0.1,0.3-0.1,0.6-0.2,0.9c-0.2-0.2-0.4-0.5-0.6-0.7c-5.5-6.6-11.2-13.1-16.1-20.2
			c-5.3-7.8-9.9-16.1-14.8-24.2c-0.2-0.3,0.1-0.5,0.4-0.6c4.1-0.3,8.2-0.6,12.2-0.9c-1.3-1.5-2.7-3.1-3.9-4.7c-0.8-1-1.9-2-1.6-3.4
			c0.3-1.1,1.4-2.3,2.4-3.3c0.6-0.2,1.2-0.5,1.7-0.7c-0.8,0.9-1.5,1.7-2.3,2.6c-1.1,0.8-1.3,1.8-0.6,3.2c0.2,0.3,0.4,0.5,0.6,0.8
			c0.5,0.6,1,1.3,1.5,1.9c1,1.2,2.1,2.5,3.1,3.7c0.2,0.3,0,0.6-0.3,0.6L46,170.4c4.6,7.7,9,15.7,14.1,23.1
			c4.8,7.1,10.6,13.6,16.1,20.2C76.5,214,76.7,214.3,76.9,214.5z"/>
		<path class="st34" d="M115.9,166.2c-7.4,18.8-20.9,34.1-33.6,49.6c-0.2,0.2-0.4,0.5-0.6,0.7c-0.3,0-0.6-0.1-0.9-0.1
			c0.2-0.2,0.4-0.5,0.6-0.7c12.6-15.3,26.1-30.5,33.5-49.1c-4.2,0.3-8.3,0.7-12.5,1c-0.4,0-0.5-0.4-0.3-0.7l3.7-4.4
			c0.8-1,2.4-2.3,1.6-3.8c-0.3-0.7-1.2-1.3-1.8-1.8c-0.2-0.2-0.5-0.4-0.7-0.7c0.5,0.1,1.1,0.2,1.6,0.3c0.7,0.6,1.3,1.3,1.6,2
			c0.5,1.1,0.1,2.1-0.6,3c-1.3,1.8-2.9,3.5-4.4,5.2c4.1-0.3,8.1-0.7,12.2-1C115.8,165.7,116,166,115.9,166.2z"/>
		<path class="st34" d="M86,273.3c-0.1,0.7-0.2,1.4-0.4,2.1l-3.4-23.5c-0.1-0.5,0.6-0.7,0.7-0.2C84.8,260.9,84.2,264.1,86,273.3z"/>
		<path class="st34" d="M179.4,229.1c2.5,0,2.5,3.8,0,3.8C177,232.9,177,229.1,179.4,229.1z"/>
		<path class="st34" d="M168.1,232.2c2.5,0,2.5,3.8,0,3.8S165.6,232.2,168.1,232.2z"/>
		<path class="st34" d="M157.2,235.1c2.5,0,2.5,3.8,0,3.8C154.7,238.9,154.7,235.1,157.2,235.1z"/>
		<path class="st0" d="M92.9,309.4c-3.7,3.5-7.2,7.1-10.6,10.8c-0.3,0.4,0.2,0.9,0.5,0.5c3.4-3.8,6.9-7.4,10.6-10.8
			C93.8,309.6,93.2,309.1,92.9,309.4z"/>
		<path class="st34" d="M129.1,218c2.5-4.1,7-6.5,11.8-6.2c0.5,0,0.5,0.8,0,0.8c-4.5-0.2-8.8,2-11.2,5.9
			C129.5,218.8,128.8,218.4,129.1,218z"/>
		<path class="st10" d="M51.3,231.8c0,5.1,1.8,10.4,5.8,13.6s10.1,3.8,14.1,0.6c3.6-2.9,4.7-7.8,4.9-12.4c0.3-6.5-1.4-13.6-7.6-16.9
			c-4.6-2.5-11.4,1.4-14.2,5.2C52.2,224.7,51.3,228.3,51.3,231.8z"/>
		<path class="st32" d="M60.1,215.6c-0.7,1.2-1.2,2.5-1.7,3.8c-0.8,2.4-1.6,4.7-2.4,7.1c-0.7,2.2-1.4,4.4-1.4,6.7
			c0,1.2,0.3,2.4,1.2,3.3c1.1,1.1,2.8,1.2,4.3,0.8c1.5-0.5,2.7-1.4,3.9-2.4c1.3-1.1,2.7-2.2,3.3-3.9c0.3-1,0.3-2.2,0.2-3.3
			c-0.3-3.7-0.9-7.3-1.9-10.9c-0.3-1.2-0.7-3.2-2.2-3.5C61.9,213,60.7,214.6,60.1,215.6z"/>
	</g>
	<g>
		<line class="st37" x1="305.7" y1="232.3" x2="404.7" y2="232.3"/>
		<line class="st37" x1="305.7" y1="243.6" x2="404.7" y2="243.6"/>
		<line class="st37" x1="305.7" y1="255.3" x2="404.7" y2="255.3"/>
		<line class="st37" x1="305.7" y1="267.1" x2="404.7" y2="267.1"/>
		<circle class="st38" cx="318.7" cy="232.5" r="4.4"/>
		<circle class="st38" cx="382.3" cy="243.6" r="4.4"/>
		<circle class="st38" cx="337.9" cy="255.3" r="4.4"/>
		<circle class="st38" cx="368.6" cy="267.6" r="4.4"/>
	</g>
	<path class="st16" d="M513.7,293.3c2.7-0.3,4.7-0.5,7.4-0.8c0.4,2.8,0.7,5.6,1.1,8.5c-2.2,0.3-5.2,0.7-7.4,1.2
		C514.3,299.3,514.3,296.3,513.7,293.3z"/>
	<path class="st16" d="M534.6,301c2.4,0.3,4.8,0.8,7.1,1.6c0.6-2.7,1.1-5.4,1.5-8.2c-2.5-0.7-5.1-1.2-7.7-1.5
		c-0.2,1.7-0.6,3.4-1.1,5"/>
	<path class="st16" d="M537.6,296c-0.1-0.3-0.1-0.6,0-0.9c0.1-0.2,0.2-0.4,0.4-0.5s0.4-0.1,0.6-0.1c0.2,0,0.4,0,0.6,0.1
		c0.2,0.1,0.2,0.4,0.3,0.6s0.1,0.5,0.1,0.7s-0.1,0.5-0.2,0.6c-0.1,0.2-0.4,0.3-0.6,0.3C538.3,296.9,537.8,296.6,537.6,296z"/>
	<path class="st16" d="M536.7,297.8c0.3-0.4,0.7-0.9,1.2-0.9c0.5-0.1,1,0.2,1.3,0.6s0.5,0.9,0.5,1.4s-0.1,1-0.2,1.5
		c-1.1-0.2-2.2-0.4-3.3-0.6c-0.4-0.1-0.6-0.3-0.4-0.7C536.1,298.6,536.4,298.2,536.7,297.8z"/>
	<path class="st16" d="M517.1,296.3c-0.2-0.3-0.3-0.6-0.3-0.9c0-0.2,0-0.5,0.2-0.6c0.1-0.2,0.4-0.2,0.6-0.3c0.2-0.1,0.4-0.1,0.6-0.1
		c0.2,0.1,0.4,0.3,0.5,0.5s0.3,0.4,0.3,0.6c0.1,0.2,0.1,0.5,0,0.7s-0.2,0.4-0.4,0.5C518,296.9,517.4,296.8,517.1,296.3z"/>
	<path class="st16" d="M516.8,298.2c0.1-0.5,0.4-1,0.8-1.3c0.4-0.2,1-0.2,1.4,0.1c0.4,0.3,0.7,0.7,0.9,1.2s0.3,1,0.3,1.5
		c-1.1,0.2-2.2,0.4-3.4,0.5c-0.4,0.1-0.7-0.1-0.6-0.5C516.5,299.2,516.7,298.7,516.8,298.2z"/>
	<path class="st39" d="M52.1,220.8c-5.5,1.7-10.3,5.9-12.7,11.2"/>
	<path class="st40" d="M69.2,152.9c2,3,3.7,4.5,6.1,6.9c0.2,0.2,0.4,0.5,0.7,0.5c0.3,0,0.5-0.4,0.6-0.7c1.4-3.7,2.7-7.4,4.1-11.2
		c2,3.7,3.8,7.7,5,11.7c1.8-2.7,2.7-4,4.5-6.7"/>
	<path class="st41" d="M214.7,201c-0.7,2.6-2.7,4.7-5.2,5.6"/>
	<path class="st41" d="M236.6,211.3c-1.5-0.6-3.1-0.8-4.7-0.5c-1.8,0.3-3.5,1.1-5.2,1.6c-3,0.9-6.1,0.8-9.2,0.7"/>
	<path class="st41" d="M218.5,209.9c2.8,0.1,5.6,0.1,8.3-0.6c1.5-0.4,2.9-1.1,4.4-1.5c2.9-0.7,6-0.5,8.7,0.8"/>
	<g>
		<g>
			<path class="st42" d="M74,192.3c0,0-6.9,0.3-8.5,8.9c-1.6,8.6,7.9,10.4,11.8,9.7s10-5.2,10-5.2l-0.1-8l-3.5-2.9l-6.2-2.1
				L74,192.3z"/>
			<path class="st43" d="M95.5,259.5c-2.1,0.6-4.5,0.9-6.8,0.9c-4.1,0-24.4,0.1-30.4-0.6c-2.4-0.2-2.9-0.9-2.6-3.1
				c0.4-2.7,1-5.4,1.8-8.1c1.8-7.8,3.9-15.4,5.6-23.4c1.7-7.3,2.9-14.6,5.2-21.8c1-3.3,2.2-4.2,5.7-3.7c8.7,1,17.3,1.3,26,2.3
				c3.8,0.4,5.8,0.2,9.5,1.2c1.1,0.2,2,1.3,1.7,2.4c0,0.2-0.1,0.5-0.3,0.6c-0.9,2.9-1.2,6-2.2,9.1c-2.6,7.5-3.5,14.9-6,22.6
				c-1.7,5.4-3,11-5,16.4C96.9,256.4,97.6,258.4,95.5,259.5z"/>
			<path class="st17" d="M74,192.3l34.9,0.9c3.1,0.1,5.2,2.8,6.5,5.5c1.9,4.6,0.9,17.1-2.2,29.4l-35.1-2.9c0,0,6.4-18.6,3.4-25.6
				C78.6,192.6,74,192.3,74,192.3z"/>
		</g>
		<g>
			<g>
				<path class="st32" d="M57.8,221.5c0.3,1,0.8,1.7,1.4,2.2c0.9,0.8,1.9,1.1,1.9,1.1s-0.2,0.2-0.3,0.5c-0.2,0.4-0.5,1.1-0.3,1.8
					c0.3,1.5,1.4,3.1,4.2,4.2c2.8,1.1,6.8,3,8.1,1.4c0.8-1,0.3-2.1-0.3-2.8c-0.4-0.5-0.8-0.8-0.8-0.8s0.5,0.1,1.1-0.1
					c0.6-0.2,1.3-0.7,1.3-1.9c-0.1-1.1-0.5-1.9-0.9-2.4c-0.5-0.7-1.1-1-1.1-1s0.3,0,0.7-0.2c0.6-0.3,1.3-1,0.9-2.7
					c-0.1-0.5-0.3-0.9-0.6-1.3c-0.8-1-1.9-1.5-1.9-1.5c0.2,0,0.4-0.1,0.6-0.2c0.3-0.1,0.5-0.3,0.7-0.6c0.7-1.1-0.1-2.3-0.9-3
					c-1.7-1.5-3.8-2.8-6-3.6c-1.1-0.4-2.3-0.6-3.5-0.6c-0.5,0-0.9,0.2-1.2,0.4s-0.5,0.6-0.6,1.1c-0.1,0.3,0,0.7,0.1,1
					c0.1,0.2,0.1,0.4,0.2,0.6c-0.4-0.2-0.9-0.2-1.4-0.1c-0.1,0-0.2,0.1-0.4,0.1c-1.8,0.6-1.5,2.9-0.5,4c0.1,0.2,0.3,0.3,0.5,0.5
					s0.4,0.3,0.6,0.5c0.1,0.1,0.4,0.3,0.5,0.3c-0.1,0-0.5,0.1-0.9,0.3C58.2,219.1,57.3,219.9,57.8,221.5z"/>
			</g>
			<g>
				<g>
					<g>
						<path class="st44" d="M59.1,213l14,6.3c-0.8-1-1.9-1.5-1.9-1.5c0.2,0,0.4-0.1,0.6-0.2l-11.5-5.2c0.1,0.2,0.1,0.4,0.2,0.6
							C60.1,212.9,59.6,212.9,59.1,213z"/>
					</g>
				</g>
				<g>
					<g>
						<path class="st44" d="M59.9,218.4c-0.1,0-0.5,0.1-0.9,0.3l14.1,5.8c-0.5-0.7-1.1-1-1.1-1s0.3,0,0.7-0.2l-14-5.7
							c0.2,0.2,0.4,0.3,0.6,0.5C59.5,218.2,59.8,218.4,59.9,218.4z"/>
					</g>
				</g>
				<g>
					<g>
						<path class="st44" d="M61.1,224.8c0,0-0.2,0.2-0.3,0.5l11.8,4.5c-0.4-0.5-0.8-0.8-0.8-0.8s0.5,0.1,1.1-0.1l-13.7-5.3
							C60.1,224.5,61.1,224.8,61.1,224.8z"/>
					</g>
				</g>
			</g>
		</g>
	</g>
</g>
<path class="st25" d="M369.7,111L369.7,111c-2.8,0-5.1-2.1-5.3-4.9l-3.7-52c-0.4-5.1,3.7-9.4,8.8-9.4l0,0c5.1,0,9.1,4.3,8.8,9.4
	l-3.3,52C374.8,108.8,372.5,111,369.7,111z"/>
<circle class="st25" cx="370.1" cy="121.5" r="5.6"/>
</svg>
